<svg id="Laag_1" data-name="Laag 1" xmlns="http://www.w3.org/2000/svg" xmlns:xlink="http://www.w3.org/1999/xlink" viewBox="0 0 2049.6 1277.46"><defs><style>.cls-1{fill:none;}.cls-2{clip-path:url(#clip-path);}.cls-3,.cls-4{fill:#60f;isolation:isolate;}.cls-3{opacity:0.5;}.cls-4{opacity:0.6;}</style><clipPath id="clip-path"><rect class="cls-1" x="-44.65" y="-3.5" width="2115.56" height="1488.78"/></clipPath></defs><g class="cls-2"><path class="cls-3" d="M540.27-593.7a422.63,422.63,0,0,0-79.76,31.63C337.27-497.8.18-280.95.18,168.51c0,0-23.88,741,480.67,1006.06,13.86,7.28,27.11,14.51,41.21,21.3,69,33.22,345.63,169.48,882.65-6.88,4.38-1.44,8.82-2.86,13.25-4.13,50.07-14.41,501.25-159.19,518.59-704.66,0,0,27-565.93-355.25-879.71-6.5-5.33-12.9-10.72-19.13-16.37C1507.27-465.62,1144.09-765.49,540.27-593.7Z"/><path class="cls-3" d="M652.88-625.57a423,423,0,0,0-79.77,31.63c-123.24,64.27-460.3,281.13-460.3,730.61,0,0-23.87,741,480.68,1006.06,13.85,7.28,27.1,14.51,41.2,21.3,69,33.22,345.64,169.49,882.65-6.88,4.38-1.43,8.82-2.86,13.25-4.13,50.08-14.4,501.26-159.19,518.59-704.65,0,0,27-565.94-355.24-879.71-6.5-5.34-12.91-10.73-19.14-16.37C1619.88-497.49,1256.72-797.41,652.88-625.57Z"/><path class="cls-4" d="M626-702.93a423,423,0,0,0-79.77,31.63C423-607,86-390.17,86,59.32c0,0-23.88,741,480.67,1006,13.86,7.28,27.11,14.51,41.21,21.3,69,33.23,345.63,169.49,882.65-6.87,4.37-1.44,8.82-2.86,13.25-4.14,50.07-14.4,501.25-159.18,518.59-704.65,0,0,27-565.93-355.25-879.71-6.5-5.34-12.9-10.73-19.13-16.37C1593-574.84,1229.88-874.77,626-702.93Z"/></g></svg>
