<svg id="Laag_1" data-name="Laag 1" xmlns="http://www.w3.org/2000/svg" xmlns:xlink="http://www.w3.org/1999/xlink" viewBox="0 0 452.22 448.22"><defs><style>.cls-1{fill:url(#Naamloos_verloop_224);}.cls-2{fill:url(#Naamloos_verloop_224-2);}.cls-3{fill:url(#Naamloos_verloop_224-3);}</style><linearGradient id="Naamloos_verloop_224" x1="6.06" y1="444.49" x2="381.59" y2="68.96" gradientUnits="userSpaceOnUse"><stop offset="0" stop-color="#e55"/><stop offset="0.04" stop-color="#e24e63"/><stop offset="0.13" stop-color="#c43b89"/><stop offset="0.24" stop-color="#931cc6"/><stop offset="0.34" stop-color="#60f"/></linearGradient><linearGradient id="Naamloos_verloop_224-2" x1="96.41" y1="353.9" x2="355.51" y2="94.8" xlink:href="#Naamloos_verloop_224"/><linearGradient id="Naamloos_verloop_224-3" x1="163.66" y1="285.05" x2="261.71" y2="187.01" xlink:href="#Naamloos_verloop_224"/></defs><path class="cls-1" d="M6,211.54c1.11-8.33,1.94-16.7,3.38-25C18.3,135.62,42.49,93.12,81.16,59,114,30,152.28,12.14,195.73,6.62,264-2,324.17,16.46,375.13,62.85c35.71,32.52,57.89,73,67.07,120.47C464.3,297.53,391.55,411,278.64,438c-11.77,2.82-24,3.82-36,5.68-1.26.2-2.5.49-3.75.74H214.86c-1.69-.23-3.38-.42-5.06-.69-12.28-1.94-24.7-3.21-36.78-6-25.63-5.87-49.18-16.76-70.81-31.7-2.36-1.64-4.15-1.52-6.58-.36q-38.65,18.57-77.38,37a27.06,27.06,0,0,0-2.78,1.76H6V435c.67-1.21,1.46-2.37,2-3.63,10.79-25.08,21.3-50.3,32.5-75.19,2.82-6.27,2.23-10.61-1.4-16.22A200.42,200.42,0,0,1,10.75,269.1C8.58,258.05,7.56,246.78,6,235.6ZM26.53,423.27c2.24-1,3.53-1.5,4.79-2.1,19.5-9.28,39.19-18.18,58.38-28.05,7.83-4,13.38-3.31,20.6,1.56,51,34.4,106.82,44.21,166.35,29.58,110-27,177.36-140.67,149.29-250.69C397.31,61.38,281.26-5.55,170,26A206.39,206.39,0,0,0,21.78,252.57a199.79,199.79,0,0,0,33.35,86.92c3.28,4.8,3.71,8.89,1.33,14.27C46.4,376.5,36.75,399.43,26.53,423.27Z"/><path class="cls-2" d="M226,40.73c31.89.62,61.74,8.37,89.59,23.82,5,2.77,6.69,6.58,4.59,10.39s-6,4.52-11.24,1.64A170,170,0,0,0,248.63,56.5,169.65,169.65,0,0,0,85.52,130C65.77,159.38,55.43,192,56.78,227.58c2.48,64.92,32.47,114,88.86,145.67C185.28,395.53,228,399.67,272,387.43a165.52,165.52,0,0,0,74.21-43.75c25.54-25.78,41.67-56.73,47.11-92.55,7.67-50.55-5-95.94-37.54-135.52-5.25-6.39-11.48-12-17.22-18-4.35-4.56-3-11.17,2.76-12,2.27-.31,5.37,1,7.2,2.61a170,170,0,0,1,31.22,36.39c23.52,36.81,33.23,77,28.33,120.41-5.08,45-24.77,82.92-57.92,113.75C323,384.11,291,399.94,254.34,405.44c-43.56,6.55-84.67-1-122.47-24.11C89.68,355.52,61.44,318.81,49,270.92c-12.79-49.07-6.59-96.11,19.72-139.72,29.5-48.89,72.85-78.1,129.13-87.8C207.07,41.81,216.58,41.59,226,40.73Z"/><path class="cls-3" d="M251.11,271.07c6.82-6.83,13.3-13.08,19.49-19.61,3.33-3.52,6.91-4.43,11.57-3.45,15.26,3.2,30.56,6.15,45.85,9.18,6.51,1.3,7.76,2.6,8.94,9.1,1.54,8.44,2.66,17,4.84,25.27,2.44,9.26-.06,17.24-4.71,24.89-11.69,19.21-29.62,26.26-51,23.68-41.74-5-79.7-20-112.75-46.42-13.58-10.84-24.16-24.35-33.19-39.1-2.73-4.47-2.21-8.24,1.3-10.58s7.66-1.1,10.44,3.43c10.83,17.71,24.45,32.68,41.75,44.36a213.5,213.5,0,0,0,63.82,28.79c12.83,3.5,25.74,6.85,39.26,6.08,14.87-.84,27.24-10.25,31.65-24.28a9.2,9.2,0,0,0,.47-4.14c-1.45-8.31-3.14-16.58-4.58-24.9-.37-2.13-1.1-3.1-3.38-3.54-12.5-2.37-25-4.94-37.43-7.52a5.82,5.82,0,0,0-6.06,1.84c-6.05,6.3-12.33,12.37-18.47,18.59-2.7,2.73-5.67,3.65-9.32,2.06-16.47-7.18-32-15.8-45.59-27.8-14.27-12.62-24.86-27.95-33.68-44.63-1.94-3.66-3.63-7.46-5.43-11.19-2.87-6-2.58-7.67,2.22-12.49,5.76-5.78,11.47-11.62,17.36-17.27a5.84,5.84,0,0,0,2-6c-2.62-12.6-5.06-25.24-7.76-37.82a4.47,4.47,0,0,0-2.81-2.86c-8.53-1.8-17.12-3.38-25.71-4.89a8.32,8.32,0,0,0-3.73.48c-14.17,4.4-23.69,16.89-24.4,32s3.32,29.5,7.52,43.76c2.37,8.08,5.64,15.89,8.38,23.86a13.35,13.35,0,0,1,1,5.79,6.15,6.15,0,0,1-5.82,5.45c-3.83.42-6.37-1.73-7.49-5.15-4.71-14.38-9.84-28.66-13.67-43.28a117.19,117.19,0,0,1-3.58-27.55c-.4-23.85,13.66-42.26,36.32-48.66a17,17,0,0,1,7.16-.39c10.57,1.78,21.09,3.9,31.65,5.75,4.31.76,6.87,2.89,7.74,7.34,3.17,16.28,6.5,32.53,9.77,48.79a9.55,9.55,0,0,1-2.95,9.33c-6,5.78-11.75,11.75-17.67,17.57-1.46,1.43-2.11,2.52-1,4.74,10.87,22.71,25,42.79,46.41,56.76C233.85,261.69,242.52,266.14,251.11,271.07Z"/></svg>