<svg id="Laag_1" data-name="Laag 1" xmlns="http://www.w3.org/2000/svg" xmlns:xlink="http://www.w3.org/1999/xlink" viewBox="0 0 452.22 448.22"><defs><style>.cls-1{fill:url(#Naamloos_verloop_204);}</style><linearGradient id="Naamloos_verloop_204" x1="345.1" y1="25.29" x2="107.16" y2="437.41" gradientUnits="userSpaceOnUse"><stop offset="0" stop-color="#e55"/><stop offset="0.02" stop-color="#e24e64"/><stop offset="0.07" stop-color="#c53b88"/><stop offset="0.13" stop-color="#ab2ba8"/><stop offset="0.19" stop-color="#961ec4"/><stop offset="0.26" stop-color="#8413da"/><stop offset="0.35" stop-color="#760aeb"/><stop offset="0.45" stop-color="#6d04f6"/><stop offset="0.6" stop-color="#6701fd"/><stop offset="1" stop-color="#60f"/></linearGradient></defs><path class="cls-1" d="M2.22,100.09a8,8,0,0,0,.72-1.54C7,82.19,19.06,72.1,35.69,71.67c10.34-.26,20.69-.11,31,0,4.78,0,7.73,2.6,7.79,6.45s-3,6.58-8,6.61c-9.47.07-19,0-28.42,0-14.53.09-22.68,8.31-22.7,22.85,0,6.71.18,13.42-.08,20.11-.13,3.31.9,5.15,3.77,6.94Q74.74,169.19,130.26,204c22.85,14.27,45.76,28.45,68.53,42.85,18.26,11.54,36.31,11.52,54.58.06q53.29-33.43,106.7-66.69a37.59,37.59,0,0,1,4.13-2.44c3.41-1.58,6.38-.77,8.37,2.34s1.3,6.16-1.5,8.57a26.2,26.2,0,0,1-3.26,2.2L313,225.15c-1.33.83-2.61,1.73-4.33,2.86L436.52,341.65V148.21c-1.55.88-2.92,1.6-4.23,2.42l-35.58,22.19c-5.33,3.31-9.06,3.05-11.39-.78-2.23-3.66-.84-7,4.28-10.24,14.56-9.12,29.09-18.3,43.75-27.26,2.73-1.66,3.69-3.45,3.59-6.6-.25-7.43,0-14.87-.1-22.3-.14-11.52-7.95-19.85-19.4-20.77-2-.17-4.08-.14-6.12-.14H100.88a44.75,44.75,0,0,1-5.68-.17c-3.51-.46-5.52-2.56-5.63-6.12-.12-3.78,1.89-6,5.57-6.64a23.25,23.25,0,0,1,3.92-.18q157.41,0,314.83,0c22.06,0,36.1,14,36.1,36q0,123.76,0,247.53c0,21.46-14.11,35.72-35.48,35.79-20.7.07-41.39,0-62.09,0a18.49,18.49,0,0,1-4.34-.34,6.41,6.41,0,0,1,.22-12.49,24.62,24.62,0,0,1,4.79-.26c20.55,0,41.1,0,61.65,0,10.82,0,18.67-5.65,21.3-14.76.67-2.32.49-3.92-1.51-5.7q-67.59-59.88-135-119.95c-2-1.78-3.36-1.91-5.61-.46-11.16,7.14-22.44,14.1-33.68,21.11q-34.14,21.32-68.26,0l-36.12-22.57c-12.85,11.42-25.59,22.71-38.32,34Q68.2,313.38,18.79,357.16c-3,2.67-3.35,4.92-1.78,8.22,3.34,7,8.63,11.24,16.37,12.19a58,58,0,0,0,7,.29H316.71a51,51,0,0,1,5.67.16,6,6,0,0,1,5.73,6.1c.14,3.63-1.89,6.06-5.6,6.66a29.52,29.52,0,0,1-4.8.19H39.18C19.43,391,8,382.25,2.72,363.2c-.07-.26-.33-.47-.5-.7Zm142,128.13L15.76,148V342.4Z"/></svg>