<svg id="Laag_1" data-name="Laag 1" xmlns="http://www.w3.org/2000/svg" viewBox="0 0 494.34 386.5"><defs><style>.cls-1{fill:#e55;}</style></defs><path class="cls-1" d="M495.56.46C392.14,71.31,319.74,166.45,261.44,274c-13.59,25.06-28.65,49.42-44.41,73.18-18.12,27.3-44,41.32-77.49,39.66-18.09-.9-25.22-5.81-31.16-22.85C91.86,316.58,64.92,277.08,22,249.61a106.3,106.3,0,0,1-10.09-7.5c-11.33-9.31-13.73-22-6.66-34.53,14.22-25.23,58.52-44,85.66-33.9,11.08,4.13,22,13,29.11,22.59,14.53,19.81,26.45,41.54,39.3,62.57,2.13,3.5,3.53,7.44,6,12.76,78.42-112.87,173.91-204.3,299.41-261C474.51,6.15,485.25,3.79,495.56.46Z" transform="translate(-1.22 -0.46)"/></svg>