<?xml version="1.0" standalone="no"?>
<!DOCTYPE svg PUBLIC "-//W3C//DTD SVG 20010904//EN"
 "http://www.w3.org/TR/2001/REC-SVG-20010904/DTD/svg10.dtd">
<svg version="1.0" xmlns="http://www.w3.org/2000/svg"
 width="1266.000000pt" height="1266.000000pt" viewBox="0 0 1266.000000 1266.000000"
 preserveAspectRatio="xMidYMid meet">
<metadata>
Created by potrace 1.14, written by Peter Selinger 2001-2017
</metadata>
<g transform="translate(0.000000,1266.000000) scale(0.100000,-0.100000)"
fill="#000000" stroke="none">
<path d="M6015 10634 c-262 -58 -468 -297 -609 -704 l-43 -124 -144 -28 c-163
-32 -163 -32 -279 -59 -162 -38 -301 -81 -408 -126 -59 -25 -111 -49 -117 -53
-5 -4 -37 -22 -70 -40 -84 -45 -229 -136 -300 -188 -33 -24 -71 -51 -84 -60
-13 -9 -38 -28 -55 -42 -17 -14 -58 -46 -91 -70 -66 -49 -361 -341 -440 -434
-290 -342 -505 -757 -609 -1172 -73 -295 -90 -447 -91 -819 0 -458 45 -863
146 -1308 47 -210 143 -543 169 -589 6 -10 10 -22 10 -28 0 -15 60 -166 123
-312 77 -175 209 -423 219 -412 3 3 5 -1 5 -8 -4 -30 190 -309 318 -458 95
-110 294 -305 395 -385 90 -72 290 -208 290 -198 0 4 4 3 8 -4 14 -22 322
-184 452 -238 444 -182 969 -265 1509 -236 205 11 455 35 524 51 45 10 41 16
57 -105 27 -215 91 -356 194 -427 25 -18 23 -14 -11 20 -83 82 -130 219 -140
412 l-6 115 109 18 c260 41 642 140 994 256 286 95 416 155 688 316 85 50 271
186 342 249 147 130 318 310 400 421 50 68 150 214 150 219 0 2 17 33 39 68
91 149 242 512 264 633 2 11 7 27 10 35 13 31 56 239 71 340 31 217 39 359 33
608 -12 528 -99 1022 -267 1522 -26 80 -56 163 -66 185 -10 22 -18 45 -20 50
-3 17 -79 184 -122 272 -37 75 -93 178 -159 293 -75 131 -261 384 -355 484
-30 31 -51 56 -48 56 10 0 -218 215 -328 309 -285 242 -485 374 -791 525 -332
164 -792 305 -1161 356 l-85 11 0 192 c0 156 -3 204 -18 257 -51 178 -148 290
-295 339 -84 29 -217 35 -307 15z m197 -279 c29 -4 56 -15 73 -31 38 -36 72
-118 84 -207 11 -82 15 -226 6 -249 -4 -10 -53 -12 -248 -10 -134 1 -290 -1
-348 -6 -57 -5 -106 -7 -108 -5 -2 1 15 47 37 101 79 183 194 332 295 381 47
23 121 41 147 36 8 -2 36 -6 62 -10z m2988 -6771 c0 -8 -19 -13 -24 -6 -3 5 1
9 9 9 8 0 15 -2 15 -3z"/>
</g>
</svg>
