<svg id="Laag_1" data-name="Laag 1" xmlns="http://www.w3.org/2000/svg" viewBox="0 0 502.9 500"><defs><style>.cls-1{fill:#ecb000;}</style></defs><path class="cls-1" d="M143.37,17.81A109.37,109.37,0,0,0,122.66,26C90.66,42.73,3.15,99.1,3.15,215.92c0,0-6.2,192.58,124.8,261.48,3.6,1.89,7,3.77,10.7,5.54,17.91,8.63,89.74,44.05,229.17-1.79,1.13-.37,2.29-.74,3.43-1.07,13-3.75,130.15-41.38,134.65-183.15,0,0,7-147.09-92.24-228.64-1.68-1.39-3.35-2.79-5-4.26C394.44,51.1,300.15-26.85,143.37,17.81Z" transform="translate(-3.11 -4.14)"/><text x="-3.11" y="-4.14"/></svg>