<?xml version="1.0" encoding="utf-8"?>
<!-- Generator: Adobe Illustrator 26.1.0, SVG Export Plug-In . SVG Version: 6.00 Build 0)  -->
<svg version="1.1" id="Laag_1" xmlns="http://www.w3.org/2000/svg" xmlns:xlink="http://www.w3.org/1999/xlink" x="0px" y="0px"
	 viewBox="0 0 658 684" style="enable-background:new 0 0 658 684;" xml:space="preserve">
<style type="text/css">
	.st0{fill:#6600FF;}
</style>
<path class="st0" d="M303.36,4.23c-9.84-0.8-19.75-0.7-29.55,0.49C226.24,10.42,91.47,39.34,37.25,183.7
	c0,0-97.1,235.05,33.63,381.33c3.63,4,7.04,7.91,10.71,11.79c18.28,18.98,91.02,96.34,285.52,104.73c1.56,0.06,3.23,0.16,4.75,0.33
	c17.89,1.45,180.88,9.6,252.21-163.5c0,0,76.92-178.51-8.49-325.54c-1.43-2.51-2.85-5.02-4.24-7.65
	C599.69,162.53,518.75,22.18,303.36,4.23z"/>
</svg>
