<?xml version="1.0" encoding="utf-8"?>
<!-- Generator: Adobe Illustrator 26.1.0, SVG Export Plug-In . SVG Version: 6.00 Build 0)  -->
<svg version="1.1" id="Laag_1" xmlns="http://www.w3.org/2000/svg" xmlns:xlink="http://www.w3.org/1999/xlink" x="0px" y="0px"
	 viewBox="0 0 500 477" style="enable-background:new 0 0 500 477;" xml:space="preserve">
<style type="text/css">
	.st0{fill:#EE5555;}
</style>
<path class="st0" d="M495.31,235.1c1.2,7.01,1.75,14.14,1.52,21.25c-1.09,34.52-13.34,133.12-113.57,181.18
	c0,0-162.64,84.58-275.94-0.05c-3.1-2.36-6.12-4.55-9.15-6.95c-14.79-11.93-74.93-59.27-93.25-198.4c-0.14-1.12-0.32-2.31-0.54-3.39
	C2.21,215.99-13.94,99.48,105.84,37.32c0,0,123.32-66.51,234.29-14.47c1.89,0.87,3.79,1.73,5.76,2.56
	C362.91,32.32,468.81,81.57,495.31,235.1z"/>
</svg>
