<?xml version="1.0" encoding="utf-8"?>
<!-- Generator: Adobe Illustrator 26.1.0, SVG Export Plug-In . SVG Version: 6.00 Build 0)  -->
<svg version="1.1" id="Laag_1" xmlns="http://www.w3.org/2000/svg" xmlns:xlink="http://www.w3.org/1999/xlink" x="0px" y="0px"
	 viewBox="0 0 494.3 386.5" style="enable-background:new 0 0 494.3 386.5;" xml:space="preserve">
<style type="text/css">
	.st0{fill:#6600FF;}
</style>
<path class="st0" d="M494.3,0C390.9,70.8,318.5,166,260.2,273.5c-13.6,25.1-28.6,49.4-44.4,73.2c-18.1,27.3-44,41.3-77.5,39.7
	c-18.1-0.9-25.2-5.8-31.2-22.9c-16.5-47.4-43.5-86.9-86.4-114.4c-3.5-2.3-6.9-4.8-10.1-7.5c-11.3-9.3-13.7-22-6.7-34.5
	c14.2-25.2,58.5-44,85.7-33.9c11.1,4.1,22,13,29.1,22.6c14.5,19.8,26.4,41.5,39.3,62.6c2.1,3.5,3.5,7.4,6,12.8
	C242.5,158.3,338,66.8,463.5,10.1C473.3,5.7,484,3.3,494.3,0z"/>
</svg>
