<?xml version="1.0" encoding="utf-8"?>
<!-- Generator: Adobe Illustrator 26.0.3, SVG Export Plug-In . SVG Version: 6.00 Build 0)  -->
<svg version="1.1" id="Laag_1" xmlns="http://www.w3.org/2000/svg" xmlns:xlink="http://www.w3.org/1999/xlink" x="0px" y="0px"
	 viewBox="0 0 391 388" style="enable-background:new 0 0 391 388;" xml:space="preserve">
<path d="M118.75,292.35c7.35,5.45,15.63,9.07,24.24,10.73l-72.85,72.85c-15.5,15.5-40.72,15.5-56.22,0s-15.5-40.72,0-56.22
	l79.95-79.95c15.5-15.5,40.72-15.5,56.22,0c8.66,8.66,12.47,20.36,11.45,31.7c-8.41,2.16-17.61,0.43-24.7-5.24
	c-0.36-3.28-1.73-6.46-4.24-8.97c-5.86-5.86-15.37-5.86-21.24,0l-79.95,79.95c-5.86,5.86-5.86,15.37,0,21.24
	c5.86,5.86,15.37,5.86,21.24,0L118.75,292.35z M198.52,128.58l3.78,7.77l14.76-14.76c12.42-12.42,32.55-12.42,44.97,0l7.5,7.5
	c0.79,0.79,1.53,1.62,2.22,2.47c2.16-0.41,4.23-1.42,5.9-3.09l12.93-12.93c-1.12-1.35-2.29-2.67-3.56-3.94l-7.5-7.5
	c-22.04-22.04-57.91-22.04-79.95,0l-8.71,8.71l-2.1,11.16L198.52,128.58z M124.48,214.17l15.76-15.76l-5.31-3.78l-5.99-9.05
	l-8.92-1.93l-13.03,13.03c-11.39,11.39-16.85,26.48-16.46,41.45l0.85-0.85c7.28-7.28,16.53-11.4,26.05-12.4
	C118.98,220.98,121.33,217.32,124.48,214.17z M202.14,251.63l-8.84-1.34l-16.35,16.35c-12.42,12.42-32.55,12.42-44.97,0l-7.5-7.5
	c-0.87-0.87-1.66-1.79-2.41-2.72c-2.97-0.02-5.95,1.09-8.21,3.35l-11.52,11.52c1.44,1.85,2.95,3.65,4.65,5.34l7.5,7.5
	c22.04,22.04,57.91,22.04,79.95,0l16.35-16.35l-6.74-1.74L202.14,251.63z M269.52,174.06l-14.76,14.76l10.76,8.6l0.26,7.4l6.47,1.49
	l14.76-14.76c12-12,17.41-28.1,16.35-43.83l-3.23,3.23c-6.61,6.61-14.84,10.6-23.42,12.02C275.16,167.01,272.78,170.8,269.52,174.06
	z M338.86,29.77c5.86-5.86,15.37-5.86,21.24,0c5.86,5.86,5.86,15.37,0,21.24l-79.95,79.95c-5.86,5.86-15.37,5.86-21.24,0
	c-2.99-2.99-4.43-6.91-4.38-10.82c-7.43-4.65-16.54-5.51-24.6-2.6c-0.78,11.09,3.03,22.45,11.49,30.92c15.5,15.5,40.72,15.5,56.22,0
	l79.95-79.95c15.5-15.5,15.5-40.72,0-56.22c-15.5-15.5-40.72-15.5-56.22,0l-72.54,72.54c8.82,1.37,17.38,4.69,24.99,9.99
	L338.86,29.77z M136.73,173.49l-26.67-20.93l4,13.84l-13.33,8.63L136.73,173.49z M139,127.66l-0.18-12.6l-14.79,9.68l20.73,13.28
	L139,127.66z M170.66,126.97l3.12-24.44l-17.5,2.56l9.95,7.61L170.66,126.97z M217.42,289.21l11.88-8.63l14.79-1.8l-21.75-23.89
	L217.42,289.21z M253.52,245.49l11.67,19.87l-2.43,7.64l17.24-11.69L253.52,245.49z M287.62,244.85l8.34-24.59l-38.22,4.19
	l24.71,6.78L287.62,244.85z"/>
</svg>
