<?xml version="1.0" encoding="utf-8"?>
<!-- Generator: Adobe Illustrator 26.0.3, SVG Export Plug-In . SVG Version: 6.00 Build 0)  -->
<svg version="1.1" id="Laag_1" xmlns="http://www.w3.org/2000/svg" xmlns:xlink="http://www.w3.org/1999/xlink" x="0px" y="0px"
	 viewBox="0 0 382 426" style="enable-background:new 0 0 382 426;" xml:space="preserve">
<style type="text/css">
	.st0{fill:#EE5555;}
</style>
<g>
	<path class="st0" d="M164.92,415.99c-7.2-2.12-13.46-5.61-16.88-12.64c-1.48-3.05-2.31-6.42-3.52-9.9
		c-12.63-1.84-20.18-9.26-22.05-22.48c-8.01-1-14.8-4.3-18.82-11.53c-1.88-3.38-1.86-8.2-4.35-10.73
		c-2.39-2.43-7.25-2.19-10.46-4.08c-12.62-7.46-15.16-24.65-5.51-35.7c1.82-2.09,3.69-4.22,5.87-5.89c2.63-2.01,3.19-4.06,1.85-7.07
		c-1.23-2.76-2.02-5.72-2.98-8.6c-5.51-16.59-6.62-18.23-20.82-30.35c-3.27,3.35-6.53,6.78-9.9,10.1c-4.65,4.59-8.74,4.6-13.36,0.01
		c-10.6-10.53-21.18-21.08-31.71-31.67c-4.6-4.63-4.6-8.73,0.03-13.36c25.5-25.54,51.03-51.06,76.56-76.57
		c4.79-4.79,8.88-4.8,13.68-0.02c17.04,16.99,34.01,34.05,51.1,50.99c1.5,1.49,3.58,2.75,5.61,3.3c10.71,2.86,21.5,5.41,32.24,8.18
		c2.31,0.6,3.93,0.23,5.55-1.59c4.82-5.4,10.16-10.23,17.73-11.09c3.61-0.41,7.45-0.48,10.94,0.34c2.97,0.7,4.55-0.11,6.48-2.04
		c15.76-15.84,31.61-31.59,47.43-47.37c5.77-5.76,9.34-5.79,15.08-0.04c24.97,24.95,49.93,49.91,74.88,74.88
		c5.93,5.94,5.93,9.47,0.05,15.36c-10.09,10.1-20.18,20.21-30.29,30.29c-5.15,5.13-9.07,5.14-14.21-0.03
		c-3.16-3.18-6.19-6.48-9.52-9.98c-5.75,5.75-11.07,11.04-16.33,16.39c-0.49,0.5-0.93,1.42-0.85,2.07
		c1.12,9.42-1.26,18.05-6.34,26.73c3.74,3.54,7.57,6.99,11.19,10.63c8.55,8.61,10.12,20.35,4.15,30.07
		c-5.88,9.56-16.85,13.53-28.3,9.86c-2.45-0.78-3.37,0.44-4.64,1.7c-15.71,15.7-31.41,31.41-47.12,47.12
		c-11.31,11.31-23.06,12.13-36.07,2.21c-5.08,5.62-10.68,10.75-18.47,12.5C170.21,415.99,167.56,415.99,164.92,415.99z
		 M219.56,251.17c-5.72,5.79-11.03,11.28-16.47,16.64c-6.43,6.34-14.2,8.64-22.93,6.46c-17.74-4.43-24.11-25.92-11.65-39.29
		c4.02-4.32,8.6-8.12,13.49-12.69c-2.19-0.75-3.13-1.15-4.1-1.39c-8.44-2.13-16.95-4.03-25.3-6.45c-2.89-0.84-5.81-2.5-8.03-4.53
		c-5.13-4.7-9.85-9.87-14.19-14.29c-17.16,17.15-33.92,33.91-50.96,50.95c4.62,4.53,9.74,9.3,14.55,14.39
		c1.83,1.94,3.36,4.43,4.28,6.94c2.85,7.8,5.41,15.72,7.94,23.63c0.75,2.35,1.65,3.71,4.49,3.94c5.17,0.41,9.51,2.94,13.19,6.59
		c4.33,4.28,6.3,9.65,7.05,15.54c0.66,0.18,1.16,0.34,1.67,0.44c11.9,2.2,17.89,8.13,20.58,19.99c0.23,1.03,1.93,2.22,3.12,2.45
		c9.83,1.92,17.19,9.1,19.06,18.86c0.22,1.13,0.52,2.23,0.76,3.23c13.96,2.32,20.76,9.63,22.2,23.55c0.61,5.9,9.55,10.26,14.43,6.82
		c2.51-1.77,4.54-4.21,7.09-6.63c-5.9-5.79-11.46-11.07-16.81-16.55c-3.39-3.47-3.29-8.21-0.11-11.34
		c3.13-3.09,7.82-3.01,11.39,0.22c0.98,0.89,1.88,1.86,2.82,2.79c4.55,4.55,9.1,9.1,13.1,13.1c4.1-3.81,7.82-7.28,11.96-11.13
		c-1.68-1.48-3.33-2.81-4.84-4.29c-4.05-3.99-8.13-7.95-12.03-12.08c-3.34-3.54-3.26-8.24-0.11-11.36c3.14-3.1,7.79-3.03,11.39,0.21
		c1.18,1.06,2.27,2.22,3.38,3.35c4.43,4.46,8.85,8.93,12.58,12.7c4.06-3.89,7.74-7.41,11.9-11.39c-1.08-0.88-2.41-1.78-3.53-2.88
		c-4.34-4.26-8.68-8.53-12.88-12.91c-2.75-2.87-3.19-6.83-1.3-9.83c1.99-3.16,5-4.5,8.5-3.53c1.91,0.53,3.75,1.93,5.21,3.35
		c6.92,6.73,13.64,13.65,20.54,20.4c3.81,3.73,8.26,3.86,11.63,0.58c3.41-3.31,3.2-8-0.53-11.93c-0.55-0.58-1.12-1.12-1.68-1.68
		c-12.99-12.99-25.99-25.98-38.97-38.98C240.97,272.66,230.53,262.17,219.56,251.17z M252.53,194.94
		c-4.91,5.15-9.94,10.56-15.14,15.81c-3.91,3.95-6.9,4.29-11.76,1.78c-5.9-3.05-9.67-2.58-14.29,2.01
		c-10.03,9.97-20.02,19.97-30,29.99c-4.34,4.36-4.68,9-1.02,12.51c3.4,3.26,8.16,2.81,12.25-1.24c6.29-6.23,12.53-12.51,18.79-18.77
		c6.63-6.62,9.17-6.67,16.21-0.29c8.72,7.89,20.74,7.78,29.38-0.27c1.16-1.08,2.27-2.24,3.59-3.1c3.1-2.03,6.79-1.62,9.49,0.86
		c2.77,2.55,3.46,6.51,1.51,9.74c-0.81,1.33-1.96,2.48-3.07,3.6c-5.31,5.35-11.84,8.54-18.34,10.08
		c10.21,10.34,20.44,20.7,30.64,31.03c-0.03,0.04,0.16-0.14,0.28-0.37c0.18-0.35,0.34-0.71,0.46-1.09
		c2.92-9.26,0.93-17.4-5.49-24.62c-3.42-3.84-3.28-8.53,0.14-11.62c3.43-3.11,8.02-2.75,11.61,1.01c1.59,1.66,3.03,3.48,3.96,4.55
		c4.09-3.78,8.01-7.41,11.61-10.74C286.58,229.02,269.88,212.3,252.53,194.94z M265.84,183.54c22.15,22.16,44.54,44.56,66.48,66.51
		c7.02-7.01,14.37-14.34,21.3-21.24c-22.13-22.09-44.53-44.45-66.58-66.47C280.01,169.38,272.65,176.74,265.84,183.54z
		 M95.86,162.19c-22.21,22.2-44.6,44.58-66.66,66.63c7.06,7.07,14.4,14.42,21.44,21.47c22.13-22.14,44.51-44.53,66.64-66.66
		C110.16,176.52,102.81,169.15,95.86,162.19z M152.71,355.22c-0.22,0.25-0.44,0.49-0.67,0.74c-0.9,0.19-2.09,0.07-2.66,0.6
		c-3.6,3.38-7.6,6.52-10.37,10.5c-1.96,2.81-0.61,6.48,2.31,8.78c3.02,2.39,6.48,2.62,9.49,0.25c2.77-2.18,5.26-4.8,7.54-7.51
		c2.02-2.4,2.47-5.59,0.62-8.1C157.41,358.35,154.84,356.95,152.71,355.22z M173.97,378.68c-0.39,0.09-1.71,0.01-2.37,0.62
		c-3.43,3.2-7.13,6.25-9.87,9.99c-2.05,2.8-0.76,6.19,1.8,8.56c2.7,2.5,6.17,3.21,9.1,1.07c3.25-2.38,6.38-5.28,8.63-8.59
		C184.59,385.45,180.57,378.84,173.97,378.68z M105.91,311.08c-0.7,0.29-2.51,0.61-3.73,1.64c-2.51,2.1-4.88,4.44-7,6.94
		c-2.56,3-2.31,7.34,0.23,10.13c2.56,2.82,6.98,3.72,10.04,1.34c3.08-2.4,6.11-5.16,8.28-8.36
		C117.17,317.69,113.07,311.04,105.91,311.08z M138.2,340.62c-1.79-2.13-3.23-4.64-5.36-6.18c-2.56-1.84-5.66-1.28-8.08,0.74
		c-2.32,1.93-4.47,4.11-6.5,6.34c-3.18,3.5-3.14,7.9-0.1,11.02c2.99,3.06,7.64,3.28,11.07,0.31c2.18-1.89,4.31-3.92,6.11-6.18
		C136.49,345.21,137,343.24,138.2,340.62z"/>
	<path class="st0" d="M254.54,113.4c-0.01,35.13-28.74,63.78-63.89,63.71c-34.92-0.07-63.53-28.68-63.61-63.63
		c-0.08-35.1,28.65-63.93,63.71-63.92C225.89,49.58,254.55,78.26,254.54,113.4z M238.63,113.28c-0.01-26.13-21.51-47.68-47.67-47.79
		c-26.27-0.11-48.02,21.61-47.98,47.89c0.04,26.16,21.55,47.72,47.68,47.79C216.95,161.25,238.65,139.58,238.63,113.28z"/>
	<path class="st0" d="M262.83,9.88c5.21,0,10.08,0,15.26,0c0,5.14,0,10.2,0,15.54c-5,0-10.06,0-15.26,0
		C262.83,20.22,262.83,15.06,262.83,9.88z"/>
	<path class="st0" d="M238.86,33.83c5.21,0,10.16,0,15.41,0c0,5.12,0,10.17,0,15.48c-5.09,0-10.14,0-15.41,0
		C238.86,44.21,238.86,39.25,238.86,33.83z"/>
	<path class="st0" d="M301.94,49.4c-5.17,0-10.13,0-15.34,0c0-5.21,0-10.26,0-15.53c5.11,0,10.06,0,15.34,0
		C301.94,38.9,301.94,43.94,301.94,49.4z"/>
	<path class="st0" d="M262.71,57.71c5.22,0,10.17,0,15.41,0c0,5.16,0,10.2,0,15.5c-5.11,0-10.15,0-15.41,0
		C262.71,68.08,262.71,63.12,262.71,57.71z"/>
	<path class="st0" d="M190.76,135.91c-7.85-0.25-14.75-2.79-20.55-8.1c-3.71-3.4-4.17-8.21-1.18-11.6
		c2.92-3.32,7.49-3.56,11.36-0.62c7.75,5.91,13,5.88,20.99-0.12c3.82-2.87,8.5-2.51,11.33,0.88c2.75,3.29,2.47,7.81-0.87,11.04
		C205.97,133.06,198.82,135.68,190.76,135.91z"/>
	<path class="st0" d="M198.93,93.34c0-1.58-0.13-3.18,0.03-4.74c0.39-3.93,3.4-6.79,7.28-7.08c3.66-0.27,7.4,1.96,7.92,5.71
		c0.57,4.1,0.59,8.42-0.05,12.5c-0.61,3.92-4.4,5.93-8.42,5.45c-3.71-0.45-6.41-3.22-6.75-7.1c-0.14-1.57-0.02-3.16-0.02-4.74
		C198.92,93.34,198.92,93.34,198.93,93.34z"/>
	<path class="st0" d="M182.99,94.15c-0.12,1.37-0.1,3.24-0.48,5.02c-0.83,3.91-4.11,6.28-8.07,6.08c-3.76-0.19-6.84-2.75-7.24-6.57
		c-0.34-3.26-0.34-6.59-0.1-9.86c0.3-4.23,3.44-7.12,7.45-7.31c4.09-0.2,7.51,2.68,8.15,7.03
		C182.94,90.23,182.88,91.96,182.99,94.15z"/>
</g>
</svg>
