<svg id="Laag_1" data-name="Laag 1" xmlns="http://www.w3.org/2000/svg" xmlns:xlink="http://www.w3.org/1999/xlink" viewBox="0 0 452.22 448.22"><defs><style>.cls-1{fill:url(#Naamloos_verloop_204);}.cls-2{fill:url(#Naamloos_verloop_204-2);}.cls-3{fill:url(#Naamloos_verloop_204-3);}.cls-4{fill:url(#Naamloos_verloop_204-4);}.cls-5{fill:url(#Naamloos_verloop_204-5);}</style><linearGradient id="Naamloos_verloop_204" x1="193.2" y1="433.56" x2="193.2" y2="52.25" gradientUnits="userSpaceOnUse"><stop offset="0" stop-color="#e55"/><stop offset="0.02" stop-color="#e24e64"/><stop offset="0.07" stop-color="#c53b88"/><stop offset="0.13" stop-color="#ab2ba8"/><stop offset="0.19" stop-color="#961ec4"/><stop offset="0.26" stop-color="#8413da"/><stop offset="0.35" stop-color="#760aeb"/><stop offset="0.45" stop-color="#6d04f6"/><stop offset="0.6" stop-color="#6701fd"/><stop offset="1" stop-color="#60f"/></linearGradient><linearGradient id="Naamloos_verloop_204-2" x1="307.28" y1="288.88" x2="307.28" y2="18.48" xlink:href="#Naamloos_verloop_204"/><linearGradient id="Naamloos_verloop_204-3" x1="240.55" y1="162.98" x2="240.55" y2="117.18" xlink:href="#Naamloos_verloop_204"/><linearGradient id="Naamloos_verloop_204-4" x1="374.04" y1="162.98" x2="374.04" y2="117.18" xlink:href="#Naamloos_verloop_204"/><linearGradient id="Naamloos_verloop_204-5" x1="307.36" y1="162.97" x2="307.36" y2="117.19" xlink:href="#Naamloos_verloop_204"/></defs><path class="cls-1" d="M3,140.54c1.12-5.37,2.05-10.78,3.37-16.09a100.29,100.29,0,0,1,29-49.27Q42.94,68,50.71,61c15.92-14.43,39.15-10.51,49,8.65,13.3,26,26.26,52.12,39.15,78.29,5.79,11.75,3.61,24.65-5.38,34.35-6.91,7.46-14,14.78-21,22.18-8,8.49-8.8,15.14-3.06,25.14,22.46,39.18,53.64,70.29,89.83,96.7,15.86,11.58,20,11.29,34.73-1.75q11-9.67,21.94-19.29c11.13-9.73,23.7-11.17,36.68-4.2,5.37,2.88,10.75,5.76,16.06,8.75,4.09,2.31,5.37,6,3.47,9.43s-5.66,4.17-9.86,2c-5.52-2.92-11-6-16.47-8.92-7.37-3.95-14.27-3.11-20.6,2.28-4,3.38-7.84,6.89-12.11,10.65L360,385.34c14.21-9.41,13.57-25.22-1.26-33.38-8.4-4.61-16.84-9.14-25.24-13.76-4.8-2.63-6.25-6.19-4.12-9.84,2-3.48,5.75-4.14,10.29-1.69,9.19,5,18.44,9.86,27.51,15.06,18.28,10.51,21.76,33.54,7.05,48.62-12.78,13.12-25.8,26.11-43,33.62-30.94,13.51-61.6,12.86-91.59-2.68-58.22-30.18-110.14-68.7-153.65-118-9.79-11.1-18.74-23-27.95-34.56-3.16-4-2.84-8,.39-10.35s7.08-1.47,10.06,2.59A472.06,472.06,0,0,0,134,333.15a521.27,521.27,0,0,0,114.63,78c32.55,16.34,71.56,10.79,98.92-13.27.86-.75,1.76-1.46,3-2.52-1.52-1-2.52-1.7-3.59-2.31q-50.31-28.31-100.59-56.66c-2.9-1.64-4.58-1.49-7.06.76-14.76,13.39-28,13.94-44.32,2.25-34.71-24.83-65.24-53.77-88.66-89.73-3.33-5.11-6.48-10.34-9.49-15.64-6.91-12.2-5.57-25.23,3.73-36,1.52-1.76,2.11-3,.89-5.26Q73.19,140,45,87.16c-.27-.5-.62-.94-1.26-1.9-2.12,2.24-4.23,4.16-6,6.37C14,122,9.21,154.86,25.71,189.94c6.48,13.76,14.71,26.69,21.87,40.14a11.38,11.38,0,0,1,1.12,7.67c-.46,1.64-3.5,3.66-5.25,3.54a9,9,0,0,1-6.26-3.68C30.54,226.54,24.21,215.26,18,204,10.52,190.5,5,176.37,3.57,160.89A3.79,3.79,0,0,0,3,159.73Zm109.38,44.94c4.23-4.47,8.13-8.37,11.77-12.49,5.27-6,6.2-12.74,2.69-19.82-12.9-26-25.82-52-39-77.84-5.6-11-18.66-13.21-28-5.08a38.4,38.4,0,0,1-3.21,2.93c-2.56,1.75-2.53,3.51-1.08,6.19q19.44,36,38.63,72.14C100.19,162.64,106.13,173.76,112.38,185.48Z"/><path class="cls-2" d="M331.47,249.1h-6q-63.69,0-127.36,0c-16.69,0-28.9-9.17-32.31-24.27a41.66,41.66,0,0,1-.73-9.08c-.05-54.52.28-109-.21-163.56-.17-18.93,13.74-34.41,34-33.67,9.87.36,19.77.06,29.65.07,3.56,0,6.35,1.38,7.27,5a5.86,5.86,0,0,1-3.33,7.27,12.81,12.81,0,0,1-5.08.78c-9.88.06-19.77,0-29.66,0-12.25.05-19.54,7.28-19.54,19.54q-.06,82.44,0,164.87c0,12.88,7,19.92,20,19.93q67.81,0,135.64,0c9.46,0,10.78,1.35,10.81,10.9q0,10.47.16,20.93c0,.22.28.44.64,1,1.16-.77,2.36-1.49,3.48-2.31,12.72-9.19,25.35-18.52,38.22-27.5a17.8,17.8,0,0,1,8.77-2.84c7.25-.4,14.53,0,21.8-.15,11.7-.17,18.93-7.52,18.94-19.25q0-82.67,0-165.31c0-12.42-7.35-19.76-19.82-19.77q-77.21,0-154.4,0a48,48,0,0,1-4.8-.09c-3.51-.34-5.62-2.35-5.91-5.85-.31-3.75,1.68-6.07,5.26-6.9a19.51,19.51,0,0,1,4.33-.24q77.43,0,154.84,0c20.57,0,33.59,13,33.59,33.43q0,81.78,0,163.56c0,20.62-12.87,34.41-33.39,33.22-15.22-.89-27.37,3.17-38.86,12.91-10.61,9-22.46,16.51-33.74,24.72-2.57,1.87-5.15,3.39-8.41,1.83-3.48-1.67-3.8-4.81-3.8-8.13C331.48,270,331.47,259.83,331.47,249.1Z"/><path class="cls-3" d="M263.4,140.18a22.86,22.86,0,1,1-22.51-23A23,23,0,0,1,263.4,140.18Zm-13.13.07a9.82,9.82,0,0,0-9.41-9.94,9.77,9.77,0,1,0-.36,19.53A9.81,9.81,0,0,0,250.27,140.25Z"/><path class="cls-4" d="M396.88,140.59a22.85,22.85,0,1,1-22.53-23.41A23,23,0,0,1,396.88,140.59Zm-13.13-.72a9.8,9.8,0,0,0-9.9-9.55,9.77,9.77,0,1,0,.42,19.53A9.8,9.8,0,0,0,383.75,139.87Z"/><path class="cls-5" d="M330.15,140a22.79,22.79,0,1,1-22.7-22.78A23,23,0,0,1,330.15,140Zm-23-9.67a9.77,9.77,0,0,0,.31,19.54,9.77,9.77,0,0,0-.31-19.54Z"/></svg>