<?xml version="1.0" encoding="utf-8"?>
<!-- Generator: Adobe Illustrator 26.0.3, SVG Export Plug-In . SVG Version: 6.00 Build 0)  -->
<svg version="1.1" id="Laag_1" xmlns="http://www.w3.org/2000/svg" xmlns:xlink="http://www.w3.org/1999/xlink" x="0px" y="0px"
	 viewBox="0 0 382 426" style="enable-background:new 0 0 382 426;" xml:space="preserve">
<style type="text/css">
	.st0{fill:#EE5555;stroke:#EE5555;stroke-miterlimit:10;}
</style>
<g>
	<path class="st0" d="M380.96,194.16c-0.5,17.03,1.64,33.81-3.41,50.14c-7.05,22.79-21.28,39.57-42.57,50.13
		c-4.91,2.43-2.36,6.28-3,9.54c-0.57,2.89,2.05,2.82,3.64,3.43c26.91,10.38,44.99,36.3,45.27,65.12c0.1,9.83,0.02,19.67,0.02,29.81
		c-126.4,0-252.69,0-379.06,0c-0.07-0.1-0.34-0.31-0.34-0.5c0.18-12.63-0.82-25.42,0.83-37.86c3.57-26.99,18.87-45.63,43.83-56.35
		c1.8-0.77,4.68-0.55,4.19-3.84c-0.51-3.42,1.48-7.04-3.49-9.66c-30.02-15.79-45.05-41.01-45.45-74.95
		c-0.1-8.16-0.01-16.32-0.01-24.9c6.12,0,12.03,0,18.36,0c0-1.91,0-3.4,0-4.89c0-32.32-0.04-64.64,0.07-96.96
		c0.01-2.44,0.59-5.09,1.66-7.27c8.71-17.74,17.56-35.42,26.46-53.07c4.3-8.52,13.18-12.15,21.07-8.02
		c3.27,1.71,6.43,4.84,8.14,8.11c9.37,17.98,18.31,36.18,27.28,54.37c0.8,1.62,0.98,3.67,0.99,5.52
		c0.06,32.32,0.04,64.64,0.04,96.96c0,1.52,0,3.05,0,4.96c5.58,0,11,0,16.57,0c4.56,13.66,9.02,27.02,13.48,40.38
		c0.16-0.02,0.32-0.04,0.48-0.07c0-13.19,0-26.39,0-40c6.17,0,12.08,0,18.01,0c0-8.92,0.47-17.45-0.15-25.9
		c-0.5-6.8-4.9-11.84-10.01-16.19c-13.42-11.41-21.62-25.84-25.02-43.15c-7.89-40.25,22.1-81.33,62.87-85.92
		c39.98-4.5,74.78,20.82,81.72,60.51c4.68,26.81-3.86,49.78-24.22,67.81c-7.76,6.88-11.93,14.61-11.35,25.02
		c0.31,5.71,0.06,11.46,0.06,17.61c6.14,0,12.06,0,18.24,0c0,13.66,0,26.9,0,40.14c0.22,0.04,0.44,0.09,0.66,0.13
		c1.83-5.44,3.68-10.87,5.49-16.31c2.38-7.14,4.64-14.31,7.18-21.39c0.38-1.06,1.97-2.38,3.01-2.39
		C301.74,194.15,341.02,194.16,380.96,194.16z M215.84,169.41c1.07-12.54,8.57-20.92,17.33-29.09
		c15.16-14.14,21.2-32.05,18.54-52.72c-3.31-25.75-23.02-46.55-48.97-51.8c-25.06-5.07-51.35,6.99-64.53,29.61
		c-13.04,22.37-10.48,50.97,6.44,70.33c2.93,3.35,6.3,6.32,9.57,9.34c7.14,6.59,11.1,14.8,12.35,24.3c4.03,0,7.8,0,11.89,0
		c-1.23-18.43-2.43-36.58-3.65-54.93c-2.86,0-5.27,0.03-7.68,0c-10.56-0.14-18.7-8.01-18.81-18.17
		c-0.1-10.06,7.88-18.33,17.97-18.61c10.69-0.29,18.89,7.21,19.53,17.84c0.13,2.14,0.34,4.28,0.52,6.5c3.33,0,6.35,0,9.68,0
		c0.18-2.42,0.34-4.7,0.5-6.97c0.73-10.43,9.27-17.86,19.97-17.36c9.86,0.46,17.65,8.78,17.51,18.69
		c-0.14,9.98-8.23,17.89-18.52,18.07c-2.62,0.05-5.24,0.01-7.98,0.01c-1.23,18.62-2.42,36.67-3.63,54.97
		C207.91,169.41,211.56,169.41,215.84,169.41z M148.31,206.62c0,1.3,0,2.42,0,3.53c0,18.78-0.03,37.55,0.01,56.33
		c0.03,15.26,10.49,25.68,25.77,25.73c11.35,0.03,22.7,0.03,34.04,0c15.48-0.04,25.84-10.45,25.87-26.02
		c0.03-18.65,0.01-37.3,0.01-55.94c0-1.22,0-2.43,0-3.63C205.19,206.62,176.93,206.62,148.31,206.62z M332.09,390.23
		c0-12.36,0-24.41,0-36.45c4.19,0,7.97,0,12.15,0c0,12.23,0,24.28,0,36.33c8.36,0,16.31,0,24.39,0c0-6.39,0.13-12.51-0.02-18.62
		c-0.61-23.95-16.59-45.67-39.25-53.22c-1.74-0.58-4.05-0.53-5.77,0.11c-6.19,2.32-12.27,4.97-18.35,7.57
		c-14.34,6.13-25.87,15.68-34.37,28.78c-6.96,10.74-11.08,22.47-11.98,35.5C283.29,390.23,307.34,390.23,332.09,390.23z
		 M75.04,286.13c7.59,0,14.73,0.1,21.86-0.03c8.25-0.15,14.44-6.35,14.65-14.6c0.12-4.59,0.42-9.24-0.08-13.78
		c-0.52-4.72,1.25-7.02,5.48-8.85c6.53-2.83,8.1-7.04,5.93-13.66c-2.81-8.6-5.8-17.15-8.52-25.78c-0.75-2.39-1.89-3.08-4.33-3.06
		c-14.79,0.11-29.58,0.05-44.37,0.07c-0.97,0-1.93,0.17-3.15,0.29c0,10.17,0,20.09,0,30.36c-1.77,0-3.27,0.04-4.76-0.01
		c-3.06-0.11-5.6,0.79-6.83,3.82c-1.28,3.16-0.58,5.97,1.89,8.37c2.56,2.49,5.24,4.9,7.5,7.64c1.17,1.41,2.16,3.46,2.19,5.24
		c0.18,13.79,0.07,27.59,0.15,41.38c0.01,1.18,0.49,3.07,1.3,3.43c7.51,3.4,15.13,6.53,22.91,9.83c0-6.24,0-12.16,0-18.49
		c-4.08,0-7.95,0-11.85,0C75.04,294.09,75.04,290.31,75.04,286.13z M319.57,237.09c0-10.47,0-20.48,0-30.66
		c-16.47,0-32.53-0.03-48.58,0.09c-0.88,0.01-2.25,1.12-2.56,2.01c-3.25,9.39-6.42,18.82-9.43,28.3c-1.47,4.63,0.26,8.63,4.41,11.12
		c1.31,0.78,2.65,1.59,4.07,2.09c2.51,0.88,3.46,2.37,3.31,5.13c-0.26,4.71-0.08,9.45-0.07,14.17c0.02,10.92,5.85,16.79,16.73,16.81
		c6.58,0.01,13.16,0,19.71,0c0,4.36,0,8.23,0,12.38c-4.06,0-7.85,0-11.73,0c0,6.18,0,12.08,0,18.25c7.3-3.08,14.26-6.18,21.37-8.91
		c2.38-0.91,2.95-2.14,2.94-4.47c-0.09-13.79-0.11-27.59,0.05-41.38c0.02-1.67,0.9-3.64,2.01-4.94c2.56-3,5.57-5.61,8.29-8.48
		c2.14-2.27,2.83-5.3,1.1-7.72c-1.28-1.78-3.84-2.85-6.05-3.68C323.71,236.65,321.9,237.09,319.57,237.09z M151.7,326.65
		c-11.5,4.5-20.41,11.42-27.62,20.69c-1.43,1.84-0.65,3.05,0.04,4.78c3.41,8.48,6.84,16.96,9.76,25.6c1.33,3.92,1.5,8.24,2.21,12.47
		c36.75,0,73.41,0,110.2,0c0.21-1.28,0.47-2.4,0.57-3.53c0.96-10.01,3.88-19.46,8.03-28.58c1.46-3.22,4.15-6.86,3.56-9.76
		c-0.64-3.15-4.28-5.82-6.88-8.42c-5.91-5.89-12.79-10.3-20.94-13.27c-3.84,17.22-7.58,34.01-11.53,51.73
		c-9.7-9.78-18.74-18.89-28.26-28.48c-9.28,9.31-18.4,18.47-27.78,27.88C159.25,360.61,155.52,343.85,151.7,326.65z M123.38,390.21
		c-1.02-16.37-9.78-36.48-19.34-44.45c-2.77,5.44-5.51,10.83-8.37,16.45c-12.57-7.56-24.81-14.85-36.94-22.32
		c-1.09-0.67-1.78-2.39-2.16-3.75c-1.57-5.73-2.94-11.51-4.47-17.61c-1.93,0.79-3.48,1.3-4.92,2.03
		c-31.13,15.78-35.85,43.26-33.01,69.52c7.96,0,15.9,0,24.11,0c0-12.27,0-24.22,0-36.21c4.15,0,8.01,0,12.28,0
		c0,12.31,0,24.36,0,36.36C75.04,390.21,99.1,390.21,123.38,390.21z M99.35,298.44c0,8.28-0.02,16.44,0.03,24.6
		c0,0.68,0.3,1.58,0.78,2.02c4.98,4.49,10.02,8.91,15.12,13.42c0.59-0.69,1.24-1.46,1.91-2.23c10.55-12.07,23.5-20.47,39.17-23.79
		c5.5-1.16,7.4-3.8,7.81-8.77c-0.28-0.18-0.56-0.44-0.89-0.56c-18.14-6.17-27.2-18.79-27.21-37.92c0-6.85,0-13.69,0-20
		c-2.11,3.21-3.65,7.74-6.79,9.84c-5.41,3.6-6,8.12-5.47,13.61c0.12,1.26,0.03,2.55-0.02,3.83c-0.44,11.32-7.95,21.12-18.77,24.47
		C103.22,297.51,101.36,297.92,99.35,298.44z M218.13,303.59c0.41,5.13,2.41,7.72,7.86,8.86c15.7,3.26,28.64,11.61,39.15,23.74
		c0.71,0.82,1.47,1.61,2.02,2.22c4.95-4.4,9.73-8.59,14.4-12.89c0.73-0.67,1.35-1.89,1.37-2.86c0.11-8.03,0.06-16.06,0.06-24.15
		c-0.91-0.28-1.61-0.57-2.34-0.72c-11.97-2.51-20.08-10.69-21.79-22.61c-0.63-4.39-0.24-8.92-0.5-13.37
		c-0.06-1.13-0.48-2.73-1.29-3.24c-5.29-3.33-8.66-8.01-10.56-13.97c-0.25,7.46-0.22,14.83-0.25,22.2
		c-0.09,17.16-9.87,30.64-26.12,36.06C219.44,303.09,218.76,303.36,218.13,303.59z M32.27,96.24c0,32.76,0,65.23,0,97.62
		c8.21,0,16.15,0,24.03,0c0-32.68,0-65.06,0-97.62C48.26,96.24,40.41,96.24,32.27,96.24z M92.96,193.98c0-32.76,0-65.23,0-97.62
		c-8.21,0-16.15,0-24.04,0c0,32.68,0,65.06,0,97.62C76.97,193.98,84.82,193.98,92.96,193.98z M331.96,281.93
		c30.43-16.49,39.66-46.54,36.2-75.21c-12.03,0-24.04,0-36.2,0c0,5.64,0.11,10.99-0.05,16.34c-0.07,2.12,0.75,3.05,2.54,4.04
		c10.65,5.87,13.14,19.92,5.22,29.2c-1.9,2.22-4.13,4.15-6.1,6.33c-0.71,0.79-1.5,1.88-1.53,2.85
		C331.88,270.81,331.96,276.13,331.96,281.93z M13.97,206.6c-3.86,38.02,13.41,63.69,36.41,75.03c0-2.92-0.3-5.73,0.06-8.45
		c0.85-6.33-1.37-10.85-6.07-15.28c-10.18-9.61-7.97-24.05,4.1-31.23c0.82-0.49,1.79-1.58,1.81-2.42
		c0.16-5.82,0.08-11.65,0.08-17.65C38.05,206.6,26.13,206.6,13.97,206.6z M35.89,83.63c18.08,0,35.48,0,53.23,0
		c-0.43-1.04-0.72-1.86-1.1-2.62C80.99,66.87,74,52.7,66.8,38.64c-0.8-1.57-2.86-3.5-4.28-3.46c-1.46,0.04-3.35,2.04-4.19,3.63
		c-4.1,7.77-7.92,15.69-11.84,23.56C43.04,69.3,39.58,76.23,35.89,83.63z M191.32,332.66c4.11-4.2,7.57-8.56,11.84-11.89
		c5.15-4.02,5.69-8.17,2.93-13.69c-0.95-1.9-1.72-2.71-3.85-2.65c-5.6,0.14-11.2,0.05-16.8,0.05c-9.02,0-9.06-0.01-11.1,8.81
		c-0.21,0.91,0.04,2.34,0.64,2.97C180.21,321.64,185.56,326.91,191.32,332.66z M166.87,181.9c0,4.34,0,8.12,0,12.05
		c16.28,0,32.37,0,48.52,0c0-4.09,0-7.95,0-12.05c-15.39,0-30.53,0-45.66,0C168.86,181.9,168,181.9,166.87,181.9z M90.67,344.89
		c1.51-3,2.81-5.58,4.08-8.1c-5.76-5.52-20.02-12.98-29.83-15.38c1.62,3.93,2.09,8.54,4.6,10.45
		C75.94,336.75,83.26,340.45,90.67,344.89z M187.12,114.63c1.2,18.13,2.39,36.05,3.58,53.97c0.31,0,0.62,0,0.92,0
		c1.19-17.93,2.37-35.85,3.57-53.97C192.32,114.63,189.96,114.63,187.12,114.63z M169.81,351.7c3.58-3.54,7.45-7.38,10.57-10.47
		c-5.08-5.07-11.01-10.98-16.53-16.49C165.77,333.45,167.89,343,169.81,351.7z M218.69,323.85c-6.16,6.1-12.12,12.01-17.46,17.3
		c3.49,3.57,7.24,7.41,11.09,11.35C214.41,343.13,216.54,333.53,218.69,323.85z M173.95,102.16c-0.18-2.68-0.15-4.99-0.53-7.22
		c-0.57-3.34-3.54-5.32-7.05-5c-3.28,0.3-5.73,2.84-5.78,6.01c-0.06,3.32,2.39,5.94,5.97,6.18
		C168.83,102.28,171.11,102.16,173.95,102.16z M208.41,102.17c2.54,0,4.8,0.09,7.06-0.02c3.66-0.18,6.15-2.6,6.27-5.91
		c0.11-3.3-2.44-6.03-5.87-6.3c-3.68-0.29-6.56,1.87-7.04,5.46C208.55,97.52,208.55,99.67,208.41,102.17z"/>
	<path class="st0" d="M319.71,132.68c-4.28,0-8.05,0-12.23,0c0-8.79-0.08-17.43,0.11-26.07c0.02-1.08,1.34-2.32,2.34-3.14
		c6.31-5.17,12.73-10.2,19.05-15.36c8.28-6.75,11.12-16.53,7.68-26.03c-3.37-9.31-11.74-15-22.16-15.08
		c-15.47-0.12-23.65,7.56-25.69,24.32c-3.85,0-7.73,0-11.59,0c-1.57-13.06,6.9-27.43,20.04-33.26c19.37-8.6,45.28-1.54,51.79,22.93
		c3.55,13.34-0.03,25.09-10.04,34.5c-5.37,5.05-11.48,9.32-17.07,14.14c-1.15,0.99-2.06,2.87-2.12,4.38
		C319.57,120.11,319.71,126.22,319.71,132.68z"/>
	<path class="st0" d="M313.49,181.89c-10.14-0.05-18.39-8.48-18.25-18.67c0.13-9.99,8.44-18.14,18.45-18.09
		c10.14,0.04,18.39,8.48,18.26,18.67C331.81,173.77,323.49,181.93,313.49,181.89z M319.68,163.59c0.05-3.31-2.69-6.14-6-6.19
		c-3.31-0.05-6.12,2.69-6.18,6.01c-0.05,3.31,2.69,6.14,6,6.19C316.8,169.66,319.63,166.9,319.68,163.59z"/>
	<path class="st0" d="M203.8,249.46c3.76,0,7.56,0,11.34,0c1.2,8.85-7.05,17.89-16.91,18.2c-8.26,0.26-16.53,0.05-25.11,0.05
		c0-3.94,0-7.81,0-12.24c7.19,0,14.52,0.01,21.84,0C200.54,255.47,201.62,254.74,203.8,249.46z"/>
</g>
</svg>
