<svg id="Laag_1" data-name="Laag 1" xmlns="http://www.w3.org/2000/svg" viewBox="0 0 185.74 414.7"><defs><style>.cls-1{fill:#e55;}</style></defs><path id="path4887" class="cls-1" d="M141,275.65c.14.05.07,1.82-2.28,7.76a68.2,68.2,0,0,1-8.34,15.29,45.81,45.81,0,0,1-3,3.62,35.79,35.79,0,0,1-3.55,3.36,24.86,24.86,0,0,1-8.37,4.64,20.6,20.6,0,0,1-10.29.47,30.43,30.43,0,0,1-11.61-5.39,27.23,27.23,0,0,1-6-6.3,56.68,56.68,0,0,1-5.11-9,141.84,141.84,0,0,1-8.27-24.52c-2.35-9.25-4.39-19.67-6.17-30.88-1.73-10.89-3.18-22.43-4.39-34.19-2.36-22.88-3.76-46.16-4.45-65.84-.33-9.6-.49-18.25-.52-25.39,0-3.54,0-6.73.07-9.47s.14-5.06.26-6.91c.43-6.93,1.22-16.34,2.72-26.44a185.12,185.12,0,0,1,7.07-31.1,92.1,92.1,0,0,1,6-14.28A51,51,0,0,1,83.3,9.21,31,31,0,0,1,95.37,1.45,28.87,28.87,0,0,1,110.59.66a20.09,20.09,0,0,1,8.26,3.68A20.88,20.88,0,0,1,124.48,11a27.41,27.41,0,0,1,2,4.71,30.12,30.12,0,0,1,.91,3.45,48.22,48.22,0,0,1,1,9.12,98.76,98.76,0,0,1-2.22,20.66A204.51,204.51,0,0,1,120,71.84a326,326,0,0,1-19,45.45c-3.53,6.9-7.07,13.17-10.42,18.47-1.7,2.69-3.35,5.12-4.92,7.27a65.43,65.43,0,0,1-4.54,5.62c-5.53,6-13.13,14.74-20.36,23-8.64,9.83-16.53,18.69-24.31,27-4.37,4.65-8.29,8.67-11.87,12.19-4.25,4.19-7.72,7.37-10.62,9.9-2.46,2.15-4.38,3.7-5.89,4.92l-2.42,2c-1.19,1-2.28,1.87-3,2.4A8,8,0,0,1,0,231.57a6.8,6.8,0,0,0,3.41.73,12.2,12.2,0,0,0,4.36-1.08,22.34,22.34,0,0,0,3.08-1.67,48.92,48.92,0,0,0,6.42-5.1A140.06,140.06,0,0,0,27.6,213.69q5-5.72,10.94-13.25c6.89-8.75,14.27-18.76,21.68-29.2,6.61-9.32,12.61-18.08,17.49-25.25,1.08-1.61,2.27-3.54,3.55-5.78s2.6-4.7,4-7.44C88,127.34,91,121,93.93,114a359.47,359.47,0,0,0,15.81-45.22,201.37,201.37,0,0,0,4.75-21.94,89,89,0,0,0,1.17-18.17,36.86,36.86,0,0,0-.94-6.7c-.19-.77-.41-1.48-.64-2.13a14.23,14.23,0,0,0-1.11-2.4A7.7,7.7,0,0,0,110.84,15,7.24,7.24,0,0,0,108,13.86a15.77,15.77,0,0,0-8.24.42,18,18,0,0,0-6.88,4.46,39.17,39.17,0,0,0-6.4,8.74A80.73,80.73,0,0,0,81,39.64a182.6,182.6,0,0,0-7.3,28.81C72,78.1,70.9,87.13,70.1,93.93c-.19,1.56-.37,3.69-.51,6.31s-.27,5.71-.36,9.18c-.18,7-.23,15.52-.11,25,.24,19.49,1.18,42.6,3.06,65.28,1,11.66,2.16,23.08,3.63,33.83,1.5,11.08,3.27,21.32,5.32,30.36a143.73,143.73,0,0,0,7.16,23.58,52.85,52.85,0,0,0,4.23,8.16A22.2,22.2,0,0,0,97,300.85a26.45,26.45,0,0,0,9.32,5.11,16.18,16.18,0,0,0,8,.28,20.36,20.36,0,0,0,7.32-3.38,30.34,30.34,0,0,0,3.4-2.8,41.19,41.19,0,0,0,3-3.19,76.13,76.13,0,0,0,9.23-14.1c2.91-5.57,3.54-7.17,3.68-7.12Z"/><path id="path4889" class="cls-1" d="M81.67,204.54c.39-.11,1.84-.66,1.77-3A16.67,16.67,0,0,0,83.1,199c-.35-1.92-1.37-6.49-1.81-10.44a36.27,36.27,0,0,1-.23-5.29,19,19,0,0,1,.23-2.32,11,11,0,0,1,.53-2,6.42,6.42,0,0,1,.9-1.65A5,5,0,0,1,84.11,176a6,6,0,0,1,2.08-.74,9.83,9.83,0,0,1,2.83,0,4.46,4.46,0,0,1,1.62.58,6.38,6.38,0,0,1,1.47,1.24,11,11,0,0,1,1.3,1.82,19.64,19.64,0,0,1,1.13,2.34,40.14,40.14,0,0,1,1.84,6c.53,2.28,1,4.82,1.38,7.56.79,5.47,1.34,11.73,1.81,18.35s.85,13.58,1.29,20.41.91,13.59,1.58,19.72a118.58,118.58,0,0,0,2.68,16.17,37.14,37.14,0,0,0,1.88,5.69,12.38,12.38,0,0,0,2,3.35,3.22,3.22,0,0,0,.8.67,1.09,1.09,0,0,0,.49.17,1.32,1.32,0,0,0,.38,0l.29-.06a2.37,2.37,0,0,0,.41-.38A4.51,4.51,0,0,0,112,278a13.16,13.16,0,0,0,1.07-3.55l.12-.68a46.79,46.79,0,0,0,.43-7.13c0-2.77-.16-5.88-.44-9.32-.55-6.81-1.54-14.57-2.66-23.13-1.09-8.33-2.31-17.41-3.23-26.45a261.93,261.93,0,0,1-1.56-26.9,108.37,108.37,0,0,1,2.53-24.76,57.33,57.33,0,0,1,3.71-10.83,39,39,0,0,1,6-9.29,32.81,32.81,0,0,1,8.67-7A36.46,36.46,0,0,1,137.87,125c7.86-1.42,14.74-1.28,20.69.34a31.63,31.63,0,0,1,8.19,3.48,30.85,30.85,0,0,1,6.55,5.36,40.1,40.1,0,0,1,8.28,14.47,73.26,73.26,0,0,1,3.4,17.25c1.07,12.27-.07,25.4-1.6,36.28-.82,5.8-1.78,11.19-2.68,15.75-.94,4.76-1.86,8.88-2.52,11.79-.37,1.68-.93,3.8-1.59,6.18-.43,1.55-.91,3.25-1.43,5.06-.32,1.07-.64,2.2-1,3.37-1.85,6.29-4.18,14-6.72,22.53-5.25,17.72-11.07,38-15.8,58-2.49,10.53-4.58,20.54-6.13,29.81a213.12,213.12,0,0,0-3,26.52,97.87,97.87,0,0,0,.16,11.15,50.26,50.26,0,0,0,1.48,9.28,25.12,25.12,0,0,0,3,7.11,14,14,0,0,0,4.86,4.65,14.27,14.27,0,0,1-5.34-4.3A24.58,24.58,0,0,1,143,402a48.79,48.79,0,0,1-2.19-9.45,91.52,91.52,0,0,1-.81-11.37,197.9,197.9,0,0,1,1.75-27.05c1.17-9.44,2.89-19.62,5-30.32,4-20.33,9.24-40.93,13.94-58.86,2.27-8.66,4.35-16.41,6-22.71.31-1.17.59-2.29.86-3.36.46-1.8.87-3.48,1.23-5,.56-2.36,1-4.32,1.21-5.78.5-3,1.22-7,2-11.76.72-4.49,1.51-9.75,2.16-15.37,1.24-10.64,2-23,.85-34.14a63.76,63.76,0,0,0-3.15-14.8,29.73,29.73,0,0,0-6.23-10.65,20.14,20.14,0,0,0-4.34-3.46,21.26,21.26,0,0,0-5.47-2.24c-4.1-1.07-9.32-1.27-16,0a25.42,25.42,0,0,0-7.9,2.77,21.77,21.77,0,0,0-5.78,4.7,28.78,28.78,0,0,0-4.31,6.73,46.37,46.37,0,0,0-3,8.74,99.52,99.52,0,0,0-2.28,22.25c0,8.24.54,17,1.39,25.79s2,17.8,3,26.19,2,16.58,2.45,23.71c.24,3.62.36,7,.3,10.15a54.16,54.16,0,0,1-.76,8.73c-.06.32-.13.64-.2,1a21.23,21.23,0,0,1-2.33,6.35,13.43,13.43,0,0,1-2.38,3,11.37,11.37,0,0,1-3.33,2.16c-.23.09-.42.17-.54.2a12,12,0,0,1-3.48.45,10.19,10.19,0,0,1-3.41-.67,10.35,10.35,0,0,1-2.88-1.69,13,13,0,0,1-2.19-2.33,21.88,21.88,0,0,1-2.88-5.76,47,47,0,0,1-1.77-7,133.59,133.59,0,0,1-1.78-17.28c-.32-6.31-.42-13.14-.46-20.06s0-13.84-.07-20.43-.18-12.8-.53-18.2c-.18-2.71-.41-5.21-.71-7.45a47.15,47.15,0,0,0-1.14-5.91,19.62,19.62,0,0,0-.76-2.28,10.93,10.93,0,0,0-.89-1.78,5.94,5.94,0,0,0-1-1.28,3.9,3.9,0,0,0-1.26-.76,12,12,0,0,0-2.73-.62,7.13,7.13,0,0,0-2.38.17,6.27,6.27,0,0,0-2.08,1A7.53,7.53,0,0,0,80,177.88a10.91,10.91,0,0,0-1.27,2.24,16.13,16.13,0,0,0-.88,2.62,29.61,29.61,0,0,0-.81,5.88A48.44,48.44,0,0,0,77.92,200a13.82,13.82,0,0,0,.78,2.7c1,2.25,2.6,2,3,1.88Z"/></svg>