<?xml version="1.0" encoding="utf-8"?>
<!-- Generator: Adobe Illustrator 26.0.3, SVG Export Plug-In . SVG Version: 6.00 Build 0)  -->
<svg version="1.1" id="Laag_1" xmlns="http://www.w3.org/2000/svg" xmlns:xlink="http://www.w3.org/1999/xlink" x="0px" y="0px"
	 viewBox="0 0 382 426" style="enable-background:new 0 0 382 426;" xml:space="preserve">
<style type="text/css">
	.st0{fill:#EE5555;}
</style>
<g>
	<path class="st0" d="M193.18,21.5c4.01,2.19,5.39,5.51,5.28,10.09c-0.25,10.51-0.05,21.02-0.09,31.54
		c-0.02,4.39-2.09,7.33-5.57,8.16c-4.84,1.15-9.17-2.17-9.22-7.42c-0.12-11.5,0-23.01-0.06-34.51c-0.02-3.88,2.3-6.02,5.21-7.86
		C190.21,21.5,191.69,21.5,193.18,21.5z"/>
	<path class="st0" d="M0.87,209.72c2.17-4.03,5.5-5.4,10.07-5.29c10.36,0.26,20.74,0.06,31.11,0.09c5.49,0.02,8.68,2.79,8.68,7.43
		c0,4.64-3.19,7.42-8.67,7.43c-10.37,0.03-20.74-0.16-31.11,0.09c-4.56,0.11-7.89-1.26-10.07-5.29
		C0.87,212.7,0.87,211.21,0.87,209.72z"/>
	<path class="st0" d="M188.72,402.4c-4.01-2.19-5.39-5.51-5.28-10.09c0.26-10.38,0.06-20.78,0.09-31.17
		c0.02-5.49,2.79-8.69,7.41-8.69c4.64,0,7.4,3.18,7.42,8.69c0.03,10.39-0.17,20.79,0.09,31.17c0.11,4.58-1.28,7.9-5.28,10.09
		C191.69,402.4,190.21,402.4,188.72,402.4z"/>
	<path class="st0" d="M191.08,93.54c65.36,0.11,118.21,53.23,118.04,118.62c-0.17,65.48-53.3,118.48-118.48,118.19
		c-65.27-0.29-117.89-53.17-117.86-118.45C72.81,146.46,125.81,93.43,191.08,93.54z M190.95,108.42
		c-57.09,0-103.32,46.32-103.32,103.52c0,57.19,46.25,103.53,103.32,103.53c57.08,0,103.33-46.35,103.32-103.54
		C294.26,154.73,248.04,108.42,190.95,108.42z"/>
	<path class="st0" d="M33.08,310.94c-3.7-0.23-6.2-1.81-7.32-5.1c-1.12-3.29-0.34-6.45,2.58-8.21
		c10.48-6.31,21.07-12.44,31.74-18.42c3.38-1.89,7.43-0.39,9.38,2.78c1.98,3.23,1.55,7.62-1.76,9.61
		c-10.68,6.44-21.56,12.55-32.39,18.74C34.59,310.75,33.67,310.79,33.08,310.94z"/>
	<path class="st0" d="M289.71,54.23c-0.3,0.76-0.75,2.44-1.58,3.91c-5.38,9.46-10.81,18.89-16.28,28.3
		c-2.73,4.7-6.88,6.15-10.79,3.9c-3.87-2.23-4.73-6.64-2.06-11.3c5.52-9.67,11.09-19.31,16.67-28.94c1.88-3.25,4.73-4.67,8.44-3.86
		C287.3,46.94,289.63,49.99,289.71,54.23z"/>
	<path class="st0" d="M70.59,136.73c-0.01,6.69-5.68,10.56-10.51,7.92c-10.73-5.86-21.28-12.08-31.75-18.39
		c-3.28-1.98-3.87-6.34-1.98-9.58c1.89-3.23,5.94-4.82,9.3-2.95c10.69,5.94,21.3,12.04,31.75,18.38
		C69.14,133.17,69.95,135.76,70.59,136.73z"/>
	<path class="st0" d="M319.12,145.47c-3.6,0.03-6.51-2.16-7.5-5.42c-1-3.28,0.23-6.52,3.6-8.51c8.08-4.78,16.24-9.44,24.38-14.14
		c2.14-1.24,4.23-2.59,6.46-3.64c3.58-1.68,7.4-0.47,9.39,2.76c1.97,3.19,1.52,7.67-1.72,9.62c-10.68,6.45-21.56,12.58-32.39,18.78
		C320.61,145.34,319.67,145.35,319.12,145.47z"/>
	<path class="st0" d="M356.02,204.51c5.55,0,11.11-0.04,16.66,0.01c5.02,0.05,8.36,3.11,8.32,7.48c-0.04,4.37-3.36,7.35-8.44,7.37
		c-10.99,0.04-21.97,0.04-32.96,0c-5.22-0.02-8.37-2.81-8.43-7.3c-0.07-4.66,3.13-7.52,8.55-7.55
		C345.16,204.48,350.59,204.51,356.02,204.51z"/>
	<path class="st0" d="M319.51,278.44c0.8,0.31,2.38,0.71,3.75,1.49c9.55,5.46,19.07,10.95,28.56,16.51
		c4.68,2.75,6.02,6.94,3.66,10.87c-2.26,3.76-6.5,4.61-11.02,2.02c-9.75-5.6-19.49-11.22-29.18-16.93
		c-3.38-1.99-4.65-5.24-3.69-8.48C312.56,280.65,315.44,278.44,319.51,278.44z"/>
	<path class="st0" d="M100.12,378.57c-6.4-0.69-9.71-6.66-6.68-12.16c3.82-6.93,7.86-13.74,11.81-20.6c1.79-3.11,3.52-6.26,5.41-9.3
		c2.44-3.92,6.56-5.04,10.19-2.94c3.46,2,4.83,6.22,2.72,9.99c-5.8,10.36-11.69,20.67-17.85,30.82
		C104.6,376.22,102.02,377.19,100.12,378.57z"/>
	<path class="st0" d="M289.67,369.62c0.08,4.01-2.11,7.02-5.28,7.98c-3.23,0.98-6.6-0.28-8.56-3.56
		c-4.11-6.91-8.07-13.91-12.08-20.88c-1.79-3.11-3.66-6.17-5.32-9.35c-2.1-4.03-0.92-8.26,2.69-10.29
		c3.64-2.05,7.81-0.94,10.16,3.06c5.83,9.91,11.54,19.9,17.24,29.9C289.16,367.63,289.45,368.99,289.67,369.62z"/>
	<path class="st0" d="M100.18,45.27c1.95,1.5,4.56,2.59,5.75,4.55c6.04,9.93,11.78,20.04,17.48,30.18
		c2.24,3.98,1.03,8.26-2.54,10.33c-3.62,2.1-7.85,1.03-10.19-2.93c-5.9-10.02-11.77-20.06-17.42-30.22
		C90.35,51.95,93.89,46.03,100.18,45.27z"/>
</g>
</svg>
