<?xml version="1.0" encoding="utf-8"?>
<!-- Generator: Adobe Illustrator 26.0.3, SVG Export Plug-In . SVG Version: 6.00 Build 0)  -->
<svg version="1.1" id="Laag_1" xmlns="http://www.w3.org/2000/svg" xmlns:xlink="http://www.w3.org/1999/xlink" x="0px" y="0px"
	 viewBox="0 0 541 538" style="enable-background:new 0 0 541 538;" xml:space="preserve">
<style type="text/css">
	.st0{fill:#EE5555;}
	.st1{clip-path:url(#SVGID_00000106864795736215050240000006905379450585357213_);}
	.st2{fill:#2E2E2E;}
	.st3{fill:#F5F5FF;stroke:#2E2E2E;stroke-width:0.5;stroke-linecap:round;stroke-linejoin:round;stroke-miterlimit:10;}
	.st4{fill:none;stroke:#2E2E2E;stroke-width:0.5;stroke-linecap:round;stroke-linejoin:round;stroke-miterlimit:10;}
	.st5{fill:none;stroke:#2E2E2E;stroke-width:0.5778;stroke-linecap:round;stroke-linejoin:round;stroke-miterlimit:10;}
	.st6{fill:none;stroke:#2E2E2E;stroke-width:0.6139;stroke-linecap:round;stroke-linejoin:round;stroke-miterlimit:10;}
	.st7{fill:#FFFFFF;}
	.st8{fill:none;stroke:#FFFFFF;stroke-width:0.5;stroke-linecap:round;stroke-linejoin:round;stroke-miterlimit:10;}
</style>
<path class="st0" d="M151.73,14.59c-7.69,2.19-15.14,5.13-22.23,8.82C95.15,41.35,1.21,101.85,1.21,227.25
	c0,0-6.65,206.73,133.97,280.69c3.86,2.03,7.55,4.05,11.48,5.94c19.23,9.27,96.33,47.29,246-1.92c1.22-0.4,2.46-0.8,3.69-1.15
	c13.96-4.02,139.7-44.41,144.53-196.6c0,0,7.52-157.89-99.01-245.44c-1.81-1.49-3.6-2.99-5.33-4.57
	C421.23,50.32,320.02-33.35,151.73,14.59z"/>
<g>
	<defs>
		<path id="SVGID_1_" d="M151.06,14.83c-7.69,2.19-15.14,5.13-22.23,8.82C94.48,41.58,0.54,102.09,0.54,227.49
			c0,0-6.65,206.73,133.97,280.69c3.86,2.03,7.55,4.05,11.48,5.94c19.23,9.27,96.33,47.29,246-1.92c1.22-0.4,2.46-0.8,3.69-1.15
			c13.96-4.02,139.7-44.41,144.53-196.6c0,0,7.52-157.89-99.01-245.44c-1.81-1.49-3.6-2.99-5.33-4.57
			C420.57,50.56,319.36-33.11,151.06,14.83z"/>
	</defs>
	<clipPath id="SVGID_00000181076107023737640450000005380422029307946116_">
		<use xlink:href="#SVGID_1_"  style="overflow:visible;"/>
	</clipPath>
	<g style="clip-path:url(#SVGID_00000181076107023737640450000005380422029307946116_);">
		<g>
			<path class="st2" d="M373.41,240.21c-3.75-35.91-11.88-71.34-24.06-105.33c-0.36-5.14-1.14-10.14-2.33-14.98
				c-3.74-15.09-11.4-28.57-21.76-39.25c-12.26-12.64-28.26-21.35-46.2-24.08c-0.58-0.08-1.17-0.2-1.75-0.28
				c-0.74-0.12-1.48-0.2-2.22-0.28c-1.4-0.16-2.8-0.24-4.2-0.32c-1.09-0.08-2.26-0.12-3.35-0.12h-0.93c-0.27,0-0.51,0-0.78,0.04
				c-0.04-0.04-0.08-0.04-0.12,0c-38.34,0.4-70.45,27.61-79.56,64.29c-0.5,2.04-0.91,4.11-1.27,6.2
				c-19.43,40.93-26.04,88.12-25.29,133.85c3-7.86,7.79-15.04,13.9-20.84c-5.67,12.27-5.55,27,0.14,39.25l-0.06,0.82h0.41
				c0.07,0.15,0.12,0.31,0.2,0.46l0.08-0.46h184.14l-0.7-1.79c2.15-0.6,4.88-0.44,6.75-1.32c-0.4-4.73-0.79-9.47-1.19-14.2
				c2.37,3.66,4.92,5.17,7.29,8.83c-1.48-12.07-3.47-26.58-6.87-38.25C367.55,234.79,371.44,236.13,373.41,240.21z"/>
			<g>
				<path class="st3" d="M305.57,325.37c0.74,22.61-16.99,41.36-39.1,41.36c-21.65,0-39.1-17.98-39.1-40.03c0-0.43,0-0.9,0.03-1.33
					l4.36-59.71l0.56-7.69l2.72-37.1h62.89l2.81,38.49l0.62,8.4L305.57,325.37z"/>
				<path class="st2" d="M303.38,296.18c-19.82,2.43-42.17-7.11-57.31-26.45c-6.15-7.83-10.42-16.44-12.88-25.15l1.78-24.09h62.88
					l2.8,38.48l0.65,8.41L303.38,296.18z"/>
			</g>
			<g>
				<g>
					<g>
						<g>
							<g>
								<path class="st3" d="M319.8,161.02c-7.9,12.69-7.14,27.72,1.71,33.57c8.84,5.85,22.41,0.31,30.31-12.38
									c7.9-12.69,7.14-27.72-1.71-33.57C341.27,142.79,327.7,148.33,319.8,161.02z"/>
							</g>
						</g>
					</g>
					<path class="st4" d="M343.46,154.74c3.83,1.5,6.74,5.13,7.36,9.2c0.62,4.06-1.07,8.4-4.28,10.97"/>
				</g>
				<g>
					<g>
						<g>
							<g>
								<path class="st3" d="M213.16,161.02c7.9,12.69,7.14,27.72-1.71,33.57c-8.84,5.85-22.41,0.31-30.31-12.38
									c-7.9-12.69-7.14-27.72,1.71-33.57C191.68,142.79,205.26,148.33,213.16,161.02z"/>
							</g>
						</g>
					</g>
					<path class="st4" d="M189.49,154.74c-3.83,1.5-6.74,5.13-7.36,9.2c-0.62,4.06,1.07,8.4,4.28,10.97"/>
				</g>
			</g>
			<path class="st3" d="M340.7,140.05c0,1.2,0,2.36-0.07,3.49c-0.14,3.42-0.41,6.87-0.85,10.22l-0.48,4.78l-0.21,2.6l-0.34,3.76
				c-0.21,2.29-0.34,4.55-0.51,6.8c-0.07,1.44-0.14,2.84-0.24,4.27c-0.31,5.67-0.62,11.31-1.37,16.92c0,0.1-0.07,0.21-0.07,0.27
				c-0.14,1.06-0.31,2.15-0.51,3.18c0,0.03,0,0.03,0,0.03c-0.21,1.16-0.41,2.29-0.72,3.42c-0.34,1.71-0.79,3.38-1.33,5.09v0.03
				c-0.14,0.62-0.34,1.2-0.58,1.85c-0.38,1.23-0.89,2.49-1.37,3.76c-1.33,3.31-2.94,6.53-4.78,9.74
				c-7.62,13.33-19.34,25.56-31.06,33.66c-0.07,0.1-0.14,0.14-0.17,0.14c-1.44,1.03-2.87,1.95-4.27,2.8
				c-14.32,8.75-31.23,9.23-46.07,1.67c-3.08-1.54-6.05-3.31-8.92-5.43c-0.03,0-0.07,0-0.1-0.07c-11.35-8.1-21.12-19.85-28.43-32.77
				c-0.55-0.92-1.03-1.81-1.54-2.73c-0.24-0.48-0.48-0.99-0.72-1.47c-0.41-0.79-0.82-1.64-1.23-2.49c-1.16-2.22-2.19-4.55-3.14-6.8
				c-0.24-0.65-0.51-1.26-0.72-1.91c-3.45-9.09-4.68-19.24-5.5-29.25c-0.14-1.54-0.27-3.14-0.38-4.68
				c-0.14-1.74-0.27-3.52-0.41-5.23L194.2,161c-0.1-0.51-0.17-1.03-0.24-1.5c-0.14-0.58-0.21-1.13-0.27-1.71
				c-0.38-2.12-0.65-4.27-0.89-6.49c-0.34-3.62-0.55-7.38-0.55-11.24c0-0.31,0-0.65,0.03-0.99c0-1.78,0.07-3.52,0.17-5.26
				c0.03-0.62,0.07-1.23,0.1-1.85c0.17-2.02,0.41-4,0.72-5.91c1.71-11.86,5.5-22.9,10.97-32.57c1.37-2.43,2.84-4.75,4.44-7.01
				c5.26-7.55,11.72-14.05,18.93-19.14c0.51-0.41,1.06-0.79,1.57-1.13c0.65-0.44,1.3-0.89,1.95-1.3c2.56-1.57,5.19-3.01,7.89-4.24
				c7.89-3.62,16.47-5.71,25.49-5.95c0.03-0.07,0.07-0.07,0.1,0v-0.07c0.44-0.03,0.92-0.03,1.37-0.03h0.44
				c1.13,0,2.36,0.03,3.49,0.14c1.5,0.07,2.94,0.17,4.41,0.38c0.79,0.07,1.57,0.17,2.32,0.31c0.62,0.07,1.23,0.21,1.85,0.31
				c5.13,0.99,10.05,2.53,14.76,4.68c3.62,1.57,7.14,3.52,10.46,5.78c0.17,0.1,0.34,0.24,0.51,0.34c2.12,1.44,4.13,2.94,6.08,4.61
				c7.35,6.19,13.64,13.87,18.59,22.69v0.03c0.34,0.51,0.58,1.03,0.89,1.54c0.03,0,0.03,0.07,0.03,0.07
				c4.78,9.12,8.24,19.34,9.81,30.31c0,0.07,0.03,0.14,0.03,0.24c0.31,1.91,0.51,3.9,0.68,5.91c0.03,0.34,0.07,0.68,0.07,1.03
				c0.17,1.98,0.24,4.03,0.24,6.08C340.7,139.4,340.7,139.74,340.7,140.05z"/>
			<g>
				<g>
					<path class="st2" d="M227.84,67.33c-5.22,32.2-16.5,63.34-33.07,91.13c-0.18,0.31-0.38,0.67-0.61,1.02
						c-0.12-0.56-0.2-1.12-0.26-1.69c-0.36-2.14-0.65-4.29-0.87-6.51c-0.36-3.6-0.56-7.38-0.56-11.23c0-0.31,0-0.67,0.04-0.98
						c0-4.45,0.32-8.82,0.99-13.04c2.12-14.83,7.52-28.37,15.39-39.56C214.18,78.92,220.61,72.41,227.84,67.33z"/>
					<path class="st2" d="M340.92,140.05c0,1.21,0,2.37-0.08,3.47c-0.12,3.43-0.4,6.86-0.85,10.21l-0.46,4.81l-0.22,2.6
						c-0.62-1-1.17-1.89-1.63-2.68c-16.68-28.02-28.06-59.43-33.21-91.9c2.1,1.41,4.14,2.93,6.09,4.6
						c7.79,6.55,14.39,14.79,19.45,24.28c0.04,0,0.04,0.04,0.04,0.04c4.8,9.13,8.23,19.37,9.83,30.33c0,0.08,0.04,0.15,0.04,0.23
						c0.6,4.22,0.97,8.59,0.97,13.04C340.92,139.39,340.92,139.74,340.92,140.05z"/>
				</g>
				<path class="st2" d="M340.65,132.98c-2.05,2.02-4.48,3.55-7.35,4.24c-8.06,1.98-16.44-3.66-20.33-11
					c-3.93-7.31-2.7-17.39-3.11-25.7c-1.78,13.33-10.73,24.43-21.97,31.85c8.54-8.75,11.38-23.37,9.43-35.44
					c-0.57,2.68-1.67,5.48-3.09,8.29c-8.71,17.26-26.83,27.76-46.16,27.66c-9.56-0.05-18.89-0.09-21.56-0.11
					c10.56-5.37,16.54-16.61,21.87-27.2c-11.98,13.97-27.79,24.58-45.22,30.45c-3.62,1.22-7.73,0.52-10.44-2.18l-0.05-0.05
					c-0.01-0.03-0.02-0.05-0.03-0.08c0.17-2.62,0.45-5.21,0.85-7.68c1.71-11.86,5.5-22.9,10.97-32.57c1.37-2.43,2.84-4.75,4.44-7.01
					c5.26-7.55,11.72-14.05,18.93-19.14c0.51-0.41,1.06-0.79,1.57-1.13c0.65-0.44,1.3-0.89,1.95-1.3c2.56-1.57,5.19-3.01,7.89-4.24
					c7.89-3.62,16.47-5.71,25.49-5.95c0.03-0.07,0.07-0.07,0.1,0v-0.07c0.44-0.03,0.92-0.03,1.37-0.03h0.44
					c1.13,0,2.36,0.03,3.49,0.14c1.5,0.07,2.94,0.17,4.41,0.38c0.79,0.07,1.57,0.17,2.32,0.31c0.62,0.07,1.23,0.21,1.85,0.31
					c5.13,0.99,10.05,2.53,14.76,4.68c3.62,1.57,7.14,3.52,10.46,5.78c0.17,0.1,0.34,0.24,0.51,0.34c2.12,1.44,4.13,2.94,6.08,4.61
					c7.35,6.19,13.64,13.87,18.59,22.69v0.03c0.34,0.51,0.58,1.03,0.89,1.54c0.03,0,0.03,0.07,0.03,0.07
					c4.78,9.12,8.24,19.34,9.81,30.31c0,0.07,0.03,0.14,0.03,0.24c0.36,2.23,0.58,4.54,0.76,6.9
					C340.66,132.95,340.65,132.96,340.65,132.98z"/>
				<path class="st2" d="M319.58,115.05c11.6,14.98,18.18,33.78,18.47,52.73c0.29,18.95-5.73,37.93-16.87,53.26
					c14.37-13.63,23.67-28.92,25.7-48.62s-3.2-40.07-14.48-56.35c-1.45-2.09-3.14-4.23-5.56-5.04
					C324.44,110.2,319.99,112.54,319.58,115.05z"/>
			</g>
			<g>
				<g>
					<g>
						<path class="st2" d="M281.46,149c2.33-3.13,5.69-4.97,9.03-6.25c3.39-1.23,6.91-1.82,10.41-1.9
							c3.51-0.08,7.01,0.38,10.41,1.38c3.38,1.05,6.73,2.54,9.55,5.2c-3.66,1.02-6.92,1.48-10.18,1.86
							c-3.24,0.35-6.41,0.52-9.57,0.58c-3.16,0.06-6.3,0-9.49-0.14C288.39,149.56,285.23,149.35,281.46,149z"/>
					</g>
					<g>
						<path class="st2" d="M251.5,149c-2.33-3.13-5.69-4.97-9.03-6.25c-3.39-1.23-6.91-1.82-10.41-1.9
							c-3.51-0.08-7.01,0.38-10.41,1.38c-3.38,1.05-6.73,2.54-9.55,5.2c3.66,1.02,6.92,1.48,10.18,1.86
							c3.24,0.35,6.41,0.52,9.57,0.58c3.16,0.06,6.3,0,9.49-0.14C244.57,149.56,247.73,149.35,251.5,149z"/>
					</g>
				</g>
				<g>
					<g>
						<g>
							<g>
								<g>
									<g>
										<g>
											<path class="st2" d="M280.73,177.26c3.95-5.13,8.22-10.64,14.68-12.76c6.45-2.33,13.73,0.18,18.52,4.78
												c-0.28-0.23,4.43,3.24,4.38,3.19c0,0-0.29-0.09-0.29-0.09c0.9-0.03,1.98-0.69,2.8-1.19c0.92-0.59,1.83-1.24,2.64-1.97
												c0.09-0.08,0.23-0.07,0.31,0.02c0.08,0.08,0.07,0.21,0,0.29c-1.69,1.6-3.36,3.38-5.74,3.85
												c-0.11,0.01-0.21-0.03-0.29-0.09c0,0-4.52-3.11-4.52-3.11l-0.05-0.04c-4.6-4.29-11.27-6.64-17.4-4.58
												c-6.25,1.94-10.51,7.2-14.68,11.99C280.9,177.75,280.54,177.47,280.73,177.26L280.73,177.26z"/>
										</g>
										<path class="st2" d="M293.33,170.6c0.25-3.46,3.26-6.07,6.72-5.82c3.46,0.25,6.07,3.26,5.82,6.72
											c-0.25,3.46-3.26,6.07-6.72,5.82C295.69,177.07,293.08,174.06,293.33,170.6z"/>
										<path class="st4" d="M311.8,176.42c2.31-0.52,4.5-1.57,6.35-3.04"/>
									</g>
								</g>
							</g>
						</g>
						<path class="st4" d="M280.99,169.54c2.93-5.17,8.04-9.05,13.81-10.5"/>
					</g>
					<g>
						<g>
							<g>
								<g>
									<g>
										<g>
											<path class="st2" d="M251.89,177.54c-4.17-4.79-8.44-10.05-14.68-11.99c-6.13-2.05-12.79,0.29-17.39,4.58
												c-0.02,0.02-0.04,0.03-0.06,0.05c0,0-4.52,3.11-4.52,3.11c-0.08,0.07-0.19,0.1-0.29,0.09c-2.39-0.47-4.05-2.26-5.74-3.85
												c-0.08-0.09-0.08-0.23,0.01-0.31c0.08-0.08,0.21-0.08,0.29,0c0.81,0.73,1.72,1.39,2.64,1.98
												c0.81,0.49,1.89,1.15,2.8,1.19c0,0-0.29,0.09-0.29,0.09l4.43-3.23c2.12-2.02,5.37-4.1,8.53-4.95
												c6.56-2.05,13.63,0.82,18.29,5.5c2.4,2.29,4.28,4.96,6.32,7.47C252.39,177.47,252.08,177.75,251.89,177.54L251.89,177.54
												z"/>
										</g>
										<path class="st2" d="M239.63,170.6c-0.25-3.46-3.26-6.07-6.72-5.82s-6.07,3.26-5.82,6.72c0.25,3.46,3.26,6.07,6.72,5.82
											C237.27,177.07,239.87,174.06,239.63,170.6z"/>
										<path class="st4" d="M221.15,176.42c-2.31-0.52-4.5-1.57-6.35-3.04"/>
									</g>
								</g>
							</g>
						</g>
						<path class="st4" d="M251.97,169.54c-2.93-5.17-8.04-9.05-13.81-10.5"/>
					</g>
				</g>
				<g>
					<g>
						<path class="st2" d="M266.93,232.85c3.07-0.14,6.13-0.51,9.23-0.91c0.73-0.1,10.54-1.23,10.45-1.85c0,0-0.29-2.07-0.29-2.07
							c-2.32,0.15-4.59-1.31-6.29-2.62l-0.75-0.61c-1.82-1.47-3.7-2.99-6.05-3.74c-2.3-0.7-5.35-0.34-7.09,1.54
							c-1.74-1.88-4.79-2.24-7.1-1.54c-2.34,0.74-4.21,2.27-6.03,3.73l-0.74,0.6c-1.7,1.3-3.97,2.73-6.3,2.62l-0.29,2.07
							c3.95,1.49,8.98,1.96,13.15,2.49C261.56,232.93,264.25,232.98,266.93,232.85z"/>
						<g>
							<path class="st5" d="M283.26,229.84c2.25-0.44,4.47-1.12,6.61-2.05"/>
							<path class="st5" d="M249.69,229.84c-2.25-0.44-4.47-1.12-6.61-2.05"/>
						</g>
					</g>
					<path class="st4" d="M254.97,238.55c7.42,1.75,15.2,1.94,22.69,0.56"/>
				</g>
				<g>
					<path class="st6" d="M258.45,205.05c4.28,3.93,11.42,4.27,16.05,0.76"/>
					<line class="st4" x1="266.48" y1="169.38" x2="266.48" y2="195.3"/>
				</g>
			</g>
		</g>
		<g>
			<g>
				<path class="st2" d="M113.9,450.47c27.75,12.52,53.09,16.38,56.59,8.62c3.5-7.76-16.16-24.2-43.91-36.73
					c-27.75-12.52-53.09-16.38-56.59-8.62S86.15,437.95,113.9,450.47z"/>
				<path class="st3" d="M47.98,540.87c0.1-0.34,0.24-0.65,0.34-0.99L85.3,434.25l8.06-23.03l16.27-46.48
					c5.16-14.8,16.13-25.6,28.67-30c4.07-1.44,8.3-2.19,12.54-2.19c3.9,0,7.79,0.65,11.62,1.98c21.8,7.65,31.58,34.99,21.29,59.56
					l-21.19,50.44l-7.69,18.28l-6.25,14.9l-26.55,63.15"/>
				<path class="st2" d="M70.59,412.8c5.13-6.48,29.44-2.4,55.98,9.55c27.76,12.53,47.44,28.98,43.91,36.76
					c-0.08,0.17-0.17,0.29-0.29,0.46l0.29,0.13l30.66-71.88c12.03-28.22-0.97-60.4-28.31-69.94c-5.17-1.81-10.43-2.69-15.69-2.69
					c-18.72,0-36.68,11.1-45.89,29.1L70.59,412.8z"/>
			</g>
			<g>
				<path class="st2" d="M413.74,450.47c-27.75,12.52-53.09,16.38-56.59,8.62c-3.5-7.76,16.16-24.2,43.91-36.73
					c27.75-12.52,53.09-16.38,56.59-8.62S441.49,437.95,413.74,450.47z"/>
				<path class="st3" d="M405.57,540.87l-28.16-66.95l-4.65-11.11l-7.69-18.28l-5.09-12.1l-8.65-20.64l-7.45-17.7
					c-10.32-24.57-0.51-51.91,21.29-59.56c3.79-1.33,7.72-1.98,11.58-1.98c3.45,0,6.87,0.51,10.22,1.47
					c13.5,3.79,25.53,15.04,31.03,30.72l16.27,46.48l8.06,23.03l36.98,105.63c0.1,0.34,0.24,0.65,0.34,0.99"/>
				<path class="st2" d="M457.05,412.8c-5.13-6.48-29.44-2.4-55.98,9.55c-27.76,12.53-47.44,28.98-43.91,36.76
					c0.08,0.17,0.17,0.29,0.29,0.46l-0.29,0.13l-30.66-71.88c-12.03-28.22,0.97-60.4,28.31-69.94c5.17-1.81,10.43-2.69,15.69-2.69
					c18.72,0,36.68,11.1,45.89,29.1L457.05,412.8z"/>
			</g>
		</g>
		<g>
			<g>
				<g>
					<path class="st2" d="M389.04,377.79l-8.75,41.83c1.74,3.83,3.11,7.86,4.03,12.06c0.96,4.37,1.47,8.89,1.47,13.53
						c0,5.54-0.72,10.94-2.12,16.06c-1.16,4.44-2.8,8.68-4.89,12.64c-3.42,6.56-7.93,12.47-13.36,17.43l-10.29,49.52H170.02
						l-10.29-50.92c-3.72-3.62-7.01-7.76-9.74-12.23c-3.25-5.33-5.74-11.17-7.28-17.39c-1.2-4.82-1.85-9.88-1.85-15.1
						c0-5.3,0.68-10.46,1.91-15.38c0.79-3.11,1.78-6.12,2.97-9.02l-8.68-43.02c-3.72-15.86-3.01-31.37,2.6-43.06
						c4.61-9.71,12.61-16.74,24.23-19.24c2.94-0.62,6.15-0.96,9.6-0.96h183.65c3.42,0,6.56,0.34,9.43,0.96
						c11,2.39,18.01,9.19,21.77,18.52C393.17,345.81,392.83,361.63,389.04,377.79z"/>
				</g>
				<g>
					<g>
						<path class="st7" d="M389.03,377.78c-2.39,12.05-6,29.64-8.53,41.87c9.7,20.24,6.32,47.01-8.33,64.61
							c-2.08,2.52-4.33,4.89-6.73,7.1c2.37-2.24,4.58-4.65,6.61-7.2c14.45-17.98,17.54-43.63,8.07-64.59
							C382.7,407.32,386.37,389.85,389.03,377.78L389.03,377.78z"/>
					</g>
					<g>
						<path class="st7" d="M159.73,489.96c-13.64-13.01-20.7-32.34-18.77-51.07c0.57-6.04,2.31-12.9,4.61-18.02
							c-2.52-12.62-6.1-30.61-8.48-43.09c2.64,12.35,6.31,30.44,8.88,43.01c-2.32,5.8-3.93,11.92-4.54,18.15
							C139.39,457.59,146.43,476.77,159.73,489.96L159.73,489.96z"/>
					</g>
				</g>
			</g>
			<rect x="217.19" y="299.22" class="st2" width="92.3" height="28.09"/>
			<path class="st8" d="M310.97,313.69c0.29,3.49,0.44,7.05,0.44,10.67c0,43.18-21.34,78.18-47.66,78.18s-47.66-35-47.66-78.18
				c0-3.08,0.11-6.13,0.32-9.12"/>
		</g>
	</g>
</g>
</svg>
