<?xml version="1.0" encoding="utf-8"?>
<!-- Generator: Adobe Illustrator 26.0.3, SVG Export Plug-In . SVG Version: 6.00 Build 0)  -->
<svg version="1.1" id="Laag_1" xmlns="http://www.w3.org/2000/svg" xmlns:xlink="http://www.w3.org/1999/xlink" x="0px" y="0px"
	 viewBox="0 0 541 538" style="enable-background:new 0 0 541 538;" xml:space="preserve">
<style type="text/css">
	.st0{fill:#6600FF;}
	.st1{clip-path:url(#SVGID_00000097500333661980591880000005777086947740679322_);}
	.st2{fill:#2E2E2E;}
	.st3{fill:#F5F5FF;stroke:#2E2E2E;stroke-width:0.5;stroke-linecap:round;stroke-linejoin:round;stroke-miterlimit:10;}
	.st4{fill:none;stroke:#2E2E2E;stroke-width:0.5;stroke-linecap:round;stroke-linejoin:round;stroke-miterlimit:10;}
	.st5{fill:none;stroke:#2E2E2E;stroke-width:0.5778;stroke-linecap:round;stroke-linejoin:round;stroke-miterlimit:10;}
	.st6{fill:none;stroke:#2E2E2E;stroke-width:0.6139;stroke-linecap:round;stroke-linejoin:round;stroke-miterlimit:10;}
	.st7{fill:#FFFFFF;}
	.st8{fill:none;stroke:#FFFFFF;stroke-width:0.5;stroke-linecap:round;stroke-linejoin:round;stroke-miterlimit:10;}
</style>
<path class="st0" d="M151.7,14.6c-7.7,2.2-15.1,5.1-22.2,8.8C95.2,41.3,1.2,101.8,1.2,227.2c0,0-6.7,206.7,134,280.7
	c3.9,2,7.6,4,11.5,5.9c19.2,9.3,96.3,47.3,246-1.9c1.2-0.4,2.5-0.8,3.7-1.1c14-4,139.7-44.4,144.5-196.6c0,0,7.5-157.9-99-245.4
	c-1.8-1.5-3.6-3-5.3-4.6C421.2,50.3,320-33.3,151.7,14.6z"/>
<g>
	<g>
		<defs>
			<path id="SVGID_1_" d="M151.1,14.8c-7.7,2.2-15.1,5.1-22.2,8.8C94.5,41.6,0.5,102.1,0.5,227.5c0,0-6.7,206.7,134,280.7
				c3.9,2,7.6,4,11.5,5.9c19.2,9.3,96.3,47.3,246-1.9c1.2-0.4,2.5-0.8,3.7-1.1c14-4,139.7-44.4,144.5-196.6c0,0,7.5-157.9-99-245.4
				c-1.8-1.5-3.6-3-5.3-4.6C420.6,50.6,319.4-33.1,151.1,14.8z"/>
		</defs>
		<clipPath id="SVGID_00000142151709364234391440000009333139384759965835_">
			<use xlink:href="#SVGID_1_"  style="overflow:visible;"/>
		</clipPath>
		<g style="clip-path:url(#SVGID_00000142151709364234391440000009333139384759965835_);">
			<g>
				<path class="st2" d="M373.4,240.2c-3.8-35.9-11.9-71.3-24.1-105.3c-0.4-5.1-1.1-10.1-2.3-15c-3.7-15.1-11.4-28.6-21.8-39.2
					C313,68,297,59.3,279.1,56.6c-0.6-0.1-1.2-0.2-1.8-0.3c-0.7-0.1-1.5-0.2-2.2-0.3c-1.4-0.2-2.8-0.2-4.2-0.3
					c-1.1-0.1-2.3-0.1-3.4-0.1h-0.9c-0.3,0-0.5,0-0.8,0c0,0-0.1,0-0.1,0c-38.3,0.4-70.4,27.6-79.6,64.3c-0.5,2-0.9,4.1-1.3,6.2
					c-19.4,40.9-26,88.1-25.3,133.9c3-7.9,7.8-15,13.9-20.8c-5.7,12.3-5.6,27,0.1,39.2l-0.1,0.8h0.4c0.1,0.1,0.1,0.3,0.2,0.5
					l0.1-0.5h184.1l-0.7-1.8c2.1-0.6,4.9-0.4,6.8-1.3c-0.4-4.7-0.8-9.5-1.2-14.2c2.4,3.7,4.9,5.2,7.3,8.8
					c-1.5-12.1-3.5-26.6-6.9-38.2C367.5,234.8,371.4,236.1,373.4,240.2z"/>
				<g>
					<path class="st3" d="M305.6,325.4c0.7,22.6-17,41.4-39.1,41.4c-21.6,0-39.1-18-39.1-40c0-0.4,0-0.9,0-1.3l4.4-59.7l0.6-7.7
						l2.7-37.1h62.9l2.8,38.5l0.6,8.4L305.6,325.4z"/>
					<path class="st2" d="M303.4,296.2c-19.8,2.4-42.2-7.1-57.3-26.5c-6.1-7.8-10.4-16.4-12.9-25.1l1.8-24.1h62.9l2.8,38.5l0.6,8.4
						L303.4,296.2z"/>
				</g>
				<g>
					<g>
						<g>
							<g>
								<g>
									<path class="st3" d="M319.8,161c-7.9,12.7-7.1,27.7,1.7,33.6c8.8,5.9,22.4,0.3,30.3-12.4s7.1-27.7-1.7-33.6
										C341.3,142.8,327.7,148.3,319.8,161z"/>
								</g>
							</g>
						</g>
						<path class="st4" d="M343.5,154.7c3.8,1.5,6.7,5.1,7.4,9.2c0.6,4.1-1.1,8.4-4.3,11"/>
					</g>
					<g>
						<g>
							<g>
								<g>
									<path class="st3" d="M213.2,161c7.9,12.7,7.1,27.7-1.7,33.6c-8.8,5.9-22.4,0.3-30.3-12.4s-7.1-27.7,1.7-33.6
										C191.7,142.8,205.3,148.3,213.2,161z"/>
								</g>
							</g>
						</g>
						<path class="st4" d="M189.5,154.7c-3.8,1.5-6.7,5.1-7.4,9.2c-0.6,4.1,1.1,8.4,4.3,11"/>
					</g>
				</g>
				<path class="st3" d="M340.7,140.1c0,1.2,0,2.4-0.1,3.5c-0.1,3.4-0.4,6.9-0.9,10.2l-0.5,4.8l-0.2,2.6l-0.3,3.8
					c-0.2,2.3-0.3,4.6-0.5,6.8c-0.1,1.4-0.1,2.8-0.2,4.3c-0.3,5.7-0.6,11.3-1.4,16.9c0,0.1-0.1,0.2-0.1,0.3
					c-0.1,1.1-0.3,2.1-0.5,3.2c0,0,0,0,0,0c-0.2,1.2-0.4,2.3-0.7,3.4c-0.3,1.7-0.8,3.4-1.3,5.1v0c-0.1,0.6-0.3,1.2-0.6,1.9
					c-0.4,1.2-0.9,2.5-1.4,3.8c-1.3,3.3-2.9,6.5-4.8,9.7c-7.6,13.3-19.3,25.6-31.1,33.7c-0.1,0.1-0.1,0.1-0.2,0.1
					c-1.4,1-2.9,1.9-4.3,2.8c-14.3,8.8-31.2,9.2-46.1,1.7c-3.1-1.5-6.1-3.3-8.9-5.4c0,0-0.1,0-0.1-0.1
					c-11.4-8.1-21.1-19.9-28.4-32.8c-0.6-0.9-1-1.8-1.5-2.7c-0.2-0.5-0.5-1-0.7-1.5c-0.4-0.8-0.8-1.6-1.2-2.5
					c-1.2-2.2-2.2-4.6-3.1-6.8c-0.2-0.6-0.5-1.3-0.7-1.9c-3.4-9.1-4.7-19.2-5.5-29.2c-0.1-1.5-0.3-3.1-0.4-4.7
					c-0.1-1.7-0.3-3.5-0.4-5.2l-0.4-4.7c-0.1-0.5-0.2-1-0.2-1.5c-0.1-0.6-0.2-1.1-0.3-1.7c-0.4-2.1-0.6-4.3-0.9-6.5
					c-0.3-3.6-0.6-7.4-0.6-11.2c0-0.3,0-0.6,0-1c0-1.8,0.1-3.5,0.2-5.3c0-0.6,0.1-1.2,0.1-1.9c0.2-2,0.4-4,0.7-5.9
					c1.7-11.9,5.5-22.9,11-32.6c1.4-2.4,2.8-4.8,4.4-7c5.3-7.6,11.7-14.1,18.9-19.1c0.5-0.4,1.1-0.8,1.6-1.1
					c0.6-0.4,1.3-0.9,1.9-1.3c2.6-1.6,5.2-3,7.9-4.2c7.9-3.6,16.5-5.7,25.5-6c0-0.1,0.1-0.1,0.1,0v-0.1c0.4,0,0.9,0,1.4,0h0.4
					c1.1,0,2.4,0,3.5,0.1c1.5,0.1,2.9,0.2,4.4,0.4c0.8,0.1,1.6,0.2,2.3,0.3c0.6,0.1,1.2,0.2,1.9,0.3c5.1,1,10,2.5,14.8,4.7
					c3.6,1.6,7.1,3.5,10.5,5.8c0.2,0.1,0.3,0.2,0.5,0.3c2.1,1.4,4.1,2.9,6.1,4.6c7.4,6.2,13.6,13.9,18.6,22.7v0
					c0.3,0.5,0.6,1,0.9,1.5c0,0,0,0.1,0,0.1c4.8,9.1,8.2,19.3,9.8,30.3c0,0.1,0,0.1,0,0.2c0.3,1.9,0.5,3.9,0.7,5.9
					c0,0.3,0.1,0.7,0.1,1c0.2,2,0.2,4,0.2,6.1C340.7,139.4,340.7,139.7,340.7,140.1z"/>
				<g>
					<g>
						<path class="st2" d="M227.8,67.3c-5.2,32.2-16.5,63.3-33.1,91.1c-0.2,0.3-0.4,0.7-0.6,1c-0.1-0.6-0.2-1.1-0.3-1.7
							c-0.4-2.1-0.6-4.3-0.9-6.5c-0.4-3.6-0.6-7.4-0.6-11.2c0-0.3,0-0.7,0-1c0-4.4,0.3-8.8,1-13c2.1-14.8,7.5-28.4,15.4-39.6
							C214.2,78.9,220.6,72.4,227.8,67.3z"/>
						<path class="st2" d="M340.9,140.1c0,1.2,0,2.4-0.1,3.5c-0.1,3.4-0.4,6.9-0.9,10.2l-0.5,4.8l-0.2,2.6c-0.6-1-1.2-1.9-1.6-2.7
							c-16.7-28-28.1-59.4-33.2-91.9c2.1,1.4,4.1,2.9,6.1,4.6C318.4,77.7,325,86,330,95.4c0,0,0,0,0,0c4.8,9.1,8.2,19.4,9.8,30.3
							c0,0.1,0,0.2,0,0.2c0.6,4.2,1,8.6,1,13C340.9,139.4,340.9,139.7,340.9,140.1z"/>
					</g>
					<path class="st2" d="M340.6,133c-2,2-4.5,3.6-7.4,4.2c-8.1,2-16.4-3.7-20.3-11c-3.9-7.3-2.7-17.4-3.1-25.7
						c-1.8,13.3-10.7,24.4-22,31.9c8.5-8.8,11.4-23.4,9.4-35.4c-0.6,2.7-1.7,5.5-3.1,8.3c-8.7,17.3-26.8,27.8-46.2,27.7
						c-9.6-0.1-18.9-0.1-21.6-0.1c10.6-5.4,16.5-16.6,21.9-27.2c-12,14-27.8,24.6-45.2,30.4c-3.6,1.2-7.7,0.5-10.4-2.2l-0.1-0.1
						c0,0,0-0.1,0-0.1c0.2-2.6,0.4-5.2,0.9-7.7c1.7-11.9,5.5-22.9,11-32.6c1.4-2.4,2.8-4.8,4.4-7c5.3-7.6,11.7-14.1,18.9-19.1
						c0.5-0.4,1.1-0.8,1.6-1.1c0.6-0.4,1.3-0.9,1.9-1.3c2.6-1.6,5.2-3,7.9-4.2c7.9-3.6,16.5-5.7,25.5-6c0-0.1,0.1-0.1,0.1,0v-0.1
						c0.4,0,0.9,0,1.4,0h0.4c1.1,0,2.4,0,3.5,0.1c1.5,0.1,2.9,0.2,4.4,0.4c0.8,0.1,1.6,0.2,2.3,0.3c0.6,0.1,1.2,0.2,1.9,0.3
						c5.1,1,10,2.5,14.8,4.7c3.6,1.6,7.1,3.5,10.5,5.8c0.2,0.1,0.3,0.2,0.5,0.3c2.1,1.4,4.1,2.9,6.1,4.6
						c7.4,6.2,13.6,13.9,18.6,22.7v0c0.3,0.5,0.6,1,0.9,1.5c0,0,0,0.1,0,0.1c4.8,9.1,8.2,19.3,9.8,30.3c0,0.1,0,0.1,0,0.2
						C340.2,128.2,340.5,130.6,340.6,133C340.7,132.9,340.6,133,340.6,133z"/>
					<path class="st2" d="M319.6,115.1c11.6,15,18.2,33.8,18.5,52.7s-5.7,37.9-16.9,53.3c14.4-13.6,23.7-28.9,25.7-48.6
						s-3.2-40.1-14.5-56.3c-1.5-2.1-3.1-4.2-5.6-5C324.4,110.2,320,112.5,319.6,115.1z"/>
				</g>
				<g>
					<g>
						<g>
							<path class="st2" d="M281.5,149c2.3-3.1,5.7-5,9-6.2c3.4-1.2,6.9-1.8,10.4-1.9c3.5-0.1,7,0.4,10.4,1.4
								c3.4,1.1,6.7,2.5,9.5,5.2c-3.7,1-6.9,1.5-10.2,1.9c-3.2,0.4-6.4,0.5-9.6,0.6s-6.3,0-9.5-0.1
								C288.4,149.6,285.2,149.4,281.5,149z"/>
						</g>
						<g>
							<path class="st2" d="M251.5,149c-2.3-3.1-5.7-5-9-6.2c-3.4-1.2-6.9-1.8-10.4-1.9c-3.5-0.1-7,0.4-10.4,1.4
								c-3.4,1.1-6.7,2.5-9.6,5.2c3.7,1,6.9,1.5,10.2,1.9c3.2,0.4,6.4,0.5,9.6,0.6s6.3,0,9.5-0.1C244.6,149.6,247.7,149.4,251.5,149
								z"/>
						</g>
					</g>
					<g>
						<g>
							<g>
								<g>
									<g>
										<g>
											<g>
												<path class="st2" d="M280.7,177.3c4-5.1,8.2-10.6,14.7-12.8c6.5-2.3,13.7,0.2,18.5,4.8c-0.3-0.2,4.4,3.2,4.4,3.2
													l-0.3-0.1c0.9,0,2-0.7,2.8-1.2c0.9-0.6,1.8-1.2,2.6-2c0.1-0.1,0.2-0.1,0.3,0c0.1,0.1,0.1,0.2,0,0.3
													c-1.7,1.6-3.4,3.4-5.7,3.9c-0.1,0-0.2,0-0.3-0.1l-4.5-3.1l0,0c-4.6-4.3-11.3-6.6-17.4-4.6c-6.2,1.9-10.5,7.2-14.7,12
													C280.9,177.8,280.5,177.5,280.7,177.3L280.7,177.3z"/>
											</g>
											<path class="st2" d="M293.3,170.6c0.2-3.5,3.3-6.1,6.7-5.8s6.1,3.3,5.8,6.7s-3.3,6.1-6.7,5.8S293.1,174.1,293.3,170.6z"
												/>
											<path class="st4" d="M311.8,176.4c2.3-0.5,4.5-1.6,6.4-3"/>
										</g>
									</g>
								</g>
							</g>
							<path class="st4" d="M281,169.5c2.9-5.2,8-9.1,13.8-10.5"/>
						</g>
						<g>
							<g>
								<g>
									<g>
										<g>
											<g>
												<path class="st2" d="M251.9,177.5c-4.2-4.8-8.4-10.1-14.7-12c-6.1-2.1-12.8,0.3-17.4,4.6c0,0,0,0-0.1,0.1l-4.5,3.1
													c-0.1,0.1-0.2,0.1-0.3,0.1c-2.4-0.5-4.1-2.3-5.7-3.9c-0.1-0.1-0.1-0.2,0-0.3c0.1-0.1,0.2-0.1,0.3,0
													c0.8,0.7,1.7,1.4,2.6,2c0.8,0.5,1.9,1.1,2.8,1.2l-0.3,0.1l4.4-3.2c2.1-2,5.4-4.1,8.5-4.9c6.6-2.1,13.6,0.8,18.3,5.5
													c2.4,2.3,4.3,5,6.3,7.5C252.4,177.5,252.1,177.8,251.9,177.5L251.9,177.5z"/>
											</g>
											<path class="st2" d="M239.6,170.6c-0.2-3.5-3.3-6.1-6.7-5.8s-6.1,3.3-5.8,6.7s3.3,6.1,6.7,5.8S239.9,174.1,239.6,170.6z"
												/>
											<path class="st4" d="M221.1,176.4c-2.3-0.5-4.5-1.6-6.4-3"/>
										</g>
									</g>
								</g>
							</g>
							<path class="st4" d="M252,169.5c-2.9-5.2-8-9.1-13.8-10.5"/>
						</g>
					</g>
					<g>
						<g>
							<path class="st2" d="M266.9,232.9c3.1-0.1,6.1-0.5,9.2-0.9c0.7-0.1,10.5-1.2,10.5-1.9l-0.3-2.1c-2.3,0.1-4.6-1.3-6.3-2.6
								l-0.8-0.6c-1.8-1.5-3.7-3-6-3.7c-2.3-0.7-5.4-0.3-7.1,1.5c-1.7-1.9-4.8-2.2-7.1-1.5c-2.3,0.7-4.2,2.3-6,3.7l-0.7,0.6
								c-1.7,1.3-4,2.7-6.3,2.6l-0.3,2.1c3.9,1.5,9,2,13.2,2.5C261.6,232.9,264.2,233,266.9,232.9z"/>
							<g>
								<path class="st5" d="M283.3,229.8c2.2-0.4,4.5-1.1,6.6-2.1"/>
								<path class="st5" d="M249.7,229.8c-2.2-0.4-4.5-1.1-6.6-2.1"/>
							</g>
						</g>
						<path class="st4" d="M255,238.6c7.4,1.8,15.2,1.9,22.7,0.6"/>
					</g>
					<g>
						<path class="st6" d="M258.5,205.1c4.3,3.9,11.4,4.3,16,0.8"/>
						<line class="st4" x1="266.5" y1="169.4" x2="266.5" y2="195.3"/>
					</g>
				</g>
			</g>
			<g>
				<g>
					<path class="st2" d="M113.9,450.5c27.7,12.5,53.1,16.4,56.6,8.6s-16.2-24.2-43.9-36.7C98.8,409.8,73.5,406,70,413.7
						S86.2,438,113.9,450.5z"/>
					<path class="st3" d="M48,540.9c0.1-0.3,0.2-0.7,0.3-1l37-105.6l8.1-23l16.3-46.5c5.2-14.8,16.1-25.6,28.7-30
						c4.1-1.4,8.3-2.2,12.5-2.2c3.9,0,7.8,0.6,11.6,2c21.8,7.6,31.6,35,21.3,59.6l-21.2,50.4l-7.7,18.3l-6.2,14.9l-26.6,63.1"/>
					<path class="st2" d="M70.6,412.8c5.1-6.5,29.4-2.4,56,9.5c27.8,12.5,47.4,29,43.9,36.8c-0.1,0.2-0.2,0.3-0.3,0.5l0.3,0.1
						l30.7-71.9c12-28.2-1-60.4-28.3-69.9c-5.2-1.8-10.4-2.7-15.7-2.7c-18.7,0-36.7,11.1-45.9,29.1L70.6,412.8z"/>
				</g>
				<g>
					<path class="st2" d="M413.7,450.5c-27.8,12.5-53.1,16.4-56.6,8.6s16.2-24.2,43.9-36.7c27.8-12.5,53.1-16.4,56.6-8.6
						S441.5,438,413.7,450.5z"/>
					<path class="st3" d="M405.6,540.9l-28.2-67l-4.6-11.1l-7.7-18.3l-5.1-12.1l-8.6-20.6l-7.5-17.7c-10.3-24.6-0.5-51.9,21.3-59.6
						c3.8-1.3,7.7-2,11.6-2c3.5,0,6.9,0.5,10.2,1.5c13.5,3.8,25.5,15,31,30.7l16.3,46.5l8.1,23l37,105.6c0.1,0.3,0.2,0.7,0.3,1"/>
					<path class="st2" d="M457,412.8c-5.1-6.5-29.4-2.4-56,9.5c-27.8,12.5-47.4,29-43.9,36.8c0.1,0.2,0.2,0.3,0.3,0.5l-0.3,0.1
						l-30.7-71.9c-12-28.2,1-60.4,28.3-69.9c5.2-1.8,10.4-2.7,15.7-2.7c18.7,0,36.7,11.1,45.9,29.1L457,412.8z"/>
				</g>
			</g>
			<g>
				<g>
					<g>
						<path class="st2" d="M389,377.8l-8.8,41.8c1.7,3.8,3.1,7.9,4,12.1c1,4.4,1.5,8.9,1.5,13.5c0,5.5-0.7,10.9-2.1,16.1
							c-1.2,4.4-2.8,8.7-4.9,12.6c-3.4,6.6-7.9,12.5-13.4,17.4l-10.3,49.5H170l-10.3-50.9c-3.7-3.6-7-7.8-9.7-12.2
							c-3.2-5.3-5.7-11.2-7.3-17.4c-1.2-4.8-1.9-9.9-1.9-15.1c0-5.3,0.7-10.5,1.9-15.4c0.8-3.1,1.8-6.1,3-9l-8.7-43
							c-3.7-15.9-3-31.4,2.6-43.1c4.6-9.7,12.6-16.7,24.2-19.2c2.9-0.6,6.1-1,9.6-1h183.7c3.4,0,6.6,0.3,9.4,1
							c11,2.4,18,9.2,21.8,18.5C393.2,345.8,392.8,361.6,389,377.8z"/>
					</g>
					<g>
						<g>
							<path class="st7" d="M389,377.8c-2.4,12-6,29.6-8.5,41.9c9.7,20.2,6.3,47-8.3,64.6c-2.1,2.5-4.3,4.9-6.7,7.1
								c2.4-2.2,4.6-4.6,6.6-7.2c14.5-18,17.5-43.6,8.1-64.6C382.7,407.3,386.4,389.9,389,377.8L389,377.8z"/>
						</g>
						<g>
							<path class="st7" d="M159.7,490c-13.6-13-20.7-32.3-18.8-51.1c0.6-6,2.3-12.9,4.6-18c-2.5-12.6-6.1-30.6-8.5-43.1
								c2.6,12.4,6.3,30.4,8.9,43c-2.3,5.8-3.9,11.9-4.5,18.1C139.4,457.6,146.4,476.8,159.7,490L159.7,490z"/>
						</g>
					</g>
				</g>
				<rect x="217.2" y="299.2" class="st2" width="92.3" height="28.1"/>
				<path class="st8" d="M311,313.7c0.3,3.5,0.4,7,0.4,10.7c0,43.2-21.3,78.2-47.7,78.2s-47.7-35-47.7-78.2c0-3.1,0.1-6.1,0.3-9.1"
					/>
			</g>
		</g>
	</g>
</g>
</svg>
