<svg id="Laag_1" data-name="Laag 1" xmlns="http://www.w3.org/2000/svg" viewBox="0 0 595.28 301.46"><defs><style>.cls-1,.cls-3{fill:#0d0802;}.cls-2{fill:#e55;}.cls-3{stroke:#000;stroke-miterlimit:10;stroke-width:2.52px;}</style></defs><path class="cls-1" d="M274.87,84.88h22v48.25h29.49v17.08H274.87Z"/><path class="cls-1" d="M332.46,84.88h22v65.33h-22Z"/><path class="cls-1" d="M365.12,84.88h22v65.33h-22Z"/><path class="cls-1" d="M462.18,84.88v65.33h-18.1l-24.83-29.68v29.68H397.78V84.88h18.11l24.83,29.68V84.88Z"/><path class="cls-1" d="M499.42,128.56l-4.95,5.5v16.15H472.82V84.88h21.65v23.7l21.47-23.7h24l-26.13,28.74,27.44,36.59H515.75Z"/><path class="cls-2" d="M81.53,45.9a50,50,0,0,0-9.45,3.75C57.47,57.27,17.54,83,17.54,136.31c0,0-2.83,87.89,57,119.33,1.64.86,3.21,1.72,4.88,2.52,8.18,3.95,40.95,20.11,104.58-.81.52-.17,1.05-.34,1.57-.49,5.94-1.71,59.39-18.88,61.45-83.58,0,0,3.2-67.13-42.09-104.34-.77-.64-1.53-1.28-2.27-2C196.1,61.09,153.07,25.52,81.53,45.9Z"/><path class="cls-1" d="M274.87,192.32c0-6.4,4.74-10.94,11.35-10.94,3.84,0,7,1.58,8.74,4.58l-2.95,1.9a6.71,6.71,0,0,0-5.83-3.08,7.13,7.13,0,0,0-7.38,7.54c0,4.66,3.16,7.57,7.38,7.57a6.68,6.68,0,0,0,5.83-3.08l2.95,1.87c-1.7,3-4.9,4.61-8.74,4.61C279.61,203.29,274.87,198.72,274.87,192.32Z"/><path class="cls-1" d="M311.53,181.38v3.77a7,7,0,0,0-.89,0c-4.18,0-6.77,2.55-6.77,7.25v10.69H300V181.58h3.73v3.61C305.09,182.68,307.76,181.38,311.53,181.38Z"/><path class="cls-1" d="M335.42,193.61H318c.48,3.77,3.52,6.28,7.77,6.28a8,8,0,0,0,6.2-2.59l2.15,2.51a10.78,10.78,0,0,1-8.47,3.48c-6.92,0-11.54-4.57-11.54-11a10.51,10.51,0,0,1,10.77-10.94c6.2,0,10.62,4.46,10.62,11.06A9.81,9.81,0,0,1,335.42,193.61ZM318,190.82h13.77a6.93,6.93,0,0,0-13.77,0Z"/><path class="cls-1" d="M357.29,190.09v13h-3.68v-2.83c-1.3,1.94-3.69,3.07-7.05,3.07-4.86,0-7.94-2.59-7.94-6.31,0-3.45,2.23-6.28,8.63-6.28h6.15v-.77c0-3.28-1.9-5.19-5.75-5.19a10.89,10.89,0,0,0-6.8,2.31l-1.62-2.91a14.24,14.24,0,0,1,8.87-2.76C354,181.38,357.29,184.22,357.29,190.09Zm-3.89,6.4v-3h-6c-3.85,0-4.94,1.5-4.94,3.32,0,2.15,1.78,3.49,4.74,3.49S352.43,199,353.4,196.49Z"/><path class="cls-1" d="M376.57,201.8a7.36,7.36,0,0,1-4.7,1.49c-4.33,0-6.81-2.38-6.81-6.72V184.78h-3.64v-3.2h3.64v-4.69H369v4.69h6.16v3.2H369v11.63c0,2.31,1.22,3.6,3.36,3.6a4.88,4.88,0,0,0,3-1Z"/><path class="cls-1" d="M380.57,174.94a2.56,2.56,0,0,1,2.64-2.55,2.53,2.53,0,1,1-2.64,2.55Zm.69,6.64h3.89v21.47h-3.89Z"/><path class="cls-1" d="M411.56,181.58l-9.4,21.47h-4l-9.4-21.47h4.06l7.37,17.22,7.53-17.22Z"/><path class="cls-1" d="M433.91,193.61H416.49c.49,3.77,3.53,6.28,7.78,6.28a8,8,0,0,0,6.2-2.59l2.15,2.51a10.79,10.79,0,0,1-8.47,3.48c-6.93,0-11.54-4.57-11.54-11a10.51,10.51,0,0,1,10.77-10.94c6.2,0,10.61,4.46,10.61,11.06C434,192.76,434,193.25,433.91,193.61Zm-17.42-2.79h13.78a6.93,6.93,0,0,0-13.78,0Z"/><path class="cls-1" d="M447.55,200.78l1.63-3.07a13.81,13.81,0,0,0,7.53,2.22c3.6,0,5.1-1.09,5.1-2.91,0-4.82-13.57-.65-13.57-9.2,0-3.85,3.45-6.44,8.95-6.44a15.56,15.56,0,0,1,7.82,2l-1.66,3.08a11.18,11.18,0,0,0-6.2-1.71c-3.4,0-5.06,1.26-5.06,3,0,5.06,13.61.93,13.61,9.28,0,3.88-3.56,6.35-9.28,6.35C452.86,203.29,449.34,202.2,447.55,200.78Z"/><path class="cls-1" d="M482.63,201.8a7.36,7.36,0,0,1-4.7,1.49c-4.33,0-6.8-2.38-6.8-6.72V184.78h-3.65v-3.2h3.65v-4.69H475v4.69h6.16v3.2H475v11.63c0,2.31,1.22,3.6,3.37,3.6a4.87,4.87,0,0,0,3-1Z"/><path class="cls-1" d="M507.33,181.58v21.47h-3.68v-3.24a8.74,8.74,0,0,1-7.29,3.48c-5.55,0-9.24-3-9.24-9.35V181.58H491v11.91c0,4.22,2.11,6.32,5.79,6.32,4.05,0,6.65-2.51,6.65-7.13v-11.1Z"/><path class="cls-1" d="M535,173v30.05h-3.72v-3.4a9.07,9.07,0,0,1-7.66,3.64c-6.28,0-10.85-4.41-10.85-11s4.57-10.94,10.85-10.94a9.18,9.18,0,0,1,7.5,3.44V173Zm-3.84,19.32c0-4.58-3.12-7.54-7.21-7.54s-7.25,3-7.25,7.54,3.11,7.57,7.25,7.57S531.15,196.9,531.15,192.32Z"/><path class="cls-1" d="M541.67,174.94a2.56,2.56,0,0,1,2.64-2.55,2.53,2.53,0,1,1-2.64,2.55Zm.69,6.64h3.89v21.47h-3.89Z"/><path class="cls-1" d="M551.68,192.32c0-6.4,4.73-10.94,11.17-10.94S574,185.92,574,192.32s-4.7,11-11.14,11S551.68,198.72,551.68,192.32Zm18.38,0c0-4.58-3.07-7.54-7.21-7.54s-7.24,3-7.24,7.54,3.11,7.57,7.24,7.57S570.06,196.9,570.06,192.32Z"/><path id="path4887" class="cls-1" d="M149.35,194c.1,0,.05,1.18-1.48,5a43.71,43.71,0,0,1-5.4,9.91,30.34,30.34,0,0,1-1.95,2.35,23,23,0,0,1-2.3,2.18,16.2,16.2,0,0,1-5.42,3,13.27,13.27,0,0,1-6.67.3,19.63,19.63,0,0,1-7.53-3.49,17.59,17.59,0,0,1-3.91-4.08,36.14,36.14,0,0,1-3.31-5.82A92.33,92.33,0,0,1,106,187.5c-1.52-6-2.85-12.75-4-20-1.12-7.05-2.06-14.53-2.85-22.16-1.52-14.82-2.43-29.91-2.88-42.66C96.08,96.45,96,90.84,96,86.22c0-2.3,0-4.36,0-6.14s.09-3.28.17-4.48c.28-4.49.79-10.59,1.76-17.14a119.64,119.64,0,0,1,4.58-20.15,59,59,0,0,1,3.92-9.25A33,33,0,0,1,112,21.35a20.2,20.2,0,0,1,7.83-5,18.66,18.66,0,0,1,9.86-.51A13,13,0,0,1,135,18.2a13.53,13.53,0,0,1,3.65,4.29,18.51,18.51,0,0,1,1.3,3.05c.23.73.43,1.48.59,2.24a32.66,32.66,0,0,1,.61,5.91,64.08,64.08,0,0,1-1.44,13.39,132.81,132.81,0,0,1-4,14.86,211.54,211.54,0,0,1-12.33,29.45c-2.28,4.47-4.58,8.53-6.75,12-1.1,1.74-2.17,3.32-3.19,4.71a43.89,43.89,0,0,1-2.94,3.64c-3.58,3.89-8.51,9.55-13.2,14.89-5.59,6.37-10.7,12.11-15.75,17.48-2.83,3-5.37,5.62-7.69,7.9-2.75,2.71-5,4.77-6.88,6.41-1.6,1.39-2.84,2.4-3.82,3.19l-1.56,1.27-1.92,1.56a5.27,5.27,0,0,1-1.71,1,4.41,4.41,0,0,0,2.21.47,7.67,7.67,0,0,0,2.82-.7,13.38,13.38,0,0,0,2-1.08,30.79,30.79,0,0,0,4.16-3.3,90.69,90.69,0,0,0,6.7-7q3.24-3.71,7.09-8.58c4.46-5.67,9.24-12.16,14-18.92,4.29-6,8.18-11.72,11.34-16.37.7-1,1.47-2.3,2.3-3.74s1.69-3,2.59-4.83c1.79-3.51,3.7-7.64,5.62-12.15A233.14,233.14,0,0,0,129.1,60a132.55,132.55,0,0,0,3.08-14.22A58.37,58.37,0,0,0,132.93,34a22.88,22.88,0,0,0-.61-4.34,13.4,13.4,0,0,0-.41-1.38,9.51,9.51,0,0,0-.72-1.56,5,5,0,0,0-1.38-1.56,4.49,4.49,0,0,0-1.87-.76,10.11,10.11,0,0,0-5.34.27,11.6,11.6,0,0,0-4.46,2.89A25.38,25.38,0,0,0,114,33.19a53.18,53.18,0,0,0-3.5,7.88,118.6,118.6,0,0,0-4.73,18.67c-1.12,6.26-1.84,12.11-2.35,16.51-.13,1-.24,2.4-.34,4.1s-.17,3.69-.23,5.94c-.11,4.54-.15,10.06-.07,16.22.16,12.63.77,27.61,2,42.3.63,7.56,1.41,15,2.36,21.93,1,7.18,2.12,13.81,3.45,19.67a91.12,91.12,0,0,0,4.64,15.28,33.49,33.49,0,0,0,2.74,5.29,14.42,14.42,0,0,0,2.89,3.37,17.34,17.34,0,0,0,6,3.31,10.58,10.58,0,0,0,5.21.18,13.24,13.24,0,0,0,4.75-2.19,19.7,19.7,0,0,0,2.2-1.82,27.15,27.15,0,0,0,2-2.06,50,50,0,0,0,6-9.14c1.88-3.61,2.29-4.65,2.38-4.62Z"/><path id="path4889" class="cls-1" d="M110.9,147.93a1.7,1.7,0,0,0,1.16-1.92,12.44,12.44,0,0,0-.23-1.7c-.23-1.24-.88-4.21-1.17-6.77a23.15,23.15,0,0,1-.15-3.42,11.72,11.72,0,0,1,.15-1.5,7.06,7.06,0,0,1,.34-1.3,4.41,4.41,0,0,1,.58-1.07,3.44,3.44,0,0,1,.91-.82,3.83,3.83,0,0,1,1.35-.48,6.17,6.17,0,0,1,1.83,0,2.82,2.82,0,0,1,1,.37,4.14,4.14,0,0,1,1,.81,6.49,6.49,0,0,1,.84,1.18,12.68,12.68,0,0,1,.74,1.52,26.09,26.09,0,0,1,1.19,3.91c.34,1.48.64,3.13.89,4.91.51,3.54.87,7.59,1.18,11.89s.55,8.8.83,13.22.59,8.81,1,12.78A76.65,76.65,0,0,0,126.1,190a24,24,0,0,0,1.22,3.68,8,8,0,0,0,1.31,2.18,2.14,2.14,0,0,0,.52.43.67.67,0,0,0,.32.11.7.7,0,0,0,.24,0l.19,0a1.16,1.16,0,0,0,.26-.24,3.19,3.19,0,0,0,.38-.59,8.67,8.67,0,0,0,.7-2.3c0-.14,0-.29.07-.44a30.47,30.47,0,0,0,.28-4.62c0-1.8-.1-3.82-.28-6-.36-4.42-1-9.44-1.73-15-.7-5.4-1.49-11.28-2.09-17.14a169.56,169.56,0,0,1-1-17.44,69.78,69.78,0,0,1,1.64-16,37,37,0,0,1,2.4-7,25.55,25.55,0,0,1,3.89-6A21.12,21.12,0,0,1,140,98.93a23.56,23.56,0,0,1,7.3-2.55,30.48,30.48,0,0,1,13.4.22A20.73,20.73,0,0,1,166,98.86a20,20,0,0,1,4.24,3.47,26.06,26.06,0,0,1,5.37,9.38,47.86,47.86,0,0,1,2.21,11.18,107.72,107.72,0,0,1-1,23.51c-.53,3.76-1.16,7.25-1.74,10.2s-1.2,5.76-1.63,7.65c-.24,1.08-.6,2.46-1,4-.28,1-.59,2.11-.93,3.28-.2.69-.42,1.42-.64,2.18-1.2,4.08-2.71,9-4.35,14.6-3.41,11.49-7.18,24.64-10.25,37.61-1.61,6.82-3,13.31-4,19.32a139.2,139.2,0,0,0-1.93,17.18,64.89,64.89,0,0,0,.1,7.23,32.27,32.27,0,0,0,1,6,15.76,15.76,0,0,0,2,4.6,8.91,8.91,0,0,0,3.15,3,9.27,9.27,0,0,1-3.47-2.79,15.91,15.91,0,0,1-2.41-4.59,31.49,31.49,0,0,1-1.42-6.12,58.69,58.69,0,0,1-.53-7.37,129.41,129.41,0,0,1,1.14-17.53c.76-6.12,1.87-12.72,3.25-19.65,2.62-13.17,6-26.53,9-38.14,1.47-5.61,2.82-10.64,3.87-14.72.2-.76.39-1.49.56-2.18.3-1.17.56-2.25.8-3.24.36-1.53.63-2.8.78-3.74.33-2,.79-4.55,1.29-7.62.47-2.91,1-6.32,1.4-10a104.46,104.46,0,0,0,.55-22.13,41.35,41.35,0,0,0-2-9.59,19.35,19.35,0,0,0-4-6.9,13.51,13.51,0,0,0-2.81-2.24,13.9,13.9,0,0,0-3.55-1.46,23.85,23.85,0,0,0-10.35,0,16.5,16.5,0,0,0-5.12,1.8,14.22,14.22,0,0,0-3.75,3,18.74,18.74,0,0,0-2.79,4.36,30,30,0,0,0-1.93,5.66,64.4,64.4,0,0,0-1.48,14.42c0,5.34.35,11,.9,16.72s1.29,11.53,2,17S137.66,177,138,181.63c.16,2.35.23,4.55.2,6.58a35.87,35.87,0,0,1-.5,5.65l-.12.63A13.73,13.73,0,0,1,136,198.6a8.48,8.48,0,0,1-1.54,2,7.18,7.18,0,0,1-2.16,1.4l-.35.13a7.72,7.72,0,0,1-2.25.29,6.68,6.68,0,0,1-2.21-.43,7,7,0,0,1-1.87-1.1,8.37,8.37,0,0,1-1.41-1.51,13.73,13.73,0,0,1-1.87-3.73,31.16,31.16,0,0,1-1.15-4.53,87.52,87.52,0,0,1-1.16-11.21c-.2-4.09-.27-8.51-.29-13s0-9-.05-13.23-.12-8.3-.34-11.8c-.12-1.75-.27-3.37-.46-4.82a29.35,29.35,0,0,0-.74-3.83,12.83,12.83,0,0,0-.49-1.48,7.37,7.37,0,0,0-.58-1.16,3.8,3.8,0,0,0-.68-.82,2.59,2.59,0,0,0-.82-.5,7.53,7.53,0,0,0-1.77-.4,4.58,4.58,0,0,0-1.54.11,4,4,0,0,0-1.35.62,5,5,0,0,0-1.09,1.1,6.84,6.84,0,0,0-.83,1.45,11.57,11.57,0,0,0-.57,1.69,20,20,0,0,0-.52,3.82,31.69,31.69,0,0,0,.54,7.35,8.73,8.73,0,0,0,.51,1.74c.63,1.46,1.69,1.28,1.92,1.22Z"/><line class="cls-3" x1="274.87" y1="162.93" x2="573.91" y2="162.93"/><path class="cls-2" d="M556.15,126.39a6,6,0,0,0-1,.4,10.51,10.51,0,0,0-5.85,9.3s-.31,9.44,6.11,12.81l.52.27c.88.42,4.4,2.16,11.23-.09l.17-.05a9.38,9.38,0,0,0,6.59-9s.34-7.2-4.52-11.2l-.24-.2C568.44,128,563.82,124.2,556.15,126.39Z"/></svg>