<svg id="Laag_1" data-name="Laag 1" xmlns="http://www.w3.org/2000/svg" viewBox="0 0 176.11 159.09"><defs><style>.cls-1{fill:#e55;}</style></defs><path class="cls-1" d="M145.64,84v1.22a7.37,7.37,0,0,0-.32,1.29c-.15,1.86-.2,3.74-.38,5.6a53.75,53.75,0,0,1-8.17,24.19c-7.29,11.35-17.53,18.85-30.31,23.06a130.76,130.76,0,0,1-33.29,6.8,78.26,78.26,0,0,1-17-.8A59.69,59.69,0,0,1,25,130.6c-8-7.22-13.43-16.27-17.3-26.26A109.67,109.67,0,0,1,1,75.21C.23,67.58-.13,60,1.3,52.38c4-21.4,16.84-36,36.08-45.06,8.47-4,17.92-4.81,27.24-5.23a79.3,79.3,0,0,1,24.47,2.7C107,9.62,121.33,19.53,131.54,35c9.4,14.24,13.14,30.28,13.78,47.15A13.56,13.56,0,0,0,145.64,84Z"/><path d="M172.9,159.09H116.18c-2.39-1-3.17-2.89-3.07-5.42.13-3.34,0-6.7,0-10,0-.4,0-.8,0-1.25H93.54c-1.58,0-2.26-.71-2.17-2.19a7.92,7.92,0,0,1,6.92-7.34c1-.12,2.08-.13,3.18-.19.37-3.53.72-7,1.1-10.58h-1.48q-16.55,0-33.1,0c-4.73,0-7.61-2.88-7.62-7.58V64.77a6.61,6.61,0,0,1,3.81-6.41,10,10,0,0,1,4.14-.83c12.88-.06,25.76,0,38.64-.05.42,0,1.05,0,1.24-.26a34.36,34.36,0,0,0,1.79-3c-2.34-.29-2.27-2-2.34-3.55-.22,0-.4-.05-.58-.05-8.06,0-16.12,0-24.18,0-.74,0-.93.39-1.21.9a5.45,5.45,0,1,1-6.1-7.89,5.31,5.31,0,0,1,6.1,2.73,1.45,1.45,0,0,0,1.54.91q11.64,0,23.28,0h1.14c0-.55,0-1,.09-1.44.21-1.7.7-2.13,2.4-2.13h6.1a1.73,1.73,0,0,1,2,1.71c.09.58.09,1.18.13,1.79a4.2,4.2,0,0,0,.5.07c8.1,0,16.2,0,24.29,0,.78,0,.91-.46,1.18-1a5.39,5.39,0,0,1,6.13-2.69,5.48,5.48,0,0,1,4.14,5.28,5.57,5.57,0,0,1-4.14,5.31,5.4,5.4,0,0,1-6.12-2.73,1.37,1.37,0,0,0-1.45-.87c-7.8,0-15.59,0-23.39,0-.39,0-.79,0-1.21.06.09,1.78-.06,3.3-2.23,3.58a14.09,14.09,0,0,1,1,1.8,2.25,2.25,0,0,0,2.5,1.51c12.69-.06,25.38,0,38.07,0a11.42,11.42,0,0,1,2.8.27,7,7,0,0,1,5.23,7.15q0,18.81,0,37.63v1.52c1.93-1.86,3.41-4.26,6.21-2.12,2.46-2.13,3-2.16,4.21-.27v.68l-1.69,2.09c1.18,2.19,1.08,3-.79,4.8-.77.75-1.62,1.41-2.43,2.11l.2.39a4.4,4.4,0,0,1,4.71,3.27v40.9A5.16,5.16,0,0,1,172.9,159.09ZM119.85,60.88c.33.62.51,1,.72,1.34q5.43,9.57,10.88,19.12a2.09,2.09,0,0,1-.25,2.85c-.32.32-.59.69-.89,1-1.94,2.29-3.89,4.57-5.88,6.91a5,5,0,0,1,1.47,4.18c-.06,2.37,0,4.74,0,7.11v1.19h36.39V65.47c0-3.28-1.3-4.58-4.58-4.58H119.85ZM106.1,61c-.46,0-.78-.08-1.11-.08h-37c-2.83,0-4.18,1.41-4.18,4.28v39.44h36.37c0-2.66,0-5.26,0-7.85,0-1.71-.06-3.4,1.46-4.62L95,84.38c-1.15-1.34-1.18-1.66-.31-3.19l10.81-19C105.66,61.8,105.85,61.44,106.1,61Zm23,94.73h1.31q20.26,0,40.55,0c1.72,0,1.72,0,1.72-1.78V117c0-.23,0-.46,0-.68.07-.84-.35-1.15-1.15-1.13a24.5,24.5,0,0,1-2.71,0,2.35,2.35,0,0,0-2,.82c-4.9,5-9.83,9.86-14.76,14.79a11.41,11.41,0,0,1-7.15,3.49c-2.07.2-3.26-1.14-2.91-3.21a12.18,12.18,0,0,1,3.48-6.82c2.69-2.68,5.38-5.38,8.06-8.07.25-.25.49-.52.85-.9H129.09Zm32.42-47.53H63.84a1.67,1.67,0,0,0-.07.31c0,2,0,3.92,0,5.87,0,3,1.32,4.33,4.34,4.33h45.06c0-1.07,0-2,0-2.94a4,4,0,0,1,4-3.94c.41,0,.83,0,1.24,0H156.8c.44,0,1,0,1.29-.2C159.24,110.53,160.31,109.38,161.51,108.17ZM114.82,59.09a1.92,1.92,0,0,0-.14.42c0,4.79,0,9.57,0,14.35a1.55,1.55,0,0,0,.76,1,5.52,5.52,0,1,1-7.79,6.39,5.42,5.42,0,0,1,2.78-6.3,1.41,1.41,0,0,0,.84-1.5c0-4.36,0-8.73,0-13.1,0-.35,0-.71-.08-1.3-.24.35-.36.48-.44.62q-6.3,11.09-12.62,22.17a.92.92,0,0,0,.2,1.26c2.11,2.46,4.18,4.95,6.33,7.36a2.46,2.46,0,0,0,1.61.73c4.48.05,9,0,13.44.05a2,2,0,0,0,1.71-.83c2-2.4,4-4.79,6.09-7.13a1.25,1.25,0,0,0,.16-1.74Q121.51,70.79,115.4,60C115.24,59.72,115.06,59.46,114.82,59.09Zm10.77,56.09c-2.5,0-4.93,0-7.37,0-1.66,0-1.69,0-1.69,1.71v37a2.81,2.81,0,0,0,0,1c.12.29.44.71.68.72,2.77.05,5.54,0,8.33,0Zm-12.68-10.49c2.82,0,5.64,0,8.46,0,.81,0,1.15-.22,1.14-1.09q-.06-3.89,0-7.79c0-.87-.3-1.2-1.18-1.2q-8.35,0-16.71,0c-.81,0-1.13.29-1.12,1.13,0,2.6,0,5.2,0,7.79,0,.91.28,1.18,1.16,1.16C107.41,104.66,110.16,104.69,112.91,104.69ZM106,122.12l-1.1,10.53h8.18V122.12Zm44.42,5.15,20.78-20.79-1.3-1.36-20.8,20.76ZM95.16,138.9H113v-2.78H100.85a14.57,14.57,0,0,0-2.47.15A4.19,4.19,0,0,0,95.16,138.9Zm17.81-57a2.09,2.09,0,0,0,2.11-2,2.09,2.09,0,1,0-4.17-.17A2.09,2.09,0,0,0,113,81.93ZM74.84,48.73a2,2,0,0,0,2,2.17A2,2,0,0,0,78.94,49a2.06,2.06,0,1,0-4.1-.3Zm76.33.11a2.12,2.12,0,0,0-2.12-2.06,2.08,2.08,0,0,0-2,2.14,2,2,0,0,0,2,2A2.07,2.07,0,0,0,151.17,48.84ZM114.8,47.09h-3.56v3.54h3.56Zm30.79,83.39.24.23,2.13-1-1.34-1.48Z"/><path d="M119.29,147.72c0-.75,0-1.5,0-2.25a1.5,1.5,0,0,1,1.58-1.55,1.47,1.47,0,0,1,1.7,1.42,45.78,45.78,0,0,1,0,4.83,1.46,1.46,0,0,1-1.69,1.43,1.49,1.49,0,0,1-1.61-1.52C119.26,149.29,119.29,148.51,119.29,147.72Z"/><path d="M119.29,123.1c0-.79,0-1.58,0-2.36a1.5,1.5,0,0,1,1.53-1.5,1.47,1.47,0,0,1,1.74,1.38,45,45,0,0,1,0,4.93,1.46,1.46,0,0,1-1.73,1.38,1.48,1.48,0,0,1-1.55-1.47C119.26,124.68,119.29,123.89,119.29,123.1Z"/><path d="M122.55,138.88a1.58,1.58,0,0,1-1.59,1.67,1.69,1.69,0,0,1,0-3.37A1.57,1.57,0,0,1,122.55,138.88Z"/><path d="M121,130.34a1.54,1.54,0,0,1,1.55,1.69,1.57,1.57,0,0,1-1.61,1.66,1.6,1.6,0,0,1-1.61-1.77A1.55,1.55,0,0,1,121,130.34Z"/></svg>