<?xml version="1.0" encoding="utf-8"?>
<!-- Generator: Adobe Illustrator 26.0.3, SVG Export Plug-In . SVG Version: 6.00 Build 0)  -->
<svg version="1.1" id="Laag_1" xmlns="http://www.w3.org/2000/svg" xmlns:xlink="http://www.w3.org/1999/xlink" x="0px" y="0px"
	 viewBox="0 0 541 538" style="enable-background:new 0 0 541 538;" xml:space="preserve">
<style type="text/css">
	.st0{fill:#EE5555;}
	.st1{fill:none;stroke:#FFFFFF;stroke-width:0.4412;stroke-linecap:round;stroke-linejoin:round;stroke-miterlimit:10;}
	.st2{clip-path:url(#SVGID_00000155147827929471775400000015624875665945910677_);}
	.st3{fill:#2E2E2E;}
	.st4{fill:none;stroke:#2E2E2E;stroke-width:0.4623;stroke-linecap:round;stroke-linejoin:round;stroke-miterlimit:10;}
	.st5{fill:#F5F5FF;}
	.st6{fill:#F5F5FF;stroke:#2E2E2E;stroke-width:0.5;stroke-miterlimit:10;}
	.st7{fill:none;stroke:#2E2E2E;stroke-width:0.5;stroke-linecap:round;stroke-linejoin:round;stroke-miterlimit:10;}
	.st8{fill:none;stroke:#2E2E2E;stroke-width:0.4822;stroke-linecap:round;stroke-linejoin:round;stroke-miterlimit:10;}
	.st9{fill:#F5F5FF;stroke:#2E2E2E;stroke-width:0.5;stroke-linecap:round;stroke-linejoin:round;stroke-miterlimit:10;}
	.st10{fill:#2E2E2E;stroke:#2E2E2E;stroke-width:0.5778;stroke-linecap:round;stroke-linejoin:round;stroke-miterlimit:10;}
</style>
<path class="st0" d="M150.98,16.64c-7.71,2.18-15.19,5.11-22.29,8.8C94.24,43.33,0.05,103.69,0.05,228.78
	c0,0-6.67,206.22,134.33,280c3.87,2.03,7.57,4.04,11.52,5.93c19.28,9.25,96.59,47.17,246.66-1.91c1.22-0.4,2.46-0.8,3.7-1.15
	c13.99-4.01,140.08-44.3,144.93-196.11c0,0,7.54-157.51-99.28-244.84c-1.82-1.48-3.61-2.98-5.35-4.56
	C421.21,52.29,319.73-31.19,150.98,16.64z"/>
<g>
	<defs>
		<path id="SVGID_1_" d="M151.13,16.64c-7.71,2.18-15.19,5.11-22.29,8.8C94.4,43.33,0.21,103.69,0.21,228.78
			c0,0-6.67,206.22,134.33,280c3.87,2.03,7.57,4.04,11.52,5.93c19.28,9.25,96.59,47.17,246.66-1.91c1.22-0.4,2.46-0.8,3.7-1.15
			c13.99-4.01,140.08-44.3,144.93-196.11c0,0,7.54-157.51-99.28-244.84c-1.82-1.48-3.61-2.98-5.35-4.56
			C421.37,52.29,319.88-31.19,151.13,16.64z"/>
	</defs>
	<clipPath id="SVGID_00000105423575656542230900000010369777206719897508_">
		<use xlink:href="#SVGID_1_"  style="overflow:visible;"/>
	</clipPath>
	<g style="clip-path:url(#SVGID_00000105423575656542230900000010369777206719897508_);">
		<g>
			<g>
				<path class="st3" d="M354.38,165.13c-13.07-18.97-35.7-30.16-41.14-53.68c-2.32-10.03-0.97-20.7-1.98-31.02
					c-2.44-24.97-19.5-44.56-40.85-45.78c-0.42-0.02-0.84-0.04-1.26-0.05c-1.11-0.03-2.23,0-3.34,0.07
					c-1.11-0.07-2.23-0.1-3.34-0.07c-0.42,0.01-0.84,0.03-1.26,0.05c-21.35,1.22-38.41,20.81-40.85,45.78
					c-1.01,10.33,0.34,20.99-1.98,31.02c-5.44,23.52-28.06,34.71-41.14,53.68c-12.42,18.03-15.54,44.19-7.8,65.51
					c6.05,16.66,18.32,31.58,17.13,49.63c-0.86,12.97-8.75,24.29-9.31,37.29c-0.74,17.34,13.13,32.58,27.94,33.79
					c14.8,1.22,106.43,1.22,121.23,0c14.8-1.22,28.68-16.45,27.94-33.79c-0.56-13-8.45-24.32-9.31-37.29
					c-1.19-18.05,11.08-32.97,17.13-49.63C369.92,209.32,366.81,183.15,354.38,165.13z"/>
				<g>
					<path class="st4" d="M272.4,41.93c21.31-2.4,42.84,16.44,46.88,41.04c1.83,11.13,0.47,22.89,3.39,33.7
						c6.6,24.4,32.06,35.46,41.19,58.71c5.61,14.29,4.04,31.46-1.81,45.62S346.5,246.68,336,256.5"/>
					<path class="st4" d="M291.64,117.89c33.14,35.39,52.4,87.88,51.52,140.36c-0.15,8.61-0.74,17.63,2.35,25.45
						c2.51,6.35,7.17,11.16,10.28,17.13c8.34,16.03,2.39,39.78-12.03,48"/>
				</g>
			</g>
			<g>
				<path class="st5" d="M251.06,80.81l-7.22-6.72c-7.06-6.57-1.39-15.35,10.76-16.47c4.5-0.41,8.98-0.68,12.81-0.63
					c4.7,0.06,9.43,0.32,14.08,0.77c13.04,1.27,19.42,11.06,11.55,17.48l-8.24,6.72c-3.21,2.62-8.23,4.09-13.58,3.97l-6.01-0.13
					C259.58,85.67,254.29,83.81,251.06,80.81z"/>
				<g>
					<path class="st5" d="M215.4,96.89c20.21-23.86,52.95-32.36,81.08-17.62c10.11,5.02,18.83,12.71,25.54,21.75
						c-7.03-8.71-15.77-16.2-25.91-21.02C268.01,65.67,236.19,74.12,215.4,96.89L215.4,96.89z"/>
				</g>
			</g>
		</g>
		<g>
			<path class="st6" d="M305.75,340.89c0.75,22.51-16.93,41.21-38.96,41.21c-21.59,0-38.96-17.92-38.96-39.88
				c0-0.44,0-0.92,0.03-1.33l4.33-59.5l0.54-7.66l0.95-12.98l1.77-24.01h62.67l2.79,38.35l0.65,8.38l2.08,28.71L305.75,340.89z"/>
			<path class="st3" d="M303.64,312.18c-19.75,2.42-42.03-7.08-57.12-26.36c-6.13-7.8-10.39-16.38-12.84-25.07l1.77-24.01h62.67
				l2.79,38.35l0.65,8.38L303.64,312.18z"/>
		</g>
		<g>
			<g>
				<g>
					<g>
						<g>
							<path class="st6" d="M321.39,177.09c-7.87,12.65-7.11,27.63,1.7,33.46c8.81,5.83,22.34,0.31,30.21-12.34
								c7.87-12.65,7.11-27.63-1.7-33.46C342.79,158.92,329.26,164.44,321.39,177.09z"/>
						</g>
					</g>
				</g>
				<path class="st7" d="M344.97,170.82c3.82,1.49,6.72,5.11,7.34,9.17s-1.07,8.37-4.27,10.94"/>
			</g>
			<g>
				<g>
					<g>
						<g>
							<path class="st6" d="M215.1,177.09c7.87,12.65,7.11,27.63-1.7,33.46c-8.81,5.83-22.34,0.31-30.21-12.34
								c-7.87-12.65-7.11-27.63,1.7-33.46C193.69,158.92,207.22,164.44,215.1,177.09z"/>
						</g>
					</g>
				</g>
				<path class="st7" d="M191.51,170.82c-3.82,1.49-6.72,5.11-7.34,9.17c-0.62,4.05,1.07,8.37,4.27,10.94"/>
			</g>
		</g>
		<path class="st6" d="M340.97,159.59c0,1.19,0,2.35-0.07,3.47c-0.14,3.41-0.41,6.85-0.85,10.18l-0.48,4.77l-0.2,2.59l-0.14,1.53
			l-0.2,2.21c-0.2,2.28-0.34,4.53-0.48,6.78c-0.03,0.58-0.07,1.12-0.1,1.7c-0.07,0.85-0.1,1.7-0.14,2.55
			c-0.34,5.65-0.65,11.27-1.4,16.86c0,0.1-0.03,0.2-0.03,0.27c-0.17,1.06-0.34,2.15-0.54,3.2c-0.2,1.16-0.37,2.28-0.68,3.41
			c-0.37,1.7-0.82,3.37-1.33,5.11c-0.17,0.61-0.37,1.19-0.58,1.84c-0.41,1.23-0.89,2.49-1.4,3.75c-1.33,3.3-2.93,6.51-4.73,9.71
			c-7.63,13.28-19.31,25.48-30.99,33.55c-0.03,0.1-0.14,0.14-0.17,0.14c-1.43,1.02-2.86,1.94-4.26,2.79
			c-14.27,8.72-31.13,9.2-45.91,1.67c-3.07-1.53-5.99-3.3-8.86-5.42c-0.03,0-0.1,0-0.14-0.07c-11.31-8.07-21.02-19.79-28.34-32.66
			c-0.54-0.92-1.02-1.81-1.53-2.72c-0.24-0.48-0.48-0.99-0.72-1.46c-0.41-0.78-0.78-1.63-1.23-2.49c-1.16-2.21-2.18-4.53-3.1-6.78
			c-0.24-0.65-0.54-1.26-0.75-1.91c-3.44-9.06-4.67-19.18-5.48-29.16c-0.1-0.99-0.17-2.01-0.27-3.03c0-0.54-0.07-1.09-0.1-1.63
			c-0.14-1.74-0.27-3.51-0.41-5.21l-0.41-4.67c-0.1-0.51-0.17-1.02-0.24-1.5c-0.14-0.58-0.2-1.12-0.27-1.7
			c-0.37-2.11-0.65-4.26-0.85-6.47c-0.1-0.99-0.2-2.01-0.27-3.03c-0.2-2.66-0.31-5.38-0.31-8.17c0-0.31,0-0.65,0.03-0.99
			c0-2.38,0.1-4.77,0.31-7.08c0.14-2.01,0.37-3.99,0.68-5.89c1.7-11.82,5.48-22.82,10.93-32.46c1.4-2.42,2.86-4.73,4.43-6.98
			c5.25-7.53,11.68-14,18.87-19.07c0.51-0.41,1.06-0.78,1.57-1.12c0.65-0.44,1.29-0.89,1.94-1.29c2.55-1.57,5.18-3,7.87-4.22
			c11.44-5.21,25.07-7.6,37.5-5.21c0.61,0.07,1.23,0.2,1.84,0.31c5.14,0.99,10.05,2.52,14.71,4.67c1.5,0.65,2.96,1.36,4.39,2.15
			c2.08,1.09,4.09,2.28,6.06,3.61c0.14,0.1,0.34,0.24,0.48,0.34c2.11,1.43,4.12,2.93,6.1,4.6c5.82,4.9,11,10.8,15.33,17.44
			c1.12,1.7,2.18,3.44,3.17,5.21c0.34,0.51,0.58,1.02,0.92,1.6c4.77,9.09,8.21,19.28,9.78,30.21c0,0.07,0.07,0.14,0.07,0.24
			c0.27,1.91,0.48,3.88,0.65,5.89c0.2,2.32,0.31,4.7,0.31,7.08C340.97,158.95,340.97,159.29,340.97,159.59z"/>
		<g>
			<path class="st3" d="M340.97,159.59c0,1.19,0,2.35-0.07,3.47c-0.14,3.41-0.41,6.85-0.85,10.18l-0.48,4.77l-0.2,2.59l-0.14,1.53
				l-0.2,2.21c-0.2,2.28-0.34,4.53-0.48,6.78c-0.03,0.58-0.07,1.12-0.1,1.7c-7.97-19.01-11.61-39.82-10.49-60.39
				c-5.79-10.69-14.48-18.29-25.55-23.4c-7.46-3.44-15.57-5.21-23.74-5.21c-3.92,0-7.83,0.41-11.68,1.23
				c-11.92-2.55-24.39-1.12-35.46,3.99c-11.04,5.11-19.72,12.7-25.51,23.4c1.12,20.27-2.42,40.77-10.15,59.54
				c0-0.54-0.07-1.09-0.1-1.63c-0.14-1.74-0.27-3.51-0.41-5.21l-0.41-4.67c-0.1-0.51-0.17-1.02-0.24-1.5
				c-0.14-0.58-0.2-1.12-0.27-1.7c-0.37-2.11-0.65-4.26-0.85-6.47c-0.1-0.99-0.2-2.01-0.27-3.03c-0.2-2.66-0.31-5.38-0.31-8.17
				c0-0.31,0-0.65,0.03-0.99c0-2.38,0.1-4.77,0.31-7.08c0.14-2.01,0.37-3.99,0.68-5.89c1.7-11.82,5.48-22.82,10.93-32.46
				c1.4-2.42,2.86-4.73,4.43-6.98c5.25-7.53,11.68-14,18.87-19.07c0.51-0.41,1.06-0.78,1.57-1.12c0.65-0.44,1.29-0.89,1.94-1.29
				c2.55-1.57,5.18-3,7.87-4.22c11.44-5.21,25.07-7.6,37.5-5.21c0.61,0.07,1.23,0.2,1.84,0.31c5.14,0.99,10.05,2.52,14.71,4.67
				c1.5,0.65,2.96,1.36,4.39,2.15c2.08,1.09,4.09,2.28,6.06,3.61c0.14,0.1,0.34,0.24,0.48,0.34c2.11,1.43,4.12,2.93,6.1,4.6
				c5.82,4.9,11,10.8,15.33,17.44c1.12,1.7,2.18,3.44,3.17,5.21c0.34,0.51,0.58,1.02,0.92,1.6c4.77,9.09,8.21,19.28,9.78,30.21
				c0,0.07,0.07,0.14,0.07,0.24c0.27,1.91,0.48,3.88,0.65,5.89c0.2,2.32,0.31,4.7,0.31,7.08
				C340.97,158.95,340.97,159.29,340.97,159.59z"/>
			<g>
				<g>
					<path class="st8" d="M309.2,108.3c1.35,9.75,9.44,17.99,18.7,19.05"/>
					<path class="st8" d="M306.42,102.59c0.36,8.49,3.7,16.81,9.23,22.99c5.53,6.18,13.2,10.16,21.19,11"/>
					<path class="st8" d="M306.85,107.59c0.36,8.49,3.7,16.81,9.23,22.99c5.53,6.18,13.2,10.16,21.19,11"/>
				</g>
				<g>
					<path class="st8" d="M224.78,108.3c-1.35,9.75-9.44,17.99-18.7,19.05"/>
					<path class="st8" d="M227.55,102.59c-0.36,8.49-3.7,16.81-9.23,22.99c-5.53,6.18-13.2,10.16-21.19,11"/>
					<path class="st8" d="M227.12,107.59c-0.36,8.49-3.7,16.81-9.23,22.99s-13.2,10.16-21.19,11"/>
				</g>
			</g>
		</g>
		<g>
			<g>
				<g>
					<g>
						<g>
							<g>
								<g>
									<path class="st3" d="M284.82,189.02l3.34-4.22c3.45-4.3,8.62-7.1,14.09-7.77c5.48-0.69,11.2,0.79,15.67,4.04
										c0,0,4.34,3.17,4.34,3.17s-0.29-0.09-0.29-0.09c0.9-0.03,1.97-0.69,2.79-1.18c0.92-0.59,1.83-1.24,2.64-1.97
										c0.09-0.08,0.23-0.07,0.31,0.02c0.08,0.08,0.07,0.21,0,0.29c-1.69,1.59-3.35,3.37-5.73,3.84
										c-0.11,0.01-0.21-0.03-0.29-0.09c-2.59-1.72-6.1-4.49-9.03-5.52c-8.17-3.3-18.19-0.99-23.95,5.73c0,0-3.56,4.03-3.56,4.03
										C284.99,189.51,284.63,189.24,284.82,189.02L284.82,189.02z"/>
								</g>
								<path class="st3" d="M296.81,183.23c0.25-3.45,3.25-6.05,6.7-5.8c3.45,0.25,6.05,3.25,5.8,6.7c-0.25,3.45-3.25,6.05-6.7,5.8
									C299.16,189.68,296.56,186.68,296.81,183.23z"/>
								<path class="st7" d="M315.79,188.19c2.3-0.51,4.49-1.56,6.33-3.03"/>
							</g>
						</g>
					</g>
				</g>
				<path class="st7" d="M284.82,181.67c3.47-4.8,8.95-8.09,14.82-8.9"/>
			</g>
			<g>
				<g>
					<g>
						<g>
							<g>
								<g>
									<path class="st3" d="M252.32,189.3c0,0-3.56-4.03-3.56-4.03c-3.46-3.97-8.45-6.54-13.68-7.09
										c-5.21-0.6-10.59,0.81-14.87,3.83c0,0-4.43,3.05-4.43,3.05c-0.08,0.07-0.19,0.1-0.29,0.09c-2.38-0.47-4.04-2.25-5.73-3.84
										c-0.08-0.09-0.08-0.23,0.01-0.31c0.08-0.08,0.21-0.08,0.29,0c0.81,0.73,1.71,1.38,2.64,1.97c0.81,0.49,1.89,1.15,2.79,1.18
										c0,0-0.29,0.09-0.29,0.09c2.63-1.88,6.12-4.73,9.17-5.82c6.84-2.75,15.06-1.79,20.98,2.61c2.71,1.79,5.27,5.49,7.3,7.99
										C252.81,189.23,252.51,189.51,252.32,189.3L252.32,189.3z"/>
								</g>
								<path class="st3" d="M240.66,183.23c-0.25-3.45-3.25-6.05-6.7-5.8c-3.45,0.25-6.05,3.25-5.8,6.7
									c0.25,3.45,3.25,6.05,6.7,5.8C238.31,189.68,240.91,186.68,240.66,183.23z"/>
								<path class="st7" d="M221.69,188.19c-2.3-0.51-4.49-1.56-6.33-3.03"/>
							</g>
						</g>
					</g>
				</g>
				<path class="st7" d="M252.65,181.67c-3.47-4.8-8.95-8.09-14.82-8.9"/>
			</g>
		</g>
		<g>
			<g>
				<path class="st7" d="M271.67,225.32c1.7-0.76,3.21-1.95,4.34-3.43"/>
				<path class="st7" d="M265.8,225.32c-1.7-0.76-3.21-1.95-4.34-3.43"/>
			</g>
			<line class="st6" x1="268.12" y1="195.28" x2="268.12" y2="217.67"/>
		</g>
		<g>
			<g>
				<path class="st3" d="M116.21,465.58c27.66,12.48,52.91,16.33,56.41,8.59c3.49-7.74-16.1-24.12-43.76-36.61
					c-27.66-12.48-52.91-16.33-56.41-8.59C68.96,436.71,88.55,453.1,116.21,465.58z"/>
				<path class="st6" d="M50.52,555.68c0.1-0.34,0.24-0.65,0.34-0.99l36.85-105.28l8.04-22.96l16.21-46.32
					c5.14-14.75,16.08-25.51,28.58-29.9c4.05-1.43,8.28-2.18,12.5-2.18c3.88,0,7.77,0.65,11.58,1.98
					c21.73,7.63,31.47,34.88,21.22,59.37l-21.12,50.27l-7.66,18.22l-6.23,14.85l-26.46,62.94"/>
				<path class="st3" d="M73.05,428.04c5.11-6.46,29.34-2.39,55.79,9.52c27.67,12.49,47.28,28.88,43.76,36.64
					c-0.08,0.17-0.17,0.29-0.29,0.46l0.29,0.13l30.56-71.64c11.99-28.13-0.96-60.2-28.21-69.71c-5.16-1.8-10.4-2.68-15.64-2.68
					c-18.65,0-36.55,11.07-45.73,29.01L73.05,428.04z"/>
			</g>
			<g>
				<path class="st3" d="M415.06,465.58c-27.66,12.48-52.91,16.33-56.41,8.59c-3.49-7.74,16.1-24.12,43.76-36.61
					c27.66-12.48,52.91-16.33,56.41-8.59C462.32,436.71,442.72,453.1,415.06,465.58z"/>
				<path class="st6" d="M406.92,555.68l-28.07-66.72l-4.63-11.07l-7.66-18.22l-5.07-12.06l-8.62-20.57l-7.43-17.64
					c-10.29-24.49-0.51-51.74,21.22-59.37c3.78-1.33,7.7-1.98,11.55-1.98c3.44,0,6.85,0.51,10.18,1.46
					c13.45,3.78,25.44,14.99,30.93,30.62l16.21,46.32l8.04,22.96l36.85,105.28c0.1,0.34,0.24,0.65,0.34,0.99"/>
				<path class="st3" d="M458.23,428.04c-5.11-6.46-29.34-2.39-55.79,9.52c-27.67,12.49-47.28,28.88-43.76,36.64
					c0.08,0.17,0.17,0.29,0.29,0.46l-0.29,0.13l-30.56-71.64c-11.99-28.13,0.96-60.2,28.21-69.71c5.16-1.8,10.4-2.68,15.64-2.68
					c18.65,0,36.55,11.07,45.73,29.01L458.23,428.04z"/>
			</g>
		</g>
		<g>
			<path class="st9" d="M389.23,392.62l-8.72,41.69c1.74,3.81,3.1,7.83,4.02,12.02c0.95,4.36,1.46,8.86,1.46,13.49
				c0,5.52-0.72,10.9-2.11,16.01c-1.16,4.43-2.79,8.65-4.87,12.6c-3.41,6.54-7.9,12.43-13.32,17.37l-10.25,49.35h-184.5
				l-10.25-50.75c-3.71-3.61-6.98-7.73-9.71-12.19c-3.24-5.31-5.72-11.14-7.25-17.34c-1.19-4.8-1.84-9.84-1.84-15.05
				c0-5.28,0.68-10.42,1.91-15.33c0.78-3.1,1.77-6.1,2.96-8.99l-8.65-42.88c-3.71-15.8-3-31.27,2.59-42.92
				c4.6-9.67,12.57-16.69,24.15-19.18c2.93-0.61,6.13-0.95,9.57-0.95h183.04c3.41,0,6.54,0.34,9.4,0.95
				c10.97,2.38,17.95,9.16,21.7,18.46C393.35,360.74,393.01,376.51,389.23,392.62z"/>
			<path class="st9" d="M304.51,327.4l14.52,2.18c-8.24,21.39-29.39,37.91-52.49,38.9c-24.8,1.09-48.91-15.87-57.66-38.9l20.6-2.18"
				/>
		</g>
		<g>
			<g>
				<path class="st3" d="M251.27,163.6c-2.41-3.1-5.83-4.89-9.22-6.11c-3.43-1.17-6.99-1.69-10.52-1.7c-3.53,0-7.05,0.53-10.45,1.6
					c-3.38,1.13-6.72,2.69-9.51,5.43c3.71,0.95,7,1.34,10.29,1.67c3.27,0.28,6.47,0.4,9.65,0.39c3.18,0,6.34-0.13,9.55-0.34
					C244.31,164.3,247.49,164.03,251.27,163.6z"/>
			</g>
			<g>
				<path class="st3" d="M281.84,163.6c2.41-3.1,5.83-4.89,9.22-6.11c3.43-1.17,6.99-1.69,10.52-1.7c3.53,0,7.05,0.53,10.45,1.6
					c3.38,1.13,6.72,2.69,9.51,5.43c-3.71,0.95-7,1.34-10.29,1.67c-3.27,0.28-6.47,0.4-9.65,0.39c-3.18,0-6.34-0.13-9.55-0.34
					C288.8,164.3,285.62,164.03,281.84,163.6z"/>
			</g>
		</g>
		<g>
			<g>
				<g>
					<g>
						<path class="st3" d="M285.68,202.51c0-0.14,0-0.29,0-0.43c0-0.06-0.03-0.13-0.07-0.18c-0.04-0.04-0.11-0.08-0.18-0.07
							c-0.06,0-0.13,0.02-0.18,0.07c-0.04,0.05-0.07,0.11-0.07,0.18c0,0.14,0,0.29,0,0.43c0,0.06,0.03,0.13,0.07,0.18
							c0.04,0.04,0.11,0.08,0.18,0.07c0.06,0,0.13-0.02,0.18-0.07C285.65,202.64,285.68,202.57,285.68,202.51L285.68,202.51z"/>
					</g>
				</g>
				<g>
					<g>
						<path class="st3" d="M301.88,204.49c0.32,0,0.32-0.5,0-0.5C301.56,203.99,301.56,204.49,301.88,204.49L301.88,204.49z"/>
					</g>
				</g>
				<g>
					<g>
						<path class="st3" d="M294.95,207.52c0.32,0,0.32-0.5,0-0.5C294.63,207.02,294.63,207.52,294.95,207.52L294.95,207.52z"/>
					</g>
				</g>
				<g>
					<g>
						<path class="st3" d="M296.69,200.16c0.32,0,0.32-0.5,0-0.5C296.36,199.66,296.36,200.16,296.69,200.16L296.69,200.16z"/>
					</g>
				</g>
				<g>
					<g>
						<path class="st3" d="M314.44,200.59c0.32,0,0.32-0.5,0-0.5C314.12,200.09,314.12,200.59,314.44,200.59L314.44,200.59z"/>
					</g>
				</g>
				<g>
					<g>
						<path class="st3" d="M307.51,198.43c0.32,0,0.32-0.5,0-0.5C307.19,197.93,307.19,198.43,307.51,198.43L307.51,198.43z"/>
					</g>
				</g>
				<g>
					<g>
						<path class="st3" d="M308.81,205.36c0.32,0,0.32-0.5,0-0.5C308.49,204.86,308.49,205.36,308.81,205.36L308.81,205.36z"/>
					</g>
				</g>
				<g>
					<g>
						<path class="st3" d="M280.05,209.87c0-0.14,0-0.29,0-0.43c0-0.06-0.03-0.13-0.07-0.18c-0.04-0.04-0.11-0.08-0.18-0.07
							c-0.06,0-0.13,0.02-0.18,0.07c-0.04,0.05-0.07,0.11-0.07,0.18c0,0.14,0,0.29,0,0.43c0,0.06,0.03,0.13,0.07,0.18
							c0.04,0.04,0.11,0.08,0.18,0.07c0.06,0,0.13-0.02,0.18-0.07C280.02,210,280.05,209.94,280.05,209.87L280.05,209.87z"/>
					</g>
				</g>
				<g>
					<g>
						<path class="st3" d="M280.23,203.12c-0.14,0-0.29,0-0.43,0c-0.06,0-0.13,0.03-0.18,0.07c-0.04,0.04-0.08,0.11-0.07,0.18
							c0,0.06,0.02,0.13,0.07,0.18c0.05,0.04,0.11,0.07,0.18,0.07c0.14,0,0.29,0,0.43,0c0.06,0,0.13-0.03,0.18-0.07
							c0.04-0.04,0.08-0.11,0.07-0.18c0-0.06-0.02-0.13-0.07-0.18C280.36,203.15,280.3,203.12,280.23,203.12L280.23,203.12z"/>
					</g>
				</g>
				<g>
					<g>
						<path class="st3" d="M318.34,197.99c0.32,0,0.32-0.5,0-0.5C318.01,197.49,318.01,197.99,318.34,197.99L318.34,197.99z"/>
					</g>
				</g>
				<g>
					<g>
						<path class="st3" d="M273.55,213.33c0-0.14,0-0.29,0-0.43c0-0.06-0.03-0.13-0.07-0.18c-0.04-0.04-0.11-0.08-0.18-0.07
							c-0.06,0-0.13,0.02-0.18,0.07c-0.04,0.05-0.07,0.11-0.07,0.18c0,0.14,0,0.29,0,0.43c0,0.06,0.03,0.13,0.07,0.18
							c0.04,0.04,0.11,0.08,0.18,0.07c0.06,0,0.13-0.02,0.18-0.07C273.53,213.46,273.55,213.4,273.55,213.33L273.55,213.33z"/>
					</g>
				</g>
			</g>
			<g>
				<g>
					<g>
						<path class="st3" d="M252.09,202.32c0.32,0,0.32-0.5,0-0.5C251.76,201.82,251.76,202.32,252.09,202.32L252.09,202.32z"/>
					</g>
				</g>
				<g>
					<g>
						<path class="st3" d="M253.82,208.82c0.32,0,0.32-0.5,0-0.5C253.5,208.32,253.5,208.82,253.82,208.82L253.82,208.82z"/>
					</g>
				</g>
				<g>
					<g>
						<path class="st3" d="M245.16,201.03c0.32,0,0.32-0.5,0-0.5C244.84,200.53,244.84,201.03,245.16,201.03L245.16,201.03z"/>
					</g>
				</g>
				<g>
					<g>
						<path class="st3" d="M236.07,199.73c0.32,0,0.32-0.5,0-0.5C235.74,199.23,235.74,199.73,236.07,199.73L236.07,199.73z"/>
					</g>
				</g>
				<g>
					<g>
						<path class="st3" d="M243.43,205.79c0.32,0,0.32-0.5,0-0.5C243.1,205.29,243.1,205.79,243.43,205.79L243.43,205.79z"/>
					</g>
				</g>
				<g>
					<g>
						<path class="st3" d="M228.7,200.59c0.32,0,0.32-0.5,0-0.5C228.38,200.09,228.38,200.59,228.7,200.59L228.7,200.59z"/>
					</g>
				</g>
				<g>
					<g>
						<path class="st3" d="M215.71,201.03c0.32,0,0.32-0.5,0-0.5C215.39,200.53,215.39,201.03,215.71,201.03L215.71,201.03z"/>
					</g>
				</g>
				<g>
					<g>
						<path class="st3" d="M209.22,196.7c0.32,0,0.32-0.5,0-0.5C208.9,196.2,208.9,196.7,209.22,196.7L209.22,196.7z"/>
					</g>
				</g>
				<g>
					<g>
						<path class="st3" d="M220.48,200.16c0.32,0,0.32-0.5,0-0.5C220.16,199.66,220.15,200.16,220.48,200.16L220.48,200.16z"/>
					</g>
				</g>
				<g>
					<g>
						<path class="st3" d="M234.77,204.49c0.32,0,0.32-0.5,0-0.5C234.44,203.99,234.44,204.49,234.77,204.49L234.77,204.49z"/>
					</g>
				</g>
				<g>
					<g>
						<path class="st3" d="M224.37,203.99c-0.14,0-0.29,0-0.43,0c-0.06,0-0.13,0.03-0.18,0.07c-0.04,0.04-0.08,0.11-0.07,0.18
							c0,0.06,0.02,0.13,0.07,0.18c0.05,0.04,0.11,0.07,0.18,0.07c0.14,0,0.29,0,0.43,0c0.06,0,0.13-0.03,0.18-0.07
							c0.04-0.04,0.08-0.11,0.07-0.18c0-0.06-0.02-0.13-0.07-0.18C224.5,204.02,224.44,203.99,224.37,203.99L224.37,203.99z"/>
					</g>
				</g>
				<g>
					<g>
						<path class="st3" d="M210.09,203.19c0.32,0,0.32-0.5,0-0.5C209.76,202.69,209.76,203.19,210.09,203.19L210.09,203.19z"/>
					</g>
				</g>
				<g>
					<g>
						<path class="st3" d="M217.45,207.09c0.32,0,0.32-0.5,0-0.5C217.12,206.59,217.12,207.09,217.45,207.09L217.45,207.09z"/>
					</g>
				</g>
				<g>
					<g>
						<path class="st3" d="M229.14,210.55c0.32,0,0.32-0.5,0-0.5C228.82,210.05,228.81,210.55,229.14,210.55L229.14,210.55z"/>
					</g>
				</g>
			</g>
		</g>
		<g>
			<g>
				<path class="st10" d="M288.3,247.63c-4.51,2.86-10.46,3.2-15.41,0.93c-3.3,1.45-7.19,1.41-10.49-0.03
					c-4.92,2.2-10.91,1.93-15.45-0.83c2.31,0.07,5.26-1.89,6.92-3.17l0.76-0.58c1.82-1.48,3.72-3.03,6.09-3.78
					c2.31-0.69,5.4-0.34,7.16,1.55c1.72-1.89,4.82-2.24,7.12-1.55c2.37,0.76,4.27,2.31,6.09,3.78l0.76,0.58
					C283.49,245.81,286.03,247.6,288.3,247.63z"/>
				<path class="st10" d="M246.95,247.7c-0.03,0-0.07,0-0.1,0"/>
				<path class="st10" d="M288.3,247.63c0.1,0,0.17,0,0.28,0"/>
				<path class="st10" d="M291.5,244.95c-0.93,1.07-2.03,1.96-3.2,2.68"/>
				<path class="st10" d="M246.95,247.7c-1.24-0.72-2.37-1.65-3.34-2.75"/>
			</g>
			<path class="st7" d="M256.6,257.01c7.47,1.77,15.3,1.96,22.85,0.56"/>
		</g>
	</g>
</g>
</svg>
