<?xml version="1.0" encoding="utf-8"?>
<!-- Generator: Adobe Illustrator 26.0.3, SVG Export Plug-In . SVG Version: 6.00 Build 0)  -->
<svg version="1.1" id="Laag_1" xmlns="http://www.w3.org/2000/svg" xmlns:xlink="http://www.w3.org/1999/xlink" x="0px" y="0px"
	 viewBox="0 0 541 538" style="enable-background:new 0 0 541 538;" xml:space="preserve">
<style type="text/css">
	.st0{fill:#6600FF;}
	.st1{clip-path:url(#SVGID_00000109022226841671243010000005349613369632992423_);}
	.st2{fill:#2E2E2E;}
	.st3{fill:none;stroke:#2E2E2E;stroke-width:0.4623;stroke-linecap:round;stroke-linejoin:round;stroke-miterlimit:10;}
	.st4{fill:#F5F5FF;}
	.st5{fill:#F5F5FF;stroke:#2E2E2E;stroke-width:0.5;stroke-miterlimit:10;}
	.st6{fill:none;stroke:#2E2E2E;stroke-width:0.5;stroke-linecap:round;stroke-linejoin:round;stroke-miterlimit:10;}
	.st7{fill:none;stroke:#2E2E2E;stroke-width:0.4822;stroke-linecap:round;stroke-linejoin:round;stroke-miterlimit:10;}
	.st8{fill:none;stroke:#2E2E2E;stroke-width:0.5;stroke-miterlimit:10;}
	.st9{fill:#F5F5FF;stroke:#2E2E2E;stroke-width:0.5;stroke-linecap:round;stroke-linejoin:round;stroke-miterlimit:10;}
	.st10{fill:#2E2E2E;stroke:#2E2E2E;stroke-width:0.5778;stroke-linecap:round;stroke-linejoin:round;stroke-miterlimit:10;}
</style>
<path class="st0" d="M151,16.6c-7.7,2.2-15.2,5.1-22.3,8.8C94.2,43.3,0.1,103.7,0.1,228.8c0,0-6.7,206.2,134.3,280
	c3.9,2,7.6,4,11.5,5.9c19.3,9.2,96.6,47.2,246.7-1.9c1.2-0.4,2.5-0.8,3.7-1.1c14-4,140.1-44.3,144.9-196.1c0,0,7.5-157.5-99.3-244.8
	c-1.8-1.5-3.6-3-5.4-4.6C421.2,52.3,319.7-31.2,151,16.6z"/>
<g>
	<g>
		<defs>
			<path id="SVGID_1_" d="M151.1,16.6c-7.7,2.2-15.2,5.1-22.3,8.8C94.4,43.3,0.2,103.7,0.2,228.8c0,0-6.7,206.2,134.3,280
				c3.9,2,7.6,4,11.5,5.9c19.3,9.2,96.6,47.2,246.7-1.9c1.2-0.4,2.5-0.8,3.7-1.1c14-4,140.1-44.3,144.9-196.1
				c0,0,7.5-157.5-99.3-244.8c-1.8-1.5-3.6-3-5.4-4.6C421.4,52.3,319.9-31.2,151.1,16.6z"/>
		</defs>
		<clipPath id="SVGID_00000093890042723352726540000005115080233385948604_">
			<use xlink:href="#SVGID_1_"  style="overflow:visible;"/>
		</clipPath>
		<g style="clip-path:url(#SVGID_00000093890042723352726540000005115080233385948604_);">
			<g>
				<g>
					<path class="st2" d="M354.4,165.1c-13.1-19-35.7-30.2-41.1-53.7c-2.3-10-1-20.7-2-31c-2.4-25-19.5-44.6-40.9-45.8
						c-0.4,0-0.8,0-1.3,0c-1.1,0-2.2,0-3.3,0.1c-1.1-0.1-2.2-0.1-3.3-0.1c-0.4,0-0.8,0-1.3,0c-21.4,1.2-38.4,20.8-40.9,45.8
						c-1,10.3,0.3,21-2,31c-5.4,23.5-28.1,34.7-41.1,53.7c-12.4,18-15.5,44.2-7.8,65.5c6.1,16.7,18.3,31.6,17.1,49.6
						c-0.9,13-8.8,24.3-9.3,37.3c-0.7,17.3,13.1,32.6,27.9,33.8c14.8,1.2,106.4,1.2,121.2,0s28.7-16.5,27.9-33.8
						c-0.6-13-8.5-24.3-9.3-37.3c-1.2-18,11.1-33,17.1-49.6C369.9,209.3,366.8,183.1,354.4,165.1z"/>
					<g>
						<path class="st3" d="M272.4,41.9c21.3-2.4,42.8,16.4,46.9,41c1.8,11.1,0.5,22.9,3.4,33.7c6.6,24.4,32.1,35.5,41.2,58.7
							c5.6,14.3,4,31.5-1.8,45.6s-15.6,25.7-26.1,35.5"/>
						<path class="st3" d="M291.6,117.9c33.1,35.4,52.4,87.9,51.5,140.4c-0.1,8.6-0.7,17.6,2.4,25.5c2.5,6.4,7.2,11.2,10.3,17.1
							c8.3,16,2.4,39.8-12,48"/>
					</g>
				</g>
				<g>
					<path class="st4" d="M251.1,80.8l-7.2-6.7c-7.1-6.6-1.4-15.3,10.8-16.5c4.5-0.4,9-0.7,12.8-0.6c4.7,0.1,9.4,0.3,14.1,0.8
						c13,1.3,19.4,11.1,11.5,17.5l-8.2,6.7c-3.2,2.6-8.2,4.1-13.6,4l-6-0.1C259.6,85.7,254.3,83.8,251.1,80.8z"/>
					<g>
						<path class="st4" d="M215.4,96.9c20.2-23.9,53-32.4,81.1-17.6c10.1,5,18.8,12.7,25.5,21.8c-7-8.7-15.8-16.2-25.9-21
							C268,65.7,236.2,74.1,215.4,96.9L215.4,96.9z"/>
					</g>
				</g>
			</g>
			<g>
				<path class="st5" d="M305.8,340.9c0.8,22.5-16.9,41.2-39,41.2c-21.6,0-39-17.9-39-39.9c0-0.4,0-0.9,0-1.3l4.3-59.5l0.5-7.7
					l0.9-13l1.8-24h62.7l2.8,38.3l0.6,8.4l2.1,28.7L305.8,340.9z"/>
				<path class="st2" d="M303.6,312.2c-19.8,2.4-42-7.1-57.1-26.4c-6.1-7.8-10.4-16.4-12.8-25.1l1.8-24h62.7l2.8,38.3l0.6,8.4
					L303.6,312.2z"/>
			</g>
			<g>
				<g>
					<g>
						<g>
							<g>
								<path class="st5" d="M321.4,177.1c-7.9,12.6-7.1,27.6,1.7,33.5c8.8,5.8,22.3,0.3,30.2-12.3s7.1-27.6-1.7-33.5
									C342.8,158.9,329.3,164.4,321.4,177.1z"/>
							</g>
						</g>
					</g>
					<path class="st6" d="M345,170.8c3.8,1.5,6.7,5.1,7.3,9.2s-1.1,8.4-4.3,10.9"/>
				</g>
				<g>
					<g>
						<g>
							<g>
								<path class="st5" d="M215.1,177.1c7.9,12.6,7.1,27.6-1.7,33.5c-8.8,5.8-22.3,0.3-30.2-12.3c-7.9-12.6-7.1-27.6,1.7-33.5
									C193.7,158.9,207.2,164.4,215.1,177.1z"/>
							</g>
						</g>
					</g>
					<path class="st6" d="M191.5,170.8c-3.8,1.5-6.7,5.1-7.3,9.2c-0.6,4.1,1.1,8.4,4.3,10.9"/>
				</g>
			</g>
			<path class="st5" d="M341,159.6c0,1.2,0,2.4-0.1,3.5c-0.1,3.4-0.4,6.9-0.9,10.2l-0.5,4.8l-0.2,2.6l-0.1,1.5l-0.2,2.2
				c-0.2,2.3-0.3,4.5-0.5,6.8c0,0.6-0.1,1.1-0.1,1.7c-0.1,0.9-0.1,1.7-0.1,2.6c-0.3,5.6-0.6,11.3-1.4,16.9c0,0.1,0,0.2,0,0.3
				c-0.2,1.1-0.3,2.1-0.5,3.2c-0.2,1.2-0.4,2.3-0.7,3.4c-0.4,1.7-0.8,3.4-1.3,5.1c-0.2,0.6-0.4,1.2-0.6,1.8
				c-0.4,1.2-0.9,2.5-1.4,3.8c-1.3,3.3-2.9,6.5-4.7,9.7c-7.6,13.3-19.3,25.5-31,33.6c0,0.1-0.1,0.1-0.2,0.1c-1.4,1-2.9,1.9-4.3,2.8
				c-14.3,8.7-31.1,9.2-45.9,1.7c-3.1-1.5-6-3.3-8.9-5.4c0,0-0.1,0-0.1-0.1c-11.3-8.1-21-19.8-28.3-32.7c-0.5-0.9-1-1.8-1.5-2.7
				c-0.2-0.5-0.5-1-0.7-1.5c-0.4-0.8-0.8-1.6-1.2-2.5c-1.2-2.2-2.2-4.5-3.1-6.8c-0.2-0.6-0.5-1.3-0.8-1.9
				c-3.4-9.1-4.7-19.2-5.5-29.2c-0.1-1-0.2-2-0.3-3c0-0.5-0.1-1.1-0.1-1.6c-0.1-1.7-0.3-3.5-0.4-5.2l-0.4-4.7
				c-0.1-0.5-0.2-1-0.2-1.5c-0.1-0.6-0.2-1.1-0.3-1.7c-0.4-2.1-0.6-4.3-0.9-6.5c-0.1-1-0.2-2-0.3-3c-0.2-2.7-0.3-5.4-0.3-8.2
				c0-0.3,0-0.6,0-1c0-2.4,0.1-4.8,0.3-7.1c0.1-2,0.4-4,0.7-5.9c1.7-11.8,5.5-22.8,10.9-32.5c1.4-2.4,2.9-4.7,4.4-7
				c5.2-7.5,11.7-14,18.9-19.1c0.5-0.4,1.1-0.8,1.6-1.1c0.6-0.4,1.3-0.9,1.9-1.3c2.6-1.6,5.2-3,7.9-4.2c11.4-5.2,25.1-7.6,37.5-5.2
				c0.6,0.1,1.2,0.2,1.8,0.3c5.1,1,10,2.5,14.7,4.7c1.5,0.7,3,1.4,4.4,2.2c2.1,1.1,4.1,2.3,6.1,3.6c0.1,0.1,0.3,0.2,0.5,0.3
				c2.1,1.4,4.1,2.9,6.1,4.6c5.8,4.9,11,10.8,15.3,17.4c1.1,1.7,2.2,3.4,3.2,5.2c0.3,0.5,0.6,1,0.9,1.6c4.8,9.1,8.2,19.3,9.8,30.2
				c0,0.1,0.1,0.1,0.1,0.2c0.3,1.9,0.5,3.9,0.6,5.9c0.2,2.3,0.3,4.7,0.3,7.1C341,158.9,341,159.3,341,159.6z"/>
			<g>
				<path class="st2" d="M341,159.6c0,1.2,0,2.4-0.1,3.5c-0.1,3.4-0.4,6.9-0.9,10.2l-0.5,4.8l-0.2,2.6l-0.1,1.5l-0.2,2.2
					c-0.2,2.3-0.3,4.5-0.5,6.8c0,0.6-0.1,1.1-0.1,1.7c-8-19-11.6-39.8-10.5-60.4c-5.8-10.7-14.5-18.3-25.5-23.4
					c-7.5-3.4-15.6-5.2-23.7-5.2c-3.9,0-7.8,0.4-11.7,1.2c-11.9-2.6-24.4-1.1-35.5,4c-11,5.1-19.7,12.7-25.5,23.4
					c1.1,20.3-2.4,40.8-10.1,59.5c0-0.5-0.1-1.1-0.1-1.6c-0.1-1.7-0.3-3.5-0.4-5.2l-0.4-4.7c-0.1-0.5-0.2-1-0.2-1.5
					c-0.1-0.6-0.2-1.1-0.3-1.7c-0.4-2.1-0.6-4.3-0.9-6.5c-0.1-1-0.2-2-0.3-3c-0.2-2.7-0.3-5.4-0.3-8.2c0-0.3,0-0.6,0-1
					c0-2.4,0.1-4.8,0.3-7.1c0.1-2,0.4-4,0.7-5.9c1.7-11.8,5.5-22.8,10.9-32.5c1.4-2.4,2.9-4.7,4.4-7c5.2-7.5,11.7-14,18.9-19.1
					c0.5-0.4,1.1-0.8,1.6-1.1c0.6-0.4,1.3-0.9,1.9-1.3c2.6-1.6,5.2-3,7.9-4.2c11.4-5.2,25.1-7.6,37.5-5.2c0.6,0.1,1.2,0.2,1.8,0.3
					c5.1,1,10,2.5,14.7,4.7c1.5,0.7,3,1.4,4.4,2.2c2.1,1.1,4.1,2.3,6.1,3.6c0.1,0.1,0.3,0.2,0.5,0.3c2.1,1.4,4.1,2.9,6.1,4.6
					c5.8,4.9,11,10.8,15.3,17.4c1.1,1.7,2.2,3.4,3.2,5.2c0.3,0.5,0.6,1,0.9,1.6c4.8,9.1,8.2,19.3,9.8,30.2c0,0.1,0.1,0.1,0.1,0.2
					c0.3,1.9,0.5,3.9,0.6,5.9c0.2,2.3,0.3,4.7,0.3,7.1C341,158.9,341,159.3,341,159.6z"/>
				<g>
					<g>
						<path class="st7" d="M309.2,108.3c1.4,9.8,9.4,18,18.7,19.1"/>
						<path class="st7" d="M306.4,102.6c0.4,8.5,3.7,16.8,9.2,23s13.2,10.2,21.2,11"/>
						<path class="st7" d="M306.9,107.6c0.4,8.5,3.7,16.8,9.2,23c5.5,6.2,13.2,10.2,21.2,11"/>
					</g>
					<g>
						<path class="st7" d="M224.8,108.3c-1.4,9.8-9.4,18-18.7,19.1"/>
						<path class="st7" d="M227.6,102.6c-0.4,8.5-3.7,16.8-9.2,23s-13.2,10.2-21.2,11"/>
						<path class="st7" d="M227.1,107.6c-0.4,8.5-3.7,16.8-9.2,23s-13.2,10.2-21.2,11"/>
					</g>
				</g>
			</g>
			<g>
				<g>
					<g>
						<g>
							<g>
								<g>
									<g>
										<path class="st2" d="M284.8,189l3.3-4.2c3.5-4.3,8.6-7.1,14.1-7.8c5.5-0.7,11.2,0.8,15.7,4l4.3,3.2l-0.3-0.1
											c0.9,0,2-0.7,2.8-1.2c0.9-0.6,1.8-1.2,2.6-2c0.1-0.1,0.2-0.1,0.3,0c0.1,0.1,0.1,0.2,0,0.3c-1.7,1.6-3.4,3.4-5.7,3.8
											c-0.1,0-0.2,0-0.3-0.1c-2.6-1.7-6.1-4.5-9-5.5c-8.2-3.3-18.2-1-24,5.7l-3.6,4C285,189.5,284.6,189.2,284.8,189L284.8,189z
											"/>
									</g>
									<path class="st2" d="M296.8,183.2c0.2-3.4,3.2-6.1,6.7-5.8s6,3.2,5.8,6.7s-3.2,6.1-6.7,5.8
										C299.2,189.7,296.6,186.7,296.8,183.2z"/>
									<path class="st6" d="M315.8,188.2c2.3-0.5,4.5-1.6,6.3-3"/>
								</g>
							</g>
						</g>
					</g>
					<path class="st6" d="M284.8,181.7c3.5-4.8,9-8.1,14.8-8.9"/>
				</g>
				<g>
					<g>
						<g>
							<g>
								<g>
									<g>
										<path class="st2" d="M252.3,189.3l-3.6-4c-3.5-4-8.4-6.5-13.7-7.1c-5.2-0.6-10.6,0.8-14.9,3.8l-4.4,3.1
											c-0.1,0.1-0.2,0.1-0.3,0.1c-2.4-0.5-4-2.2-5.7-3.8c-0.1-0.1-0.1-0.2,0-0.3c0.1-0.1,0.2-0.1,0.3,0c0.8,0.7,1.7,1.4,2.6,2
											c0.8,0.5,1.9,1.1,2.8,1.2l-0.3,0.1c2.6-1.9,6.1-4.7,9.2-5.8c6.8-2.8,15.1-1.8,21,2.6c2.7,1.8,5.3,5.5,7.3,8
											C252.8,189.2,252.5,189.5,252.3,189.3L252.3,189.3z"/>
									</g>
									<path class="st2" d="M240.7,183.2c-0.2-3.4-3.2-6.1-6.7-5.8s-6.1,3.2-5.8,6.7s3.2,6.1,6.7,5.8S240.9,186.7,240.7,183.2z"/>
									<path class="st6" d="M221.7,188.2c-2.3-0.5-4.5-1.6-6.3-3"/>
								</g>
							</g>
						</g>
					</g>
					<path class="st6" d="M252.6,181.7c-3.5-4.8-8.9-8.1-14.8-8.9"/>
				</g>
			</g>
			<g>
				<g>
					<path class="st6" d="M271.7,225.3c1.7-0.8,3.2-1.9,4.3-3.4"/>
					<path class="st6" d="M265.8,225.3c-1.7-0.8-3.2-1.9-4.3-3.4"/>
				</g>
				<line class="st8" x1="268.1" y1="195.3" x2="268.1" y2="217.7"/>
			</g>
			<g>
				<g>
					<path class="st2" d="M116.2,465.6c27.7,12.5,52.9,16.3,56.4,8.6c3.5-7.7-16.1-24.1-43.8-36.6c-27.7-12.5-52.9-16.3-56.4-8.6
						C69,436.7,88.6,453.1,116.2,465.6z"/>
					<path class="st5" d="M50.5,555.7c0.1-0.3,0.2-0.7,0.3-1l36.8-105.3l8-23l16.2-46.3c5.1-14.8,16.1-25.5,28.6-29.9
						c4.1-1.4,8.3-2.2,12.5-2.2c3.9,0,7.8,0.6,11.6,2c21.7,7.6,31.5,34.9,21.2,59.4l-21.1,50.3l-7.7,18.2l-6.2,14.9l-26.5,62.9"/>
					<path class="st2" d="M73.1,428c5.1-6.5,29.3-2.4,55.8,9.5c27.7,12.5,47.3,28.9,43.8,36.6c-0.1,0.2-0.2,0.3-0.3,0.5l0.3,0.1
						l30.6-71.6c12-28.1-1-60.2-28.2-69.7c-5.2-1.8-10.4-2.7-15.6-2.7c-18.6,0-36.6,11.1-45.7,29L73.1,428z"/>
				</g>
				<g>
					<path class="st2" d="M415.1,465.6c-27.7,12.5-52.9,16.3-56.4,8.6c-3.5-7.7,16.1-24.1,43.8-36.6c27.7-12.5,52.9-16.3,56.4-8.6
						S442.7,453.1,415.1,465.6z"/>
					<path class="st5" d="M406.9,555.7L378.9,489l-4.6-11.1l-7.7-18.2l-5.1-12.1l-8.6-20.6l-7.4-17.6c-10.3-24.5-0.5-51.7,21.2-59.4
						c3.8-1.3,7.7-2,11.5-2c3.4,0,6.9,0.5,10.2,1.5c13.5,3.8,25.4,15,30.9,30.6l16.2,46.3l8,23l36.9,105.3c0.1,0.3,0.2,0.7,0.3,1"/>
					<path class="st2" d="M458.2,428c-5.1-6.5-29.3-2.4-55.8,9.5c-27.7,12.5-47.3,28.9-43.8,36.6c0.1,0.2,0.2,0.3,0.3,0.5l-0.3,0.1
						l-30.6-71.6c-12-28.1,1-60.2,28.2-69.7c5.2-1.8,10.4-2.7,15.6-2.7c18.6,0,36.5,11.1,45.7,29L458.2,428z"/>
				</g>
			</g>
			<g>
				<path class="st9" d="M389.2,392.6l-8.7,41.7c1.7,3.8,3.1,7.8,4,12c1,4.4,1.5,8.9,1.5,13.5c0,5.5-0.7,10.9-2.1,16
					c-1.2,4.4-2.8,8.6-4.9,12.6c-3.4,6.5-7.9,12.4-13.3,17.4l-10.2,49.3H170.9l-10.2-50.8c-3.7-3.6-7-7.7-9.7-12.2
					c-3.2-5.3-5.7-11.1-7.2-17.3c-1.2-4.8-1.8-9.8-1.8-15c0-5.3,0.7-10.4,1.9-15.3c0.8-3.1,1.8-6.1,3-9l-8.6-42.9
					c-3.7-15.8-3-31.3,2.6-42.9c4.6-9.7,12.6-16.7,24.1-19.2c2.9-0.6,6.1-1,9.6-1h183c3.4,0,6.5,0.3,9.4,1c11,2.4,18,9.2,21.7,18.5
					C393.4,360.7,393,376.5,389.2,392.6z"/>
				<path class="st9" d="M304.5,327.4l14.5,2.2c-8.2,21.4-29.4,37.9-52.5,38.9c-24.8,1.1-48.9-15.9-57.7-38.9l20.6-2.2"/>
			</g>
			<g>
				<g>
					<path class="st2" d="M251.3,163.6c-2.4-3.1-5.8-4.9-9.2-6.1c-3.4-1.2-7-1.7-10.5-1.7c-3.5,0-7.1,0.5-10.4,1.6
						c-3.4,1.1-6.7,2.7-9.5,5.4c3.7,0.9,7,1.3,10.3,1.7c3.3,0.3,6.5,0.4,9.6,0.4c3.2,0,6.3-0.1,9.6-0.3
						C244.3,164.3,247.5,164,251.3,163.6z"/>
				</g>
				<g>
					<path class="st2" d="M281.8,163.6c2.4-3.1,5.8-4.9,9.2-6.1c3.4-1.2,7-1.7,10.5-1.7c3.5,0,7,0.5,10.5,1.6
						c3.4,1.1,6.7,2.7,9.5,5.4c-3.7,0.9-7,1.3-10.3,1.7c-3.3,0.3-6.5,0.4-9.6,0.4c-3.2,0-6.3-0.1-9.5-0.3
						C288.8,164.3,285.6,164,281.8,163.6z"/>
				</g>
			</g>
			<g>
				<g>
					<g>
						<g>
							<path class="st2" d="M285.7,202.5c0-0.1,0-0.3,0-0.4c0-0.1,0-0.1-0.1-0.2c0,0-0.1-0.1-0.2-0.1c-0.1,0-0.1,0-0.2,0.1
								c0,0.1-0.1,0.1-0.1,0.2c0,0.1,0,0.3,0,0.4c0,0.1,0,0.1,0.1,0.2c0,0,0.1,0.1,0.2,0.1c0.1,0,0.1,0,0.2-0.1
								C285.6,202.6,285.7,202.6,285.7,202.5L285.7,202.5z"/>
						</g>
					</g>
					<g>
						<g>
							<path class="st2" d="M301.9,204.5c0.3,0,0.3-0.5,0-0.5S301.6,204.5,301.9,204.5L301.9,204.5z"/>
						</g>
					</g>
					<g>
						<g>
							<path class="st2" d="M295,207.5c0.3,0,0.3-0.5,0-0.5S294.6,207.5,295,207.5L295,207.5z"/>
						</g>
					</g>
					<g>
						<g>
							<path class="st2" d="M296.7,200.2c0.3,0,0.3-0.5,0-0.5C296.4,199.7,296.4,200.2,296.7,200.2L296.7,200.2z"/>
						</g>
					</g>
					<g>
						<g>
							<path class="st2" d="M314.4,200.6c0.3,0,0.3-0.5,0-0.5S314.1,200.6,314.4,200.6L314.4,200.6z"/>
						</g>
					</g>
					<g>
						<g>
							<path class="st2" d="M307.5,198.4c0.3,0,0.3-0.5,0-0.5S307.2,198.4,307.5,198.4L307.5,198.4z"/>
						</g>
					</g>
					<g>
						<g>
							<path class="st2" d="M308.8,205.4c0.3,0,0.3-0.5,0-0.5S308.5,205.4,308.8,205.4L308.8,205.4z"/>
						</g>
					</g>
					<g>
						<g>
							<path class="st2" d="M280,209.9c0-0.1,0-0.3,0-0.4c0-0.1,0-0.1-0.1-0.2c0,0-0.1-0.1-0.2-0.1c-0.1,0-0.1,0-0.2,0.1
								c0,0.1-0.1,0.1-0.1,0.2c0,0.1,0,0.3,0,0.4c0,0.1,0,0.1,0.1,0.2c0,0,0.1,0.1,0.2,0.1c0.1,0,0.1,0,0.2-0.1
								C280,210,280,209.9,280,209.9L280,209.9z"/>
						</g>
					</g>
					<g>
						<g>
							<path class="st2" d="M280.2,203.1c-0.1,0-0.3,0-0.4,0c-0.1,0-0.1,0-0.2,0.1c0,0-0.1,0.1-0.1,0.2c0,0.1,0,0.1,0.1,0.2
								c0,0,0.1,0.1,0.2,0.1c0.1,0,0.3,0,0.4,0c0.1,0,0.1,0,0.2-0.1c0,0,0.1-0.1,0.1-0.2c0-0.1,0-0.1-0.1-0.2
								C280.4,203.1,280.3,203.1,280.2,203.1L280.2,203.1z"/>
						</g>
					</g>
					<g>
						<g>
							<path class="st2" d="M318.3,198c0.3,0,0.3-0.5,0-0.5C318,197.5,318,198,318.3,198L318.3,198z"/>
						</g>
					</g>
					<g>
						<g>
							<path class="st2" d="M273.5,213.3c0-0.1,0-0.3,0-0.4c0-0.1,0-0.1-0.1-0.2c0,0-0.1-0.1-0.2-0.1c-0.1,0-0.1,0-0.2,0.1
								c0,0.1-0.1,0.1-0.1,0.2c0,0.1,0,0.3,0,0.4c0,0.1,0,0.1,0.1,0.2c0,0,0.1,0.1,0.2,0.1c0.1,0,0.1,0,0.2-0.1
								C273.5,213.5,273.5,213.4,273.5,213.3L273.5,213.3z"/>
						</g>
					</g>
				</g>
				<g>
					<g>
						<g>
							<path class="st2" d="M252.1,202.3c0.3,0,0.3-0.5,0-0.5C251.8,201.8,251.8,202.3,252.1,202.3L252.1,202.3z"/>
						</g>
					</g>
					<g>
						<g>
							<path class="st2" d="M253.8,208.8c0.3,0,0.3-0.5,0-0.5S253.5,208.8,253.8,208.8L253.8,208.8z"/>
						</g>
					</g>
					<g>
						<g>
							<path class="st2" d="M245.2,201c0.3,0,0.3-0.5,0-0.5S244.8,201,245.2,201L245.2,201z"/>
						</g>
					</g>
					<g>
						<g>
							<path class="st2" d="M236.1,199.7c0.3,0,0.3-0.5,0-0.5C235.7,199.2,235.7,199.7,236.1,199.7L236.1,199.7z"/>
						</g>
					</g>
					<g>
						<g>
							<path class="st2" d="M243.4,205.8c0.3,0,0.3-0.5,0-0.5C243.1,205.3,243.1,205.8,243.4,205.8L243.4,205.8z"/>
						</g>
					</g>
					<g>
						<g>
							<path class="st2" d="M228.7,200.6c0.3,0,0.3-0.5,0-0.5C228.4,200.1,228.4,200.6,228.7,200.6L228.7,200.6z"/>
						</g>
					</g>
					<g>
						<g>
							<path class="st2" d="M215.7,201c0.3,0,0.3-0.5,0-0.5S215.4,201,215.7,201L215.7,201z"/>
						</g>
					</g>
					<g>
						<g>
							<path class="st2" d="M209.2,196.7c0.3,0,0.3-0.5,0-0.5S208.9,196.7,209.2,196.7L209.2,196.7z"/>
						</g>
					</g>
					<g>
						<g>
							<path class="st2" d="M220.5,200.2c0.3,0,0.3-0.5,0-0.5C220.2,199.7,220.1,200.2,220.5,200.2L220.5,200.2z"/>
						</g>
					</g>
					<g>
						<g>
							<path class="st2" d="M234.8,204.5c0.3,0,0.3-0.5,0-0.5C234.4,204,234.4,204.5,234.8,204.5L234.8,204.5z"/>
						</g>
					</g>
					<g>
						<g>
							<path class="st2" d="M224.4,204c-0.1,0-0.3,0-0.4,0c-0.1,0-0.1,0-0.2,0.1c0,0-0.1,0.1-0.1,0.2c0,0.1,0,0.1,0.1,0.2
								c0.1,0,0.1,0.1,0.2,0.1c0.1,0,0.3,0,0.4,0c0.1,0,0.1,0,0.2-0.1c0,0,0.1-0.1,0.1-0.2c0-0.1,0-0.1-0.1-0.2
								C224.5,204,224.4,204,224.4,204L224.4,204z"/>
						</g>
					</g>
					<g>
						<g>
							<path class="st2" d="M210.1,203.2c0.3,0,0.3-0.5,0-0.5C209.8,202.7,209.8,203.2,210.1,203.2L210.1,203.2z"/>
						</g>
					</g>
					<g>
						<g>
							<path class="st2" d="M217.4,207.1c0.3,0,0.3-0.5,0-0.5C217.1,206.6,217.1,207.1,217.4,207.1L217.4,207.1z"/>
						</g>
					</g>
					<g>
						<g>
							<path class="st2" d="M229.1,210.6c0.3,0,0.3-0.5,0-0.5C228.8,210.1,228.8,210.6,229.1,210.6L229.1,210.6z"/>
						</g>
					</g>
				</g>
			</g>
			<g>
				<g>
					<path class="st10" d="M288.3,247.6c-4.5,2.9-10.5,3.2-15.4,0.9c-3.3,1.4-7.2,1.4-10.5,0c-4.9,2.2-10.9,1.9-15.4-0.8
						c2.3,0.1,5.3-1.9,6.9-3.2l0.8-0.6c1.8-1.5,3.7-3,6.1-3.8c2.3-0.7,5.4-0.3,7.2,1.6c1.7-1.9,4.8-2.2,7.1-1.6
						c2.4,0.8,4.3,2.3,6.1,3.8l0.8,0.6C283.5,245.8,286,247.6,288.3,247.6z"/>
					<path class="st10" d="M246.9,247.7c0,0-0.1,0-0.1,0"/>
					<path class="st10" d="M288.3,247.6c0.1,0,0.2,0,0.3,0"/>
					<path class="st10" d="M291.5,244.9c-0.9,1.1-2,2-3.2,2.7"/>
					<path class="st10" d="M246.9,247.7c-1.2-0.7-2.4-1.6-3.3-2.8"/>
				</g>
				<path class="st6" d="M256.6,257c7.5,1.8,15.3,2,22.9,0.6"/>
			</g>
		</g>
	</g>
</g>
</svg>
