<?xml version="1.0" encoding="utf-8"?>
<!-- Generator: Adobe Illustrator 26.0.3, SVG Export Plug-In . SVG Version: 6.00 Build 0)  -->
<svg version="1.1" id="Laag_1" xmlns="http://www.w3.org/2000/svg" xmlns:xlink="http://www.w3.org/1999/xlink" x="0px" y="0px"
	 viewBox="0 0 382 426" style="enable-background:new 0 0 382 426;" xml:space="preserve">
<style type="text/css">
	.st0{fill:#EE5555;}
</style>
<g>
	<path class="st0" d="M187.02,23.57c2.95,0,5.9,0,8.84,0c9.75,1.75,17.1,7.52,24.07,14.1c4.91,4.64,10.21,8.87,15.1,13.53
		c2.26,2.15,4.54,2.81,7.57,2.55c12.72-1.11,25.45-2.06,38.18-3c18.65-1.38,32.31,8.68,36.67,26.91
		c2.46,10.27,4.99,20.53,7.36,30.82c0.53,2.32,1.57,3.85,3.66,5.08c11.43,6.72,22.78,13.56,34.14,20.41
		c16.13,9.72,21.48,26.04,14.32,43.54c-4.42,10.8-8.95,21.55-13.24,32.4c-0.59,1.49-0.58,3.62,0.01,5.12
		c4.29,10.85,8.84,21.59,13.25,32.39c7.15,17.5,1.76,33.82-14.36,43.54c-11.35,6.84-22.69,13.71-34.13,20.41
		c-2.13,1.25-3.1,2.79-3.64,5.09c-2.31,9.93-5.19,19.75-7.05,29.76c-2.93,15.81-16.44,30.49-39.25,27.95
		c-12.32-1.37-24.71-2.06-37.08-2.85c-1.59-0.1-3.6,0.64-4.84,1.67c-5.67,4.71-11.26,9.53-16.64,14.57
		c-6.99,6.54-14.36,12.29-24.08,14.08c-2.95,0-5.9,0-8.84,0c-9.71-1.79-17.08-7.53-24.07-14.06c-5.38-5.03-10.96-9.86-16.64-14.54
		c-1.33-1.09-3.48-1.8-5.2-1.69c-13.34,0.85-26.66,2.17-40.01,2.9c-18.22,1-31.42-9.12-35.66-26.84
		c-2.49-10.39-4.87-20.8-7.58-31.13c-0.49-1.87-1.99-3.95-3.62-4.96c-11.48-7.09-23.12-13.91-34.69-20.85
		c-8.66-5.19-14.2-12.65-16.15-22.66c-0.09-0.45-0.4-0.86-0.61-1.29c0-3.2,0-6.4,0-9.6c1.37-3.9,2.59-7.86,4.13-11.69
		c4.06-10.11,8.33-20.13,12.31-30.26c0.58-1.49,0.54-3.6-0.04-5.1c-5.36-13.89-10.91-27.71-16.4-41.55c0-3.45,0-6.89,0-10.34
		c0.2-0.29,0.53-0.55,0.6-0.87c2.09-10.59,8.19-18.12,17.41-23.45c10.09-5.84,20.11-11.79,30.02-17.93c1.77-1.1,3.41-3.18,4.06-5.16
		c3.96-12.01,7.64-24.11,11.37-36.19c4.8-15.54,18.59-24.95,34.79-23.71c13.21,1.01,26.43,2.01,39.64,3.11
		c2.59,0.22,4.62-0.22,6.63-2.11c5.19-4.87,10.76-9.35,15.94-14.24C170.11,30.91,177.43,25.31,187.02,23.57z M104.46,73.08
		c-12.4-0.76-14.92,0.98-18.03,10.9c-4.01,12.77-8.13,25.51-11.97,38.34c-1.32,4.42-3.73,7.51-7.69,9.81
		c-11.57,6.73-23.02,13.65-34.52,20.48c-7.41,4.4-8.95,8.94-5.63,17c5,12.15,9.95,24.33,15.09,36.42c1.86,4.37,1.86,8.41,0.01,12.79
		c-5.09,11.98-9.97,24.05-14.92,36.09c-3.52,8.55-2.1,12.87,5.74,17.53c12.55,7.47,25.04,15.05,37.66,22.41
		c4.32,2.52,6.88,5.86,7.98,10.83c2.69,12.11,5.58,24.19,8.79,36.17c0.81,3.01,2.54,6.52,4.96,8.15c2.55,1.72,6.47,2.16,9.72,1.96
		c14.21-0.86,28.41-2.05,42.59-3.34c4.98-0.45,9.05,0.72,12.8,4.13c8.54,7.78,17.29,15.33,25.99,22.93
		c5.78,5.05,11.03,5.08,16.75,0.09c8.52-7.44,17.12-14.78,25.41-22.47c4.24-3.93,8.76-5.16,14.43-4.61
		c14.17,1.38,28.38,2.41,42.59,3.4c8.22,0.57,11.94-2.41,13.87-10.46c2.9-12.06,5.95-24.09,8.67-36.2
		c1.02-4.55,3.34-7.71,7.29-10.05c12.89-7.62,25.72-15.36,38.56-23.07c7.44-4.46,8.97-9.06,5.7-17.01
		c-4.91-11.93-9.68-23.91-14.81-35.74c-2.12-4.87-2.18-9.25-0.06-14.14c5.03-11.6,9.68-23.37,14.49-35.08
		c3.77-9.19,2.47-13.14-6.13-18.31c-12.73-7.65-25.45-15.32-38.23-22.9c-3.62-2.14-5.73-5.1-6.68-9.21
		c-2.88-12.45-5.91-24.86-8.92-37.28c-1.71-7.03-5.95-10.44-12.49-9.96c-15.55,1.15-31.1,2.29-46.64,3.6
		c-4.22,0.36-7.65-0.79-10.77-3.59c-8.51-7.64-17.1-15.17-25.65-22.76c-6.37-5.65-11.46-5.68-17.86-0.03
		c-8.66,7.65-17.33,15.28-25.95,22.97c-3.03,2.7-6.4,3.75-10.47,3.4C131.55,75.08,116.98,74.04,104.46,73.08z"/>
	<path class="st0" d="M69.86,212.58c0.01-67.14,54.67-121.85,121.67-121.79c67.01,0.06,121.61,54.9,121.47,122
		c-0.14,67.16-54.87,121.77-121.87,121.61C124.29,334.24,69.85,279.56,69.86,212.58z M91.96,212.56
		c-0.02,54.82,44.57,99.61,99.25,99.69c54.9,0.08,99.68-44.67,99.69-99.63c0.02-54.82-44.58-99.61-99.26-99.68
		C136.72,112.86,91.98,157.58,91.96,212.56z"/>
	<path class="st0" d="M180.37,231.19c1.67-2.17,2.45-3.46,3.48-4.5c18.04-18.13,36.11-36.21,54.17-54.33
		c3.27-3.28,7-4.92,11.65-3.57c4.15,1.2,6.7,3.97,7.72,8.12c1.01,4.06-0.3,7.55-3.1,10.47c-3.32,3.46-6.75,6.81-10.14,10.2
		c-18.15,18.19-36.3,36.38-54.46,54.56c-6.32,6.32-12.27,6.37-18.5,0.14c-14.08-14.09-28.18-28.15-42.19-42.31
		c-6.69-6.76-4.18-16.97,4.62-19.18c4.51-1.13,8.13,0.61,11.28,3.78c10.75,10.81,21.55,21.57,32.29,32.38
		C178.15,227.91,178.83,229.12,180.37,231.19z"/>
</g>
</svg>
