<svg id="Laag_1" data-name="Laag 1" xmlns="http://www.w3.org/2000/svg" viewBox="0 0 176.11 159.09"><defs><style>.cls-1{fill:#e55;}</style></defs><path class="cls-1" d="M145.64,84v1.22a7.37,7.37,0,0,0-.32,1.29c-.15,1.86-.2,3.74-.38,5.6a53.75,53.75,0,0,1-8.17,24.19c-7.29,11.35-17.53,18.85-30.31,23.06a130.76,130.76,0,0,1-33.29,6.8,78.26,78.26,0,0,1-17-.8A59.69,59.69,0,0,1,25,130.6c-8-7.22-13.43-16.27-17.3-26.26A109.67,109.67,0,0,1,1,75.21C.23,67.58-.13,60,1.3,52.38c4-21.4,16.84-36,36.08-45.06,8.47-4,17.92-4.81,27.24-5.23a79.3,79.3,0,0,1,24.47,2.7C107,9.62,121.33,19.53,131.54,35c9.4,14.24,13.14,30.28,13.78,47.15A13.56,13.56,0,0,0,145.64,84Z"/><path d="M176.08,134.87a19.39,19.39,0,0,1-1,2.1,6.31,6.31,0,0,1-5.67,2.86H127.67L130.59,156c.84,0,1.54,0,2.24,0a1.6,1.6,0,0,1,1.68,1.62,1.64,1.64,0,0,1-1.6,1.71,10.59,10.59,0,0,1-1.13,0H104.67a7.59,7.59,0,0,1-1.35-.08,1.52,1.52,0,0,1-1.37-1.66,1.49,1.49,0,0,1,1.44-1.59c.74-.07,1.5,0,2.36,0,.32-1.55.63-3,.93-4.47.08-.37.13-.75.24-1.1a1.61,1.61,0,0,1,2-1.19,1.54,1.54,0,0,1,1.24,1.86c-.24,1.56-.57,3.1-.88,4.75h17.83l-2.86-16H112.15c-.17,1-.33,2-.5,3.06-.22,1.27-1,2-2,1.81s-1.5-1-1.35-2.23c.1-.86.26-1.71.42-2.72H67.35c-4.49,0-7-2.49-7-7V66.17c0-4.37,2.49-6.88,6.84-6.88H147c1.66,0,2.44.54,2.44,1.68s-.79,1.68-2.44,1.68H67.77a10.45,10.45,0,0,0-1.68.09A2.73,2.73,0,0,0,63.81,65a5.77,5.77,0,0,0-.05,1c0,2,0,4,0,6.12H172.63c0-2.42.11-4.82,0-7.21-.08-1.34-1.32-2.17-2.86-2.21s-3.31,0-5,0c-2.94,0-5.88,0-8.81,0a2.52,2.52,0,0,1-1.68-.65,1.81,1.81,0,0,1-.23-1.64,2.07,2.07,0,0,1,1.45-1c1.61-.13,3.24-.06,4.86-.06h8.13c4.47,0,5.93,1,7.6,5.07ZM127,84.06H63.82v39.27H127Zm45.65,0H130.51v39.3h42.12Zm.05,42.84H63.77c0,2.35-.05,4.6,0,6.86a3,3,0,0,0,3.59,2.69H169.07a7.12,7.12,0,0,0,1.13,0,2.74,2.74,0,0,0,2.47-2.65C172.72,131.49,172.68,129.23,172.68,126.9ZM63.79,80.52H172.62v-4.9H63.79Z"/><path d="M71.6,65.73a1.69,1.69,0,0,1-.1,3.37,1.69,1.69,0,0,1,.1-3.37Z"/><path d="M80,69.1a1.69,1.69,0,0,1,.07-3.37A1.69,1.69,0,0,1,80,69.1Z"/><path d="M88.53,69.1a1.7,1.7,0,0,1-1.64-1.78,1.73,1.73,0,0,1,1.72-1.59,1.69,1.69,0,0,1-.08,3.37Z"/><path d="M99.43,98.41c-.13.39-.24.79-.4,1.16q-2.11,4.86-4.25,9.7c-.54,1.23-1.4,1.67-2.36,1.24s-1.26-1.36-.73-2.57c1.45-3.34,2.92-6.67,4.38-10,.37-.85,1-1.43,1.94-1.1.61.22,1.06.86,1.58,1.31Z"/><path d="M87.21,98.71a13.69,13.69,0,0,1-.65,1.42,31.41,31.41,0,0,1-1.82,2.72,1.16,1.16,0,0,0,0,1.59c.66.92,1.24,1.89,1.83,2.85s.53,2-.32,2.58a1.72,1.72,0,0,1-2.5-.73c-1-1.48-1.89-3-2.85-4.47a1.74,1.74,0,0,1,0-2.1c1-1.5,2-3,3-4.51a1.51,1.51,0,0,1,2-.67A6,6,0,0,1,87.21,98.71Z"/><path d="M105.8,110.15a1.73,1.73,0,0,1-1.78-2.57c.61-1.08,1.29-2.12,2-3.14a1.16,1.16,0,0,0,0-1.59c-.68-.89-1.28-1.86-1.88-2.81a1.67,1.67,0,0,1,.34-2.48,1.7,1.7,0,0,1,2.44.59c1,1.45,2,2.94,2.94,4.41a1.82,1.82,0,0,1,0,2.12c-1,1.52-1.91,3.07-2.94,4.55A4.45,4.45,0,0,1,105.8,110.15Z"/><path d="M151.48,98.52c-4.71,0-9.42,0-14.12,0a8.49,8.49,0,0,1-1.13,0,1.56,1.56,0,0,1-1.48-1.57A1.53,1.53,0,0,1,136,95.25a4.59,4.59,0,0,1,1.23-.11q14.34,0,28.69,0c.23,0,.46,0,.68,0a1.78,1.78,0,0,1,1.79,1.69,1.7,1.7,0,0,1-1.87,1.68c-5,0-10,0-15,0Z"/><path d="M151.67,115.62c4.9,0,9.79,0,14.69,0,1.52,0,2.38,1.09,1.85,2.3a1.91,1.91,0,0,1-2.05,1.07H137.47c-.3,0-.6,0-.9,0a1.73,1.73,0,0,1-1.83-1.75,1.7,1.7,0,0,1,1.91-1.62C141.66,115.61,146.66,115.62,151.67,115.62Z"/><path d="M151.44,105.34H137.1c-.48,0-1.1,0-1.41-.22a2.23,2.23,0,0,1-.88-1.52,2.66,2.66,0,0,1,1.12-1.48,2.44,2.44,0,0,1,1.32-.16h28.58c.22,0,.45,0,.67,0a1.76,1.76,0,0,1,1.86,1.72,1.71,1.71,0,0,1-1.89,1.65c-5,0-10,0-15,0Z"/><path d="M151.56,112.17H137.33a6.41,6.41,0,0,1-1.24-.08,1.65,1.65,0,0,1,0-3.24,6.07,6.07,0,0,1,1.13-.07h28.91c1.41,0,2.22.65,2.2,1.71s-.81,1.67-2.23,1.68C161.27,112.18,156.42,112.17,151.56,112.17Z"/><path d="M137.64,88.46c.38,0,.76,0,1.13,0a1.61,1.61,0,0,1,1.6,1.68,1.54,1.54,0,0,1-1.54,1.62,16,16,0,0,1-2.59,0,1.53,1.53,0,0,1-1.49-1.66,1.56,1.56,0,0,1,1.54-1.63c.45,0,.9,0,1.35,0Z"/></svg>